SplineFontDB: 3.0
FontName: Tuffy-Italic
FullName: Tuffy Italic
FamilyName: Tuffy
Weight: Regular
Copyright: Created by Thatcher Ulrich (http://tulrich.com), Karoly Barta and Michael Everson with FontForge (http://fontforge.sf.net)\n\nLicensed under SIL OFL v1.1 (see LICENSE.txt)
FontLog: "2010-08-20: Merged accented and extended characters from Karoly Barta and Michael Everson.+AAoA-2004-9-1: Created." 
Version: 001.270
ItalicAngle: -12
UnderlinePosition: -100
UnderlineWidth: 50
Ascent: 1597
Descent: 451
LayerCount: 2
Layer: 0 0 "Back"  1
Layer: 1 0 "Fore"  0
XUID: [1021 745 1046372284 8037501]
FSType: 0
OS2Version: 0
OS2_WeightWidthSlopeOnly: 0
OS2_UseTypoMetrics: 0
CreationTime: 1166531129
ModificationTime: 1314198413
PfmFamily: 33
TTFWeight: 500
TTFWidth: 5
LineGap: 93
VLineGap: 0
Panose: 2 11 6 3 6 1 0 0 0 0
OS2TypoAscent: 0
OS2TypoAOffset: 1
OS2TypoDescent: 0
OS2TypoDOffset: 1
OS2TypoLinegap: 0
OS2WinAscent: 0
OS2WinAOffset: 1
OS2WinDescent: 0
OS2WinDOffset: 1
HheadAscent: 0
HheadAOffset: 1
HheadDescent: 0
HheadDOffset: 1
OS2SubXSize: 0
OS2SubYSize: 2
OS2SubXOff: -16560
OS2SubYOff: 0
OS2SupXSize: -25944
OS2SupYSize: -27176
OS2SupXOff: -16376
OS2SupYOff: 1
OS2StrikeYSize: 12312
OS2StrikeYPos: -16224
OS2Vendor: 'PfEd'
Lookup: 4 0 1 "Tuffy-Regular-'liga' Standard Ligatures Hungarian"  {"Tuffy-Regular-'liga' Standard Ligatures lookup 4-1"  } ['liga' ('latn' <'HUN ' > ) ]
Lookup: 1 0 0 "Tuffy-Regular-'locl' Localized Forms Romanian"  {"Tuffy-Regular-'locl' Localized Forms in Latin lookup 2-1"  } ['locl' ('DFLT' <'MOL ' 'ROM ' 'dflt' > 'latn' <'MOL ' 'ROM ' 'dflt' > ) ]
Lookup: 4 0 0 "Tuffy-Regular-'frac' Diagonal Fractions lookup 2"  {"Tuffy-Regular-'frac' Diagonal Fractions lookup 2-2"  } ['frac' ('DFLT' <'dflt' > 'grek' <'dflt' > 'latn' <'dflt' > ) ]
Lookup: 4 0 1 "Tuffy-Regular-'liga' Standard Ligatures lookup 1"  {"Tuffy-Regular-'liga' Standard Ligatures lookup 1-1"  } ['liga' ('DFLT' <'dflt' > 'latn' <'dflt' > ) ]

StartChar: exclam
Encoding: 33 33 1
Width: 421
Flags: HMW
LayerCount: 2
Fore
SplineSet
123 94 m 0
 136 154 195 202 254 202 c 0
 306 202 341 165 341 117 c 0
 341 109 340 102 338 94 c 0
 325 35 267 -13 208 -13 c 0
 156 -13 121 23 121 72 c 0
 120 79 122 87 123 94 c 0
375 440 m 1
 368 406 333 381 304 381 c 1
 276 382 256 400 256 427 c 0
 256 431 257 436 258 440 c 1
 418 1389 l 1
 429 1442 485 1483 536 1483 c 1
 583 1483 619 1449 619 1407 c 0
 619 1402 619 1396 618 1391 c 1
 375 440 l 1
EndSplineSet
EndChar

StartChar: quotedbl
Encoding: 34 34 2
Width: 690
Flags: HMW
LayerCount: 2
Fore
SplineSet
382 1092 m 1
 441 1466 l 1
 452 1516 493 1542 529 1542 c 0
 530 1542 531 1542 533 1542 c 0
 565 1542 592 1524 593 1486 c 0
 593 1480 592 1473 591 1466 c 1
 490 1092 l 1
 481 1061 449 1044 425 1044 c 0
 402 1044 380 1056 381 1083 c 0
 381 1086 381 1089 382 1092 c 1
674 1092 m 1
 734 1466 l 1
 745 1516 786 1542 822 1542 c 0
 823 1542 824 1542 826 1542 c 0
 858 1542 885 1524 885 1486 c 0
 886 1480 884 1473 883 1466 c 1
 783 1092 l 1
 774 1061 742 1044 718 1044 c 0
 695 1044 673 1056 674 1083 c 0
 674 1086 674 1089 674 1092 c 1
EndSplineSet
EndChar

StartChar: numbersign
Encoding: 35 35 3
Width: 1589
Flags: HMW
LayerCount: 2
Fore
SplineSet
1085 547 m 0
 1157 885 l 0
 815 885 l 0
 743 547 l 0
 1085 547 l 0
1204 406 m 0
 1129 53 l 1
 980 53 l 1
 1055 406 l 0
 713 406 l 0
 638 53 l 1
 488 53 l 1
 563 406 l 0
 215 406 l 1
 245 547 l 1
 593 547 l 0
 665 885 l 0
 317 885 l 1
 347 1024 l 1
 695 1024 l 0
 775 1403 l 1
 925 1403 l 1
 845 1024 l 0
 1187 1024 l 0
 1267 1403 l 1
 1416 1403 l 1
 1336 1024 l 0
 1697 1024 l 1
 1667 885 l 1
 1306 885 l 0
 1234 547 l 0
 1595 547 l 1
 1565 406 l 1
 1204 406 l 0
EndSplineSet
EndChar

StartChar: dollar
Encoding: 36 36 4
Width: 1017
Flags: HMW
LayerCount: 2
Back
SplineSet
434.176 1495.04 m 1
 581.632 1495.04 l 1
 581.632 -114.688 l 1
 434.176 -114.688 l 1
 434.176 1495.04 l 1
24.5762 266.24 m 1
 159.744 346.112 l 1
 249.856 206.848 321.538 112.64 507.906 112.64 c 1
 690.178 112.64 811.008 219.136 811.008 376.832 c 1
 811.008 565.248 632.037 623.215 454.656 671.744 c 0
 299.418 714.216 92.1602 780.288 83.9678 1034.24 c 0
 76.0439 1279.87 274.432 1413.12 507.904 1413.12 c 1
 747.521 1413.12 841.729 1306.62 935.934 1167.36 c 1
 811.008 1087.49 l 1
 751.616 1189.89 667.648 1271.81 507.904 1271.81 c 1
 354.304 1271.81 245.76 1198.08 245.76 1034.24 c 0
 245.76 843.776 419.396 838.961 565.246 782.336 c 0
 751.104 710.183 974.848 673.792 972.8 376.832 c 0
 971.078 126.982 778.24 -26.624 507.904 -28.6719 c 1
 284.672 -26.624 157.696 57.3438 24.5762 266.24 c 1
EndSplineSet
Fore
SplineSet
780 1537 m 1
 909 1537 l 1
 882 1411 l 1
 1032 1399 1125 1305 1184 1168 c 1
 1042 1088 l 1
 1017 1165 956 1249 851 1264 c 1
 747 775 l 1
 899 712 1065 670 1065 476 c 0
 1065 448 1061 418 1054 383 c 0
 1008 168 825 0 576 -26 c 1
 549 -155 l 1
 422 -155 l 1
 449 -26 l 1
 231 -8 155 94 82 266 c 1
 234 346 l 1
 281 237 327 133 480 117 c 1
 598 672 l 1
 431 714 297 789 297 963 c 0
 297 990 300 1019 307 1051 c 0
 352 1264 548 1397 752 1409 c 1
 780 1537 l 1
629 817 m 1
 725 1270 l 1
 601 1255 495 1174 469 1051 c 0
 464 1026 462 1005 462 985 c 0
 462 881 533 843 629 817 c 1
716 630 m 1
 607 119 l 1
 757 143 862 242 892 383 c 0
 895 399 898 416 898 431 c 0
 898 518 841 589 716 630 c 1
EndSplineSet
EndChar

StartChar: percent
Encoding: 37 37 5
Width: 1402
Flags: HMW
LayerCount: 2
Fore
SplineSet
970 373 m 0
 967 359 966 346 966 334 c 0
 966 267 1007 219 1079 219 c 0
 1159 219 1240 283 1259 373 c 0
 1261 383 1263 394 1262 404 c 0
 1262 470 1216 522 1143 522 c 0
 1065 522 987 453 970 373 c 0
841 373 m 0
 873 522 1020 643 1171 643 c 0
 1303 643 1394 551 1394 429 c 0
 1394 411 1392 392 1388 373 c 0
 1356 223 1208 104 1056 104 c 0
 924 104 835 194 835 316 c 0
 835 335 837 353 841 373 c 0
460 1077 m 0
 457 1064 457 1051 456 1039 c 0
 457 972 498 924 571 924 c 0
 651 924 732 987 751 1077 c 0
 753 1088 755 1098 755 1109 c 0
 755 1174 709 1227 636 1227 c 0
 558 1227 477 1157 460 1077 c 0
333 1077 m 0
 365 1227 512 1348 664 1348 c 0
 796 1348 886 1256 886 1133 c 0
 886 1115 884 1096 880 1077 c 0
 848 928 700 809 549 809 c 0
 417 809 327 899 327 1021 c 0
 327 1039 329 1058 333 1077 c 0
453 137 m 1
 303 137 l 1
 1275 1319 l 0
 1419 1319 l 1
 453 137 l 1
EndSplineSet
EndChar

StartChar: ampersand
Encoding: 38 38 6
Width: 1241
Flags: HMW
LayerCount: 2
Back
SplineSet
1026.05 251.904 m 13xd0
 870.4 299.008 l 21
 819.198 188.416 700.414 112.64 591.87 112.64 c 5
 413.696 112.64 260.096 229.376 260.096 423.936 c 4xd0
 260.096 624.64 428.585 731.136 587.776 731.136 c 6
 665.6 731.136 l 5
 665.6 856.064 l 5
 567.296 856.064 l 4
 442.368 856.064 327.68 962.561 327.68 1116.16 c 4
 327.68 1253.38 446.464 1357.82 569.344 1357.82 c 6
 575.488 1357.82 l 4
 686.08 1357.82 768 1294.34 808.958 1200.13 c 13
 946.176 1263.62 l 21
 876.544 1400.83 737.28 1497.09 569.344 1497.09 c 4
 368.64 1497.09 169.984 1343.49 169.984 1116.16 c 4xe0
 169.984 940.032 284.672 829.44 352.256 794.624 c 5
 256.739 765.747 102.4 622.592 102.4 423.936 c 4
 102.4 159.744 317.44 -28.6719 591.872 -28.6719 c 5
 747.521 -28.6719 948.224 71.6797 1026.05 251.904 c 13xd0
EndSplineSet
Fore
SplineSet
1066 1200 m 17
 1039 1292 989 1352 854 1352 c 1
 725 1352 598 1260 568 1120 c 0
 564 1102 562 1085 562 1068 c 0
 562 951 653 877 753 877 c 2
 854 877 l 1
 824 735 l 1
 727 735 l 2
 541 735 392 631 349 430 c 0
 343 403 341 379 341 355 c 0
 341 199 457 113 585 113 c 0
 755 113 907 256 939 408 c 1
 744 408 l 1
 773 547 l 1
 1275 547 l 1
 1245 406 l 1
 1104 406 l 1
 1068 238 873 -29 555 -29 c 0
 343 -29 181 125 181 337 c 0
 181 367 184 398 191 430 c 0
 239 655 432 791 538 813 c 1
 465 847 401 919 401 1038 c 0
 401 1063 404 1091 410 1120 c 0
 450 1309 643 1493 884 1493 c 0
 1069 1493 1178 1389 1215 1266 c 9
 1066 1200 l 17
EndSplineSet
EndChar

StartChar: quotesingle
Encoding: 39 39 7
Width: 382
Flags: HMW
LayerCount: 2
Fore
SplineSet
382 1092 m 1
 441 1466 l 1
 452 1516 493 1542 529 1542 c 0
 530 1542 531 1542 533 1542 c 0
 565 1542 592 1524 593 1486 c 0
 593 1480 592 1473 591 1466 c 1
 490 1092 l 1
 481 1061 449 1044 425 1044 c 0
 402 1044 380 1056 381 1083 c 0
 381 1086 381 1089 382 1092 c 1
EndSplineSet
EndChar

StartChar: parenleft
Encoding: 40 40 8
Width: 548
Flags: HMW
LayerCount: 2
Fore
SplineSet
261 -84 m 1
 200 55 163 225 163 414 c 0
 163 517 174 627 198 739 c 0
 253 997 397 1303 608 1550 c 1
 786 1550 l 1
 544 1282 405 997 348 729 c 0
 329 639 320 549 320 462 c 0
 320 256 368 65 439 -84 c 1
 261 -84 l 1
EndSplineSet
EndChar

StartChar: parenright
Encoding: 41 41 9
Width: 536
Flags: HMW
LayerCount: 2
Fore
SplineSet
248 -84 m 1
 72 -84 l 1
 298 168 453 465 509 727 c 0
 528 814 536 904 536 993 c 0
 536 1198 490 1399 419 1550 c 1
 595 1550 l 1
 654 1411 692 1229 692 1034 c 0
 692 934 683 830 661 727 c 0
 603 453 463 164 248 -84 c 1
EndSplineSet
EndChar

StartChar: asterisk
Encoding: 42 42 10
Width: 913
Flags: HMW
LayerCount: 2
Fore
SplineSet
572 518 m 1
 411 294 l 2
 398 275 372 254 341 254 c 0
 328 254 315 257 302 266 c 0
 285 277 275 294 275 314 c 0
 275 318 276 323 277 328 c 0
 280 341 286 355 297 369 c 2
 476 576 l 1
 228 562 l 2
 203 562 166 573 166 617 c 0
 166 623 167 630 169 638 c 0
 178 681 214 712 260 712 c 2
 505 698 l 1
 414 906 l 2
 410 917 408 932 411 948 c 0
 415 969 429 992 463 1009 c 0
 478 1017 493 1021 506 1021 c 0
 531 1021 553 1007 560 981 c 2
 624 762 l 1
 779 979 l 2
 798 1005 825 1019 850 1019 c 0
 863 1019 876 1015 887 1007 c 0
 908 994 916 976 916 959 c 0
 916 955 915 950 914 946 c 0
 911 930 901 915 893 904 c 2
 714 698 l 1
 964 712 l 2
 1003 712 1027 690 1027 656 c 0
 1027 650 1026 644 1025 638 c 0
 1012 577 961 562 932 562 c 2
 691 576 l 1
 782 371 l 2
 787 357 788 343 785 330 c 0
 780 305 761 282 734 268 c 0
 717 259 702 256 689 256 c 0
 658 256 641 277 636 296 c 2
 572 518 l 1
EndSplineSet
EndChar

StartChar: plus
Encoding: 43 43 11
Width: 894
Flags: HMW
LayerCount: 2
Fore
SplineSet
229 711 m 1
 536 711 l 1
 602 1022 l 1
 743 1022 l 1
 677 711 l 1
 985 711 l 1
 955 569 l 1
 647 569 l 1
 581 258 l 1
 440 258 l 1
 506 569 l 1
 199 569 l 1
 229 711 l 1
EndSplineSet
EndChar

StartChar: comma
Encoding: 44 44 12
Width: 399
Flags: HMW
LayerCount: 2
Fore
SplineSet
338 94 m 1
 305 -63 177 -186 148 -221 c 1
 99 -190 l 1
 126 -160 193 -84 208 -12 c 0
 156 -12 121 23 121 72 c 0
 120 79 122 87 123 94 c 0
 136 154 195 202 254 202 c 0
 306 202 341 165 341 117 c 0
 341 109 340 102 338 94 c 1
EndSplineSet
EndChar

StartChar: hyphen
Encoding: 45 45 13
Width: 866
Flags: HMW
LayerCount: 2
Fore
SplineSet
259 705 m 1
 936 705 l 1
 906 563 l 1
 229 563 l 1
 259 705 l 1
EndSplineSet
EndChar

StartChar: period
Encoding: 46 46 14
Width: 405
Flags: HMW
LayerCount: 2
Back
SplineSet
55.5117 138.778 m 4
 55.5117 215.382 117.684 277.556 194.288 277.556 c 4
 270.894 277.556 333.066 215.382 333.066 138.778 c 4
 333.066 62.1719 270.894 0 194.288 0 c 4
 117.684 0 55.5117 62.1719 55.5117 138.778 c 4
EndSplineSet
Fore
SplineSet
123 94 m 0
 136 154 195 202 254 202 c 0
 306 202 341 165 341 117 c 0
 341 109 340 102 338 94 c 0
 325 35 267 -13 208 -13 c 0
 156 -13 121 23 121 72 c 0
 120 79 122 87 123 94 c 0
EndSplineSet
EndChar

StartChar: slash
Encoding: 47 47 15
Width: 808
Flags: HMW
LayerCount: 2
Fore
SplineSet
135 0 m 1
 -23 0 l 1
 1022 1544 l 0
 1180 1544 l 1
 135 0 l 1
EndSplineSet
EndChar

StartChar: zero
Encoding: 48 48 16
Width: 1136
Flags: HMW
LayerCount: 2
Fore
SplineSet
255 727 m 0
 342 1137 596 1493 899 1493 c 0
 1129 1493 1235 1288 1235 1010 c 0
 1235 921 1225 826 1204 727 c 1
 1117 319 871 -29 567 -29 c 1
 335 -29 225 175 225 453 c 0
 225 539 235 632 255 727 c 0
413 727 m 1
 396 645 384 558 384 476 c 0
 384 279 441 113 597 113 c 0
 821 113 987 449 1046 727 c 1
 1065 816 1075 911 1075 999 c 0
 1076 1191 1021 1352 869 1352 c 1
 647 1352 473 1008 413 727 c 1
EndSplineSet
EndChar

StartChar: one
Encoding: 49 49 17
Width: 1136
Flags: HMW
LayerCount: 2
Fore
SplineSet
838 1206 m 1
 680 1206 l 1
 956 1456 l 1
 1048 1456 l 1
 739 0 l 1
 582 0 l 1
 838 1206 l 1
EndSplineSet
EndChar

StartChar: two
Encoding: 50 50 18
Width: 1136
Flags: HMW
LayerCount: 2
Back
SplineSet
111.81 1007.74 m 4
 111.81 1276.45 310.762 1494.53 555.898 1494.53 c 4
 801.036 1494.53 999.987 1276.45 999.987 1007.74 c 4
 999.987 739.031 801.036 520.95 555.898 520.95 c 4
 310.762 520.95 111.81 739.031 111.81 1007.74 c 4
338.125 1007.74 m 4
 338.125 1163.31 435.688 1289.56 555.898 1289.56 c 4
 676.11 1289.56 773.673 1163.31 773.673 1007.74 c 4
 773.673 852.173 676.11 725.914 555.898 725.914 c 4
 435.688 725.914 338.125 852.173 338.125 1007.74 c 4
EndSplineSet
Fore
SplineSet
498 1110 m 9
 371 1165 l 17
 461 1348 685 1495 887 1495 c 0
 1068 1495 1226 1395 1226 1173 c 0
 1226 1136 1222 1096 1213 1053 c 0
 1153 772 819 610 707 541 c 0
 588 467 351 274 323 141 c 1
 1046 141 l 17
 1016 0 l 1
 109 0 l 1
 178 326 447 528 689 676 c 0
 812 751 1017 850 1060 1053 c 0
 1066 1081 1069 1107 1069 1132 c 0
 1069 1277 971 1354 857 1354 c 0
 730 1354 583 1272 498 1110 c 9
EndSplineSet
EndChar

StartChar: three
Encoding: 51 51 19
Width: 1126
Flags: HMW
LayerCount: 2
Back
SplineSet
25.6201 1076.06 m 4
 25.6201 1321.2 224.571 1494.53 469.709 1494.53 c 4
 714.847 1494.53 913.797 1321.2 913.797 1076.06 c 4
 913.797 830.925 714.847 657.593 469.709 657.593 c 4
 224.571 657.593 25.6201 830.925 25.6201 1076.06 c 4
226.314 1076.06 m 4
 226.314 1210.41 335.355 1293.83 469.709 1293.83 c 4
 604.062 1293.83 713.104 1210.41 713.104 1076.06 c 4
 713.104 941.705 604.062 858.286 469.709 858.286 c 4
 335.355 858.286 226.314 941.705 226.314 1076.06 c 4
469.709 1076.06 m 29
23.4863 414.198 m 4
 23.4863 659.333 222.436 858.286 467.575 858.286 c 4
 712.71 858.286 911.661 659.333 911.661 414.198 c 4
 911.661 169.06 712.71 -29.8896 467.575 -29.8896 c 4
 222.438 -29.8896 23.4863 169.06 23.4863 414.198 c 4
224.181 414.198 m 4
 224.181 548.553 333.22 657.593 467.575 657.593 c 4
 601.928 657.593 710.968 548.553 710.968 414.198 c 4
 710.968 279.845 601.928 170.804 467.575 170.804 c 4
 333.22 170.804 224.181 279.845 224.181 414.198 c 4
467.575 414.198 m 29
EndSplineSet
Fore
SplineSet
167 252 m 9
 332 299 l 17
 359 188 462 113 571 113 c 1
 749 113 928 229 969 424 c 0
 974 448 977 471 977 492 c 0
 977 649 846 731 706 731 c 2
 628 731 l 1
 655 856 l 1
 753 856 l 0
 878 856 1015 963 1048 1116 c 0
 1052 1133 1053 1148 1053 1164 c 0
 1053 1277 966 1358 858 1358 c 2
 852 1358 l 0
 742 1358 646 1294 585 1200 c 9
 462 1264 l 17
 560 1401 719 1497 887 1497 c 0
 1064 1497 1215 1377 1215 1193 c 0
 1215 1168 1212 1143 1206 1116 c 0
 1169 940 1030 829 955 795 c 1
 1032 770 1135 661 1135 504 c 0
 1135 479 1132 452 1126 424 c 0
 1070 160 815 -29 541 -29 c 1
 385 -29 206 72 167 252 c 9
EndSplineSet
EndChar

StartChar: four
Encoding: 52 52 20
Width: 1136
Flags: HMW
LayerCount: 2
Fore
SplineSet
1171 1445 m 1
 978 537 l 9
 1167 537 l 17
 1137 397 l 1
 948 397 l 1
 864 0 l 1
 707 0 l 1
 791 397 l 1
 172 397 l 9
 1003 1456 l 1
 1016 1456 l 1
 1173 1456 l 1
 1171 1445 l 1
971 1221 m 1
 439 539 l 1
 826 539 l 1
 971 1221 l 1
EndSplineSet
EndChar

StartChar: five
Encoding: 53 53 21
Width: 1136
Flags: HMW
LayerCount: 2
Back
SplineSet
224.181 1131.57 m 4
 224.181 1331.92 388.696 1494.53 591.405 1494.53 c 4
 794.116 1494.53 958.632 1331.92 958.632 1131.57 c 4
 958.632 931.22 794.116 768.614 591.405 768.614 c 4
 388.696 768.614 224.181 931.22 224.181 1131.57 c 4
145.182 414.198 m 4
 145.182 659.333 344.134 858.286 589.271 858.286 c 4
 834.408 858.286 1033.36 659.333 1033.36 414.198 c 4
 1033.36 169.06 834.408 -29.8896 589.271 -29.8896 c 4
 344.134 -29.8896 145.182 169.06 145.182 414.198 c 4
345.877 414.198 m 4
 345.877 548.553 454.918 657.593 589.271 657.593 c 4
 723.624 657.593 832.666 548.553 832.666 414.198 c 4
 832.666 279.845 723.624 170.804 589.271 170.804 c 4
 454.918 170.804 345.877 279.845 345.877 414.198 c 4
589.271 414.198 m 29
EndSplineSet
Fore
SplineSet
776 807 m 1
 616 807 531 735 495 711 c 1
 366 786 l 9
 602 1456 l 1
 1274 1456 l 1
 1245 1315 l 1
 704 1315 l 1
 547 887 l 1
 612 922 692 942 804 942 c 1
 1021 942 1159 802 1160 584 c 0
 1160 545 1156 503 1147 459 c 1
 1092 201 871 -29 592 -29 c 1
 361 -29 220 119 205 330 c 9
 367 358 l 17
 380 256 425 113 622 113 c 1
 798 113 947 254 991 461 c 1
 997 488 1000 515 1000 539 c 0
 1000 541 1000 542 1000 544 c 0
 1001 697 905 807 776 807 c 1
EndSplineSet
EndChar

StartChar: six
Encoding: 54 54 22
Width: 1136
Flags: HMW
LayerCount: 2
Back
SplineSet
199.348 1131.57 m 4
 199.348 1331.92 363.864 1494.53 566.573 1494.53 c 4
 769.284 1494.53 933.8 1331.92 933.8 1131.57 c 4
 933.8 931.22 769.284 768.614 566.573 768.614 c 4
 363.864 768.614 199.348 931.22 199.348 1131.57 c 4
120.35 414.198 m 4
 120.35 659.333 319.302 858.286 564.439 858.286 c 4
 809.576 858.286 1008.53 659.333 1008.53 414.198 c 4
 1008.53 169.06 809.576 -29.8896 564.439 -29.8896 c 4
 319.302 -29.8896 120.35 169.06 120.35 414.198 c 4
321.045 414.198 m 4
 321.045 548.553 430.086 657.593 564.439 657.593 c 4
 698.792 657.593 807.834 548.553 807.834 414.198 c 4
 807.834 279.845 698.792 170.804 564.439 170.804 c 4
 430.086 170.804 321.045 279.845 321.045 414.198 c 4
564.439 414.198 m 29
EndSplineSet
Fore
SplineSet
966 408 m 0
 970 429 972 451 972 472 c 0
 972 605 879 709 724 709 c 1
 546 709 399 561 367 412 c 0
 362 390 359 369 359 349 c 0
 359 212 462 121 601 121 c 1
 786 121 936 266 966 408 c 0
612 827 m 1
 661 846 696 858 755 858 c 0
 971 858 1125 709 1125 502 c 0
 1125 500 1125 498 1125 496 c 0
 1125 468 1121 438 1115 408 c 1
 1071 201 844 -29 565 -29 c 0
 335 -29 207 138 207 324 c 0
 207 352 210 381 216 410 c 1
 259 614 417 784 482 870 c 1
 940 1454 l 9
 1095 1454 l 17
 612 827 l 1
EndSplineSet
EndChar

StartChar: seven
Encoding: 55 55 23
Width: 1136
Flags: HMW
LayerCount: 2
Fore
SplineSet
1388 1456 m 1
 524 0 l 1
 342 0 l 1
 1136 1307 l 1
 389 1307 l 1
 420 1456 l 1
 1388 1456 l 1
EndSplineSet
EndChar

StartChar: eight
Encoding: 56 56 24
Width: 1136
Flags: HMW
LayerCount: 2
Back
SplineSet
136.642 1076.06 m 4
 136.642 1321.2 335.594 1494.53 580.73 1494.53 c 4
 825.868 1494.53 1024.82 1321.2 1024.82 1076.06 c 4
 1024.82 830.925 825.868 657.593 580.73 657.593 c 4
 335.594 657.593 136.642 830.925 136.642 1076.06 c 4
337.336 1076.06 m 4
 337.336 1210.41 446.378 1293.83 580.73 1293.83 c 4
 715.084 1293.83 824.125 1210.41 824.125 1076.06 c 4
 824.125 941.705 715.084 858.286 580.73 858.286 c 4
 446.378 858.286 337.336 941.705 337.336 1076.06 c 4
580.73 1076.06 m 29
134.508 414.198 m 4
 134.508 659.333 333.46 858.286 578.597 858.286 c 4
 823.732 858.286 1022.68 659.333 1022.68 414.198 c 4
 1022.68 169.06 823.732 -29.8896 578.597 -29.8896 c 4
 333.46 -29.8896 134.508 169.06 134.508 414.198 c 4
335.202 414.198 m 4
 335.202 548.553 444.242 657.593 578.597 657.593 c 4
 712.95 657.593 821.989 548.553 821.989 414.198 c 4
 821.989 279.845 712.95 170.804 578.597 170.804 c 4
 444.242 170.804 335.202 279.845 335.202 414.198 c 4
578.597 414.198 m 29
EndSplineSet
Fore
SplineSet
606 113 m 0
 788 113 968 256 1005 432 c 1
 1010 455 1013 477 1013 498 c 0
 1013 648 892 739 743 739 c 1
 563 739 395 627 354 432 c 0
 349 409 347 386 346 364 c 0
 347 216 456 113 606 113 c 0
571 1124 m 0
 566 1102 564 1084 564 1064 c 0
 564 949 647 881 773 881 c 1
 916 881 1044 969 1077 1124 c 1
 1081 1143 1082 1161 1082 1178 c 0
 1082 1282 1011 1356 872 1356 c 1
 708 1356 598 1251 571 1124 c 0
902 1497 m 1
 1108 1497 1242 1375 1242 1201 c 0
 1242 1198 1242 1196 1242 1193 c 0
 1242 1171 1239 1148 1234 1124 c 1
 1193 930 1050 844 979 807 c 1
 1059 766 1172 673 1172 512 c 0
 1172 487 1169 461 1163 432 c 0
 1107 168 838 -29 576 -29 c 1
 347 -29 186 124 185 336 c 0
 186 367 189 399 196 432 c 1
 243 653 428 768 532 807 c 1
 477 844 402 907 403 1037 c 0
 403 1039 403 1040 403 1042 c 0
 403 1067 407 1094 413 1124 c 1
 458 1335 666 1497 902 1497 c 1
EndSplineSet
EndChar

StartChar: nine
Encoding: 57 57 25
Width: 1136
Flags: HMW
LayerCount: 2
Back
SplineSet
241.089 1054.5 m 5
 241.089 925.477 341.351 811.358 484.653 811.358 c 5
 623.176 811.358 719.424 925.477 719.424 1043.11 c 5
 719.424 1190.22 608.229 1291.96 477.993 1291.96 c 5
 354.16 1291.96 241.089 1194.49 241.089 1054.5 c 5
737.784 716.073 m 5
 678.687 635.109 567.665 606.352 484.653 606.352 c 5
 200.438 606.352 34.5879 844.344 34.5879 1052.6 c 5
 34.5879 1299.11 232.465 1497.67 477.993 1497.67 c 4
 783.305 1497.67 945.572 1233.45 955.165 951.096 c 4
 957.44 884.068 953.269 811.487 943.432 720.511 c 5
EndSplineSet
Fore
SplineSet
517 1053 m 1
 513 1033 510 1014 510 995 c 0
 510 993 510 991 510 989 c 0
 510 856 604 752 758 752 c 1
 936 752 1084 899 1116 1049 c 1
 1120 1070 1123 1091 1122 1111 c 0
 1122 1248 1020 1341 881 1341 c 1
 697 1341 547 1194 517 1053 c 1
870 633 m 1
 821 614 785 602 726 602 c 0
 510 602 357 751 357 958 c 0
 357 988 360 1020 367 1053 c 1
 411 1260 639 1491 917 1491 c 1
 1148 1491 1275 1324 1275 1139 c 0
 1275 1110 1271 1080 1265 1051 c 0
 1221 846 1065 676 999 590 c 1
 550 0 l 9
 382 0 l 17
 870 633 l 1
EndSplineSet
EndChar

StartChar: colon
Encoding: 58 58 26
Width: 423
Flags: HMW
LayerCount: 2
Fore
SplineSet
133 94 m 0
 146 154 205 202 264 202 c 0
 316 202 351 165 351 117 c 0
 351 109 350 102 348 94 c 0
 335 35 277 -13 218 -13 c 0
 166 -13 131 23 131 72 c 0
 130 79 132 87 133 94 c 0
288 823 m 0
 301 883 360 931 419 931 c 0
 471 931 506 894 506 846 c 0
 506 838 505 831 503 823 c 0
 490 764 432 716 373 716 c 0
 321 716 286 752 286 801 c 0
 285 808 287 816 288 823 c 0
EndSplineSet
EndChar

StartChar: semicolon
Encoding: 59 59 27
Width: 423
Flags: HMW
LayerCount: 2
Fore
SplineSet
288 823 m 0
 301 883 360 931 419 931 c 0
 471 931 506 894 506 846 c 0
 506 838 505 831 503 823 c 0
 490 764 432 716 373 716 c 0
 321 716 286 752 286 801 c 0
 285 808 287 816 288 823 c 0
348 94 m 1
 315 -63 187 -186 158 -221 c 1
 109 -190 l 1
 136 -160 203 -84 218 -12 c 0
 166 -12 131 23 131 72 c 0
 130 79 132 87 133 94 c 0
 146 154 205 202 264 202 c 0
 316 202 351 165 351 117 c 0
 351 109 350 102 348 94 c 1
EndSplineSet
EndChar

StartChar: less
Encoding: 60 60 28
Width: 843
Flags: HMW
LayerCount: 2
Fore
SplineSet
597 23 m 1
 219 635 l 1
 855 1235 l 1
 1054 1235 l 1
 416 633 l 1
 796 23 l 1
 597 23 l 1
EndSplineSet
EndChar

StartChar: equal
Encoding: 61 61 29
Width: 907
Flags: HMW
LayerCount: 2
Fore
SplineSet
172 500 m 1
 972 500 l 1
 942 358 l 1
 142 358 l 1
 172 500 l 1
250 866 m 1
 1050 866 l 1
 1020 725 l 1
 220 725 l 1
 250 866 l 1
EndSplineSet
EndChar

StartChar: greater
Encoding: 62 62 30
Width: 856
Flags: HMW
LayerCount: 2
Fore
SplineSet
295 20 m 1
 96 20 l 1
 735 633 l 1
 355 1235 l 1
 554 1235 l 1
 932 635 l 1
 295 20 l 1
EndSplineSet
EndChar

StartChar: question
Encoding: 63 63 31
Width: 985
Flags: HMW
LayerCount: 2
Back
SplineSet
264.745 1093.14 m 0
 264.745 1199.21 373.787 1289.56 508.14 1289.56 c 4
 642.494 1289.56 751.534 1199.21 751.534 1093.14 c 0
 751.534 987.072 642.494 900.987 508.14 900.987 c 0
 373.787 900.987 264.745 987.072 264.745 1093.14 c 0
51.2402 1093.14 m 0
 51.2402 1314.71 254.018 1494.53 503.869 1494.53 c 0
 753.72 1494.53 956.498 1314.71 956.498 1093.14 c 0
 956.498 871.573 753.72 691.753 503.869 691.753 c 0
 254.018 691.753 51.2402 871.573 51.2402 1093.14 c 0
EndSplineSet
Fore
SplineSet
416 94 m 0
 429 154 488 202 547 202 c 0
 599 202 634 165 634 117 c 0
 634 109 633 102 631 94 c 0
 618 35 560 -13 501 -13 c 0
 449 -13 414 23 414 72 c 0
 413 79 415 87 416 94 c 0
679 501 m 1
 650 360 l 1
 493 360 l 1
 523 505 l 0
 563 692 706 759 829 852 c 0
 911 914 979 960 1007 1094 c 0
 1012 1118 1014 1140 1014 1161 c 0
 1014 1288 922 1356 784 1356 c 0
 610 1356 458 1196 434 1085 c 1
 293 1110 l 1
 364 1327 580 1497 807 1497 c 0
 1004 1497 1176 1397 1176 1190 c 0
 1176 1161 1172 1131 1165 1098 c 0
 1135 956 1050 862 964 791 c 0
 839 688 714 668 679 501 c 1
EndSplineSet
EndChar

StartChar: at
Encoding: 64 64 32
Width: 1624
Flags: HMW
LayerCount: 2
Back
SplineSet
1095.49 730.855 m 4
 1095.49 823.845 1170.96 899.31 1263.94 899.31 c 4
 1356.93 899.31 1432.4 823.845 1432.4 730.855 c 4
 1432.4 637.868 1356.93 562.401 1263.94 562.401 c 4
 1170.96 562.401 1095.49 637.868 1095.49 730.855 c 4
969.309 730.184 m 0
 969.309 892.821 1101.3 1024.82 1263.94 1024.82 c 0
 1426.58 1024.82 1558.58 892.821 1558.58 730.184 c 0
 1558.58 567.544 1426.58 435.548 1263.94 435.548 c 0
 1101.3 435.548 969.309 567.544 969.309 730.184 c 0
581.585 730.654 m 0
 581.585 847.868 677.96 944.243 795.175 944.243 c 0
 912.388 944.243 1008.76 847.868 1008.76 730.654 c 0
 1008.76 613.439 912.388 517.064 795.175 517.064 c 0
 677.96 517.064 581.585 613.439 581.585 730.654 c 0
157.566 730.323 m 0
 157.566 1082.76 441.795 1366.99 794.235 1366.99 c 0
 1146.68 1366.99 1430.91 1082.76 1430.91 730.323 c 0
 1430.91 377.881 1146.68 93.6543 794.235 93.6543 c 0
 441.795 93.6543 157.566 377.881 157.566 730.323 c 0
29.8896 730.184 m 0
 29.8896 1152.92 371.497 1494.53 794.235 1494.53 c 0
 1216.97 1494.53 1558.58 1152.92 1558.58 730.184 c 0
 1558.58 307.445 1216.97 -34.1602 794.235 -34.1602 c 0
 371.497 -34.1602 29.8896 307.445 29.8896 730.184 c 0
452.629 730.184 m 0
 452.629 918.067 606.352 1071.79 794.235 1071.79 c 0
 982.118 1071.79 1135.84 918.067 1135.84 730.184 c 0
 1135.84 542.3 982.118 388.577 794.235 388.577 c 0
 606.352 388.577 452.629 542.3 452.629 730.184 c 0
EndSplineSet
Fore
SplineSet
1221 213 m 1
 1277 111 l 17
 1130 18 966 -35 798 -35 c 0
 429 -35 179 223 179 568 c 0
 179 621 184 676 196 731 c 0
 286 1153 699 1495 1123 1495 c 0
 1495 1495 1745 1231 1745 913 c 0
 1745 870 1741 827 1731 782 c 0
 1687 573 1492 418 1373 418 c 0
 1299 418 1220 461 1179 518 c 1
 1103 438 994 389 888 389 c 0
 723 389 610 506 610 661 c 0
 610 684 613 707 618 731 c 0
 658 918 844 1071 1033 1071 c 0
 1195 1071 1292 951 1292 805 c 0
 1292 781 1288 756 1283 731 c 0
 1280 719 1280 706 1280 693 c 0
 1279 619 1324 547 1394 547 c 0
 1466 547 1575 655 1602 782 c 0
 1609 816 1613 850 1613 884 c 0
 1613 1138 1412 1368 1096 1368 c 0
 737 1368 396 1071 323 727 c 0
 314 683 309 639 309 597 c 0
 309 314 513 92 825 92 c 0
 952 92 1110 145 1221 213 c 1
747 731 m 0
 744 715 742 698 742 683 c 0
 742 583 815 516 915 516 c 0
 1038 516 1134 614 1159 731 c 0
 1162 744 1163 756 1163 768 c 0
 1163 864 1097 946 1006 946 c 0
 895 946 772 850 747 731 c 0
EndSplineSet
EndChar

StartChar: m
Encoding: 109 109 33
Width: 1533
Flags: HMW
LayerCount: 2
Back
SplineSet
280.576 0 m 9
 129.024 0 l 1
 129.024 1073.15 l 1
 280.576 1073.15 l 1
 280.576 870.4 l 17
 335.872 980.992 387.072 1101.82 532.48 1101.82 c 0
 731.136 1101.82 854.014 983.04 854.014 657.408 c 1
 854.016 0 l 1
 702.464 0 l 0
 702.462 657.408 l 1
 702.462 876.544 667.648 964.608 532.482 964.608 c 0
 376.832 964.608 280.576 790.528 280.576 618.496 c 0
 280.576 0 l 9
143.36 1474.56 m 25
 143.36 -53.248 l 25
430.08 1466.37 m 25
 430.08 -61.4404 l 25
286.72 -69.6318 m 25
 286.72 1458.18 l 25
 286.72 -69.6318 l 25
573.44 1470.46 m 25
 573.44 -57.3438 l 25
716.8 1466.37 m 25
 716.8 -61.4404 l 25
860.16 -49.1523 m 25
 860.16 1478.66 l 25
 860.16 -49.1523 l 25
EndSplineSet
Fore
SplineSet
854 0 m 1
 702 0 l 0
 818 547 l 1
 835 628 849 708 849 776 c 0
 849 887 813 965 704 965 c 0
 529 965 444 765 398 550 c 0
 281 0 l 9
 129 0 l 1
 357 1073 l 1
 509 1073 l 1
 470 891 l 17
 538 992 618 1102 776 1102 c 0
 939 1102 1012 990 1017 860 c 1
 1078 990 1200 1102 1353 1102 c 0
 1519 1102 1588 999 1588 836 c 0
 1588 781 1580 719 1566 653 c 1
 1427 0 l 1
 1276 0 l 0
 1391 543 l 1
 1409 626 1422 705 1422 773 c 0
 1422 882 1388 958 1280 958 c 0
 1104 958 1017 765 971 549 c 0
 854 0 l 1
EndSplineSet
EndChar

StartChar: n
Encoding: 110 110 34
Width: 1064
Flags: HMW
LayerCount: 2
Back
SplineSet
280.576 0 m 13
 129.024 0 l 5
 129.024 1073.15 l 5
 280.576 1073.15 l 5
 280.576 892.928 l 21
 313.344 970.752 423.936 1101.82 552.96 1101.82 c 4
 755.516 1101.82 956.429 902.24 956.414 659.456 c 5
 956.416 0 l 5
 804.864 0 l 4
 804.864 661.504 l 6
 804.864 850.59 672.924 964.608 550.912 964.608 c 4
 407.552 964.608 280.574 806.912 280.574 618.496 c 4
 280.576 0 l 13
1003.52 -49.1523 m 25
 1003.52 1478.66 l 25
 1003.52 -49.1523 l 25
143.36 1474.56 m 25
 143.36 -53.248 l 25
430.08 1466.37 m 25
 430.08 -61.4404 l 25
286.72 -69.6318 m 25
 286.72 1458.18 l 25
 286.72 -69.6318 l 25
573.44 1470.46 m 25
 573.44 -57.3438 l 25
716.8 1466.37 m 25
 716.8 -61.4404 l 25
860.16 -49.1523 m 25
 860.16 1478.66 l 25
 860.16 -49.1523 l 25
EndSplineSet
Fore
SplineSet
281 0 m 9
 129 0 l 1
 357 1073 l 1
 509 1073 l 1
 471 892 l 17
 530 1004 662 1102 820 1102 c 0
 987 1102 1098 999 1098 766 c 0
 1098 701 1089 626 1071 541 c 2
 956 0 l 1
 805 0 l 0
 920 541 l 1
 933 604 941 664 941 718 c 0
 941 864 887 965 751 965 c 0
 565 965 444 768 396 540 c 0
 281 0 l 9
EndSplineSet
EndChar

StartChar: o
Encoding: 111 111 35
Width: 1054
Flags: HMW
LayerCount: 2
Back
SplineSet
1003.52 -49.1523 m 29
 1003.52 1478.66 l 29
 1003.52 -49.1523 l 29
143.36 1474.56 m 25
 143.36 -53.248 l 25
430.08 1466.37 m 25
 430.08 -61.4404 l 25
286.72 -69.6318 m 25
 286.72 1458.18 l 25
 286.72 -69.6318 l 25
573.44 1470.46 m 25
 573.44 -57.3438 l 25
716.8 1466.37 m 25
 716.8 -61.4404 l 25
860.16 -49.1523 m 25
 860.16 1478.66 l 25
 860.16 -49.1523 l 25
EndSplineSet
Fore
SplineSet
216 537 m 0
 283 852 485 1094 772 1094 c 0
 1001 1094 1109 936 1109 713 c 0
 1109 658 1102 599 1089 537 c 0
 1022 221 822 -29 533 -29 c 0
 304 -29 196 132 196 357 c 0
 196 414 203 474 216 537 c 0
370 537 m 0
 357 478 351 421 351 369 c 0
 351 216 411 106 562 106 c 0
 763 106 885 304 935 537 c 0
 947 595 954 650 954 700 c 0
 954 851 894 958 743 958 c 0
 540 958 419 768 370 537 c 0
EndSplineSet
EndChar

StartChar: p
Encoding: 112 112 36
Width: 1044
Flags: HMW
LayerCount: 2
Back
SplineSet
280.576 0 m 13
 129.024 0 l 5
 129.024 1073.15 l 5
 280.576 1073.15 l 5
 280.576 870.4 l 21
 335.872 980.992 438.272 1101.82 583.68 1101.82 c 4
 782.336 1101.82 956.414 983.04 956.414 657.408 c 5
 956.416 0 l 5
 804.864 0 l 4
 804.862 657.408 l 5
 804.862 876.544 718.848 964.608 583.682 964.608 c 4
 428.032 964.608 280.576 790.528 280.576 618.496 c 4
 280.576 0 l 13
143.36 1474.56 m 25
 143.36 -53.248 l 25
430.08 1466.37 m 25
 430.08 -61.4404 l 25
286.72 -69.6318 m 25
 286.72 1458.18 l 25
 286.72 -69.6318 l 25
573.44 1470.46 m 25
 573.44 -57.3438 l 25
716.8 1466.37 m 25
 716.8 -61.4404 l 25
860.16 -49.1523 m 25
 860.16 1478.66 l 25
 860.16 -49.1523 l 25
EndSplineSet
Fore
SplineSet
509 1073 m 9
 469 886 l 1
 539 996 642 1102 814 1102 c 0
 1028 1102 1112 942 1112 737 c 0
 1112 674 1104 607 1090 539 c 0
 1029 254 855 -29 572 -29 c 0
 398 -29 344 76 320 184 c 9
 190 -428 l 1
 38 -428 l 1
 357 1073 l 1
 509 1073 l 9
936 539 m 0
 949 598 954 651 954 698 c 0
 954 873 874 966 757 966 c 0
 609 966 448 812 390 537 c 0
 378 481 373 431 373 385 c 0
 373 206 457 106 575 106 c 0
 723 106 878 264 936 539 c 0
EndSplineSet
EndChar

StartChar: q
Encoding: 113 113 37
Width: 1048
Flags: HMW
LayerCount: 2
Back
SplineSet
262.144 538.624 m 4
 262.144 322.897 356.633 106.496 509.954 106.496 c 4
 624.643 106.496 806.912 253.952 806.912 538.624 c 4
 806.912 779.053 651.571 956.416 505.856 956.416 c 4
 366.592 956.416 262.144 772.096 262.144 538.624 c 4
802.816 161.792 m 5
 764.203 104.886 666.786 -28.6963 513.495 -28.6963 c 4
 512.317 -28.6963 511.138 -28.6875 509.95 -28.6719 c 5
 509.053 -28.6777 508.156 -28.6816 507.263 -28.6816 c 4
 237.511 -28.6816 108.544 279.279 108.544 542.72 c 4
 108.544 825.344 249.856 1093.63 505.856 1093.63 c 4
 638.976 1093.63 747.522 995.328 802.818 894.976 c 13
 802.816 1073.15 l 5
 954.368 1073.15 l 5
 954.368 -18.4316 l 6
 954.368 -290.816 751.616 -448.512 548.864 -448.512 c 4
 293.073 -448.512 150.618 -252.853 133.12 -108.544 c 5
 276.478 -108.544 l 21
 295.285 -229.32 422.126 -313.344 540.672 -313.344 c 4
 665.6 -313.344 802.816 -225.28 802.816 -32.7676 c 4
 802.816 161.792 l 5
143.36 1474.56 m 25
 143.36 -53.248 l 25
430.08 1466.37 m 25
 430.08 -61.4404 l 25
286.72 -69.6318 m 25
 286.72 1458.18 l 25
 286.72 -69.6318 l 25
573.44 1470.46 m 25
 573.44 -57.3438 l 25
716.8 1466.37 m 25
 716.8 -61.4404 l 25
860.16 -49.1523 m 25
 860.16 1478.66 l 25
 860.16 -49.1523 l 25
EndSplineSet
Fore
SplineSet
877 -199 m 2
 873 -216 871 -230 871 -243 c 0
 871 -292 899 -313 970 -313 c 1
 942 -449 l 1
 798 -449 715 -399 715 -279 c 0
 715 -257 717 -232 723 -205 c 2
 767 0 l 1
 806 184 l 17
 694 11 578 -29 460 -29 c 0
 248 -29 166 137 166 342 c 0
 166 405 174 472 188 539 c 0
 249 828 422 1102 702 1102 c 0
 874 1102 931 996 955 886 c 1
 995 1073 l 17
 1147 1073 l 1
 919 0 l 1
 877 -199 l 2
342 539 m 0
 330 480 323 427 323 379 c 0
 323 204 403 106 519 106 c 0
 667 106 828 264 886 537 c 0
 898 593 904 644 904 690 c 0
 904 869 819 966 701 966 c 0
 553 966 401 816 342 539 c 0
EndSplineSet
EndChar

StartChar: r
Encoding: 114 114 38
Width: 686
Flags: HMW
LayerCount: 2
Back
SplineSet
143.36 1474.56 m 29
 143.36 -53.248 l 29
430.08 1466.37 m 29
 430.08 -61.4404 l 29
286.72 -69.6318 m 29
 286.72 1458.18 l 29
 286.72 -69.6318 l 29
573.44 1470.46 m 29
 573.44 -57.3438 l 29
716.8 1466.37 m 29
 716.8 -61.4404 l 29
860.16 -49.1523 m 29
 860.16 1478.66 l 29
 860.16 -49.1523 l 29
EndSplineSet
Fore
SplineSet
964 1066 m 0
 856 935 l 1
 829 954 793 965 751 965 c 0
 565 965 444 768 396 540 c 0
 281 0 l 9
 129 0 l 1
 357 1073 l 1
 509 1073 l 1
 471 892 l 17
 530 1004 662 1102 820 1102 c 0
 874 1102 923 1090 964 1066 c 0
EndSplineSet
EndChar

StartChar: s
Encoding: 115 115 39
Width: 921
Flags: HMW
LayerCount: 2
Back
SplineSet
108.544 806.912 m 4
 108.544 967.442 265.438 1097.73 458.752 1097.73 c 4
 652.066 1097.73 808.96 967.442 808.96 806.912 c 4
 808.96 646.382 652.066 516.096 458.752 516.096 c 4
 265.438 516.096 108.544 646.382 108.544 806.912 c 4
264.192 802.816 m 0
 264.192 890.995 353.189 962.561 462.848 962.561 c 0
 572.506 962.561 661.504 890.995 661.504 802.816 c 0
 661.504 714.638 572.506 643.072 462.848 643.072 c 0
 353.189 643.072 264.192 714.638 264.192 802.816 c 0
104.448 296.96 m 0
 104.448 475.578 266.847 620.544 466.944 620.544 c 0
 667.042 620.544 829.44 475.578 829.44 296.96 c 0
 829.44 118.342 667.042 -26.624 466.944 -26.624 c 0
 266.847 -26.624 104.448 118.342 104.448 296.96 c 0
256 301.056 m 0
 256 408.453 349.585 495.616 464.896 495.616 c 0
 580.207 495.616 673.792 408.453 673.792 301.056 c 0
 673.792 193.659 580.207 106.496 464.896 106.496 c 0
 349.585 106.496 256 193.659 256 301.056 c 0
143.36 1474.56 m 25
 143.36 -53.248 l 25
430.08 1466.37 m 25
 430.08 -61.4404 l 25
286.72 -69.6318 m 25
 286.72 1458.18 l 25
 286.72 -69.6318 l 25
573.44 1470.46 m 25
 573.44 -57.3438 l 25
716.8 1466.37 m 25
 716.8 -61.4404 l 25
860.16 -49.1523 m 25
 860.16 1478.66 l 25
 860.16 -49.1523 l 25
EndSplineSet
Fore
SplineSet
570 477 m 0
 433 525 286 588 286 746 c 0
 286 765 288 787 293 809 c 0
 334 1000 516 1096 702 1098 c 0
 930 1098 998 957 1008 871 c 1
 856 841 l 1
 843 898 801 963 676 963 c 0
 578 963 468 914 447 813 c 0
 444 801 443 789 443 779 c 0
 443 679 551 648 604 627 c 0
 720 581 908 529 908 350 c 0
 908 330 906 310 901 287 c 0
 861 101 664 -29 467 -29 c 0
 254 -29 159 78 142 217 c 1
 295 245 l 1
 314 163 361 106 492 106 c 0
 627 106 723 174 747 287 c 0
 749 298 750 308 750 317 c 0
 750 408 652 449 570 477 c 0
EndSplineSet
EndChar

StartChar: t
Encoding: 116 116 40
Width: 696
Flags: HMW
LayerCount: 2
Back
SplineSet
143.36 1474.56 m 29
 143.36 -53.248 l 29
430.08 1466.37 m 29
 430.08 -61.4404 l 29
286.72 -69.6318 m 29
 286.72 1458.18 l 29
 286.72 -69.6318 l 29
573.44 1470.46 m 29
 573.44 -57.3438 l 29
716.8 1466.37 m 29
 716.8 -61.4404 l 29
860.16 -49.1523 m 29
 860.16 1478.66 l 29
 860.16 -49.1523 l 29
EndSplineSet
Fore
SplineSet
443 938 m 0
 301 938 l 1
 330 1073 l 1
 472 1073 l 0
 525 1323 l 1
 676 1323 l 0
 623 1073 l 0
 820 1073 l 1
 791 938 l 1
 594 938 l 0
 441 215 l 2
 438 202 436 189 436 178 c 0
 436 125 469 98 533 98 c 2
 603 98 l 1
 576 -29 l 1
 506 -29 l 2
 344 -29 278 18 278 125 c 0
 278 150 282 179 289 211 c 1
 443 938 l 0
EndSplineSet
EndChar

StartChar: u
Encoding: 117 117 41
Width: 1064
Flags: HMW
LayerCount: 2
Back
SplineSet
143.36 1474.56 m 29
 143.36 -53.248 l 29
430.08 1466.37 m 29
 430.08 -61.4404 l 29
286.72 -69.6318 m 29
 286.72 1458.18 l 29
 286.72 -69.6318 l 29
573.44 1470.46 m 29
 573.44 -57.3438 l 29
716.8 1466.37 m 29
 716.8 -61.4404 l 29
860.16 -49.1523 m 29
 860.16 1478.66 l 29
 860.16 -49.1523 l 29
EndSplineSet
Fore
SplineSet
1023 1073 m 9
 1175 1073 l 1
 947 0 l 1
 795 0 l 1
 833 181 l 17
 774 69 642 -29 484 -29 c 0
 317 -29 206 74 206 307 c 0
 206 372 215 447 233 532 c 2
 348 1073 l 1
 499 1073 l 0
 384 532 l 1
 371 469 363 409 363 355 c 0
 363 209 417 108 553 108 c 0
 739 108 860 305 908 533 c 0
 1023 1073 l 9
EndSplineSet
EndChar

StartChar: v
Encoding: 118 118 42
Width: 1024
Flags: HMW
LayerCount: 2
Back
SplineSet
143.36 1474.56 m 29
 143.36 -53.248 l 29
430.08 1466.37 m 29
 430.08 -61.4404 l 29
286.72 -69.6318 m 29
 286.72 1458.18 l 29
 286.72 -69.6318 l 29
573.44 1470.46 m 29
 573.44 -57.3438 l 29
716.8 1466.37 m 29
 716.8 -61.4404 l 29
860.16 -49.1523 m 29
 860.16 1478.66 l 29
 860.16 -49.1523 l 29
EndSplineSet
Fore
SplineSet
446 0 m 1
 310 1073 l 1
 470 1073 l 1
 563 195 l 1
 1037 1073 l 1
 1195 1073 l 1
 598 0 l 1
 446 0 l 1
EndSplineSet
EndChar

StartChar: w
Encoding: 119 119 43
Width: 1374
Flags: HMW
LayerCount: 2
Back
SplineSet
143.36 1474.56 m 29
 143.36 -53.248 l 29
430.08 1466.37 m 29
 430.08 -61.4404 l 29
286.72 -69.6318 m 29
 286.72 1458.18 l 29
 286.72 -69.6318 l 29
573.44 1470.46 m 29
 573.44 -57.3438 l 29
716.8 1466.37 m 29
 716.8 -61.4404 l 29
860.16 -49.1523 m 29
 860.16 1478.66 l 29
 860.16 -49.1523 l 29
EndSplineSet
Fore
SplineSet
881 862 m 1
 471 0 l 1
 354 0 l 1
 296 1073 l 1
 449 1073 l 1
 467 250 l 1
 849 1065 l 0
 849 1065 941 1065 1000 1065 c 17
 1036 250 l 1
 1404 1073 l 17
 1557 1073 l 1
 1042 0 l 1
 920 0 l 1
 881 862 l 1
EndSplineSet
EndChar

StartChar: x
Encoding: 120 120 44
Width: 901
Flags: HMW
LayerCount: 2
Back
SplineSet
143.36 1474.56 m 29
 143.36 -53.248 l 29
430.08 1466.37 m 29
 430.08 -61.4404 l 29
286.72 -69.6318 m 29
 286.72 1458.18 l 29
 286.72 -69.6318 l 29
573.44 1470.46 m 29
 573.44 -57.3438 l 29
716.8 1466.37 m 29
 716.8 -61.4404 l 29
860.16 -49.1523 m 29
 860.16 1478.66 l 29
 860.16 -49.1523 l 29
EndSplineSet
Fore
SplineSet
870 0 m 1
 700 0 l 9
 553 440 l 1
 229 0 l 1
 53 0 l 9
 482 539 l 1
 283 1073 l 9
 453 1073 l 0
 595 639 l 0
 920 1073 l 1
 1090 1073 l 1
 666 543 l 0
 870 0 l 1
EndSplineSet
EndChar

StartChar: y
Encoding: 121 121 45
Width: 1064
Flags: HMW
LayerCount: 2
Back
SplineSet
794.624 1073.15 m 13
 946.176 1073.15 l 5
 946.176 0 l 5
 794.624 0 l 5
 794.624 180.224 l 21
 761.856 102.4 651.264 -28.6719 522.24 -28.6719 c 4
 319.685 -28.6719 118.771 170.912 118.786 413.696 c 5
 118.784 1073.15 l 5
 270.336 1073.15 l 4
 270.336 411.648 l 6
 270.336 222.562 402.276 108.544 524.288 108.544 c 4
 667.648 108.544 794.626 266.24 794.626 454.656 c 4
 794.624 1073.15 l 13
143.36 1474.56 m 25
 143.36 -53.248 l 25
430.08 1466.37 m 25
 430.08 -61.4404 l 25
286.72 -69.6318 m 25
 286.72 1458.18 l 25
 286.72 -69.6318 l 25
573.44 1470.46 m 25
 573.44 -57.3438 l 25
716.8 1466.37 m 25
 716.8 -61.4404 l 25
860.16 -49.1523 m 25
 860.16 1478.66 l 25
 860.16 -49.1523 l 25
EndSplineSet
Fore
SplineSet
943 -18 m 2
 885 -291 628 -449 425 -449 c 1
 245 -449 152 -356 99 -275 c 0
 223 -190 l 0
 262 -252 326 -313 453 -313 c 0
 578 -313 747 -225 788 -33 c 0
 803 38 818 110 833 181 c 17
 774 69 642 -29 484 -29 c 0
 317 -29 206 74 206 307 c 0
 206 372 215 447 233 532 c 2
 348 1073 l 1
 499 1073 l 0
 384 532 l 1
 371 469 363 409 363 355 c 0
 363 209 417 108 553 108 c 0
 739 108 860 305 908 533 c 0
 1023 1073 l 9
 1175 1073 l 1
 943 -18 l 2
EndSplineSet
EndChar

StartChar: z
Encoding: 122 122 46
Width: 962
Flags: HMW
LayerCount: 2
Back
SplineSet
143.36 1474.56 m 29
 143.36 -53.248 l 29
430.08 1466.37 m 29
 430.08 -61.4404 l 29
286.72 -69.6318 m 29
 286.72 1458.18 l 29
 286.72 -69.6318 l 29
573.44 1470.46 m 29
 573.44 -57.3438 l 29
716.8 1466.37 m 29
 716.8 -61.4404 l 29
860.16 -49.1523 m 29
 860.16 1478.66 l 29
 860.16 -49.1523 l 29
EndSplineSet
Fore
SplineSet
372 141 m 1
 907 141 l 1
 877 0 l 1
 90 0 l 1
 853 932 l 2
 329 932 l 1
 359 1073 l 1
 1135 1073 l 1
 372 141 l 1
EndSplineSet
EndChar

StartChar: Ograve
Encoding: 210 210 47
Width: 1333
Flags: HMW
LayerCount: 2
Fore
SplineSet
1056 1676 m 2
 1062 1669 1065 1661 1065 1653 c 0
 1065 1649 1065 1644 1064 1639 c 0
 1061 1626 1054 1615 1044 1604 c 1
 1034 1594 1022 1587 1008 1584 c 0
 1003 1583 997 1582 993 1582 c 0
 984 1582 976 1585 969 1591 c 2
 711 1810 l 1
 700 1822 693 1836 692 1851 c 0
 692 1856 692 1861 693 1868 c 0
 697 1885 706 1901 720 1914 c 1
 733 1928 748 1938 766 1942 c 0
 772 1944 778 1944 784 1944 c 0
 801 1944 815 1939 828 1926 c 1
 1056 1676 l 2
1250 725 m 0
 1265 797 1275 876 1275 952 c 0
 1274 1161 1201 1354 964 1354 c 0
 642 1354 469 995 412 725 c 1
 397 655 389 580 388 507 c 0
 388 300 464 113 700 113 c 1
 1021 113 1193 457 1250 725 c 0
246 725 m 1
 314 1047 566 1495 994 1495 c 1
 1329 1495 1440 1222 1440 950 c 0
 1440 873 1431 796 1416 725 c 1
 1348 406 1098 -29 670 -29 c 0
 335 -29 223 239 223 511 c 0
 223 584 232 657 246 725 c 1
EndSplineSet
EndChar

StartChar: Oacute
Encoding: 211 211 48
Width: 1333
Flags: HMW
LayerCount: 2
Fore
SplineSet
948 1676 m 2
 1282 1926 l 1
 1301 1939 1317 1944 1334 1944 c 0
 1340 1944 1346 1944 1352 1942 c 0
 1368 1938 1379 1928 1386 1914 c 1
 1394 1901 1397 1885 1393 1868 c 0
 1392 1861 1388 1856 1386 1851 c 0
 1379 1836 1368 1822 1351 1810 c 1
 999 1591 l 2
 990 1585 980 1582 971 1582 c 0
 967 1582 963 1583 958 1584 c 0
 946 1587 936 1594 930 1604 c 1
 924 1615 921 1626 924 1639 c 0
 925 1644 927 1649 929 1653 c 0
 933 1661 940 1669 948 1676 c 2
1250 725 m 0
 1265 797 1275 876 1275 952 c 0
 1274 1161 1201 1354 964 1354 c 0
 642 1354 469 995 412 725 c 1
 397 655 389 580 388 507 c 0
 388 300 464 113 700 113 c 1
 1021 113 1193 457 1250 725 c 0
246 725 m 1
 314 1047 566 1495 994 1495 c 1
 1329 1495 1440 1222 1440 950 c 0
 1440 873 1431 796 1416 725 c 1
 1348 406 1098 -29 670 -29 c 0
 335 -29 223 239 223 511 c 0
 223 584 232 657 246 725 c 1
EndSplineSet
EndChar

StartChar: Ocircumflex
Encoding: 212 212 49
Width: 1329
Flags: HMW
LayerCount: 2
Fore
SplineSet
1260 725 m 0
 1275 797 1285 876 1285 952 c 0
 1284 1161 1211 1354 974 1354 c 0
 652 1354 479 995 422 725 c 1
 407 655 399 580 398 507 c 0
 398 300 474 113 710 113 c 1
 1031 113 1203 457 1260 725 c 0
256 725 m 1
 324 1047 576 1495 1004 1495 c 1
 1339 1495 1450 1222 1450 950 c 0
 1450 873 1441 796 1426 725 c 1
 1358 406 1108 -29 680 -29 c 0
 345 -29 233 239 233 511 c 0
 233 584 242 657 256 725 c 1
1362 1563 m 1
 1174 1563 l 1
 1064 1776 l 1
 861 1565 l 0
 675 1565 l 1
 1024 1907 l 1
 1155 1907 l 1
 1362 1563 l 1
EndSplineSet
EndChar

StartChar: Otilde
Encoding: 213 213 50
Width: 1329
Flags: HMW
LayerCount: 2
Fore
SplineSet
1260 725 m 0
 1275 797 1285 876 1285 952 c 0
 1284 1161 1211 1354 974 1354 c 0
 652 1354 479 995 422 725 c 1
 407 655 399 580 398 507 c 0
 398 300 474 113 710 113 c 1
 1031 113 1203 457 1260 725 c 0
256 725 m 1
 324 1047 576 1495 1004 1495 c 1
 1339 1495 1450 1222 1450 950 c 0
 1450 873 1441 796 1426 725 c 1
 1358 406 1108 -29 680 -29 c 0
 345 -29 233 239 233 511 c 0
 233 584 242 657 256 725 c 1
746 1770 m 17
 800 1807 872 1866 950 1866 c 0
 1048 1866 1080 1715 1184 1715 c 1
 1254 1715 1321 1768 1392 1813 c 9
 1362 1668 l 17
 1291 1620 1227 1569 1153 1569 c 0
 1038 1569 999 1721 917 1721 c 0
 839 1721 781 1670 715 1624 c 9
 746 1770 l 17
EndSplineSet
EndChar

StartChar: Odieresis
Encoding: 214 214 51
Width: 1329
Flags: HMW
LayerCount: 2
Fore
SplineSet
1260 725 m 0
 1275 797 1285 876 1285 952 c 0
 1284 1161 1211 1354 974 1354 c 0
 652 1354 479 995 422 725 c 1
 407 655 399 580 398 507 c 0
 398 300 474 113 710 113 c 1
 1031 113 1203 457 1260 725 c 0
256 725 m 1
 324 1047 576 1495 1004 1495 c 1
 1339 1495 1450 1222 1450 950 c 0
 1450 873 1441 796 1426 725 c 1
 1358 406 1108 -29 680 -29 c 0
 345 -29 233 239 233 511 c 0
 233 584 242 657 256 725 c 1
699 1687 m 0
 704 1712 718 1734 741 1753 c 0
 764 1772 788 1781 813 1781 c 0
 835 1781 853 1774 867 1760 c 0
 881 1746 888 1727 889 1706 c 0
 889 1701 889 1695 887 1687 c 0
 881 1661 867 1639 844 1620 c 0
 821 1601 797 1592 772 1592 c 0
 750 1592 732 1600 718 1614 c 0
 704 1628 697 1647 697 1670 c 0
 697 1674 697 1679 699 1687 c 0
1170 1689 m 0
 1175 1714 1189 1736 1212 1755 c 0
 1235 1774 1259 1783 1284 1783 c 0
 1306 1783 1325 1776 1339 1762 c 0
 1353 1748 1359 1729 1360 1708 c 0
 1360 1703 1360 1697 1358 1689 c 0
 1352 1663 1339 1641 1316 1622 c 0
 1293 1603 1269 1594 1244 1594 c 0
 1222 1594 1203 1602 1189 1616 c 0
 1175 1630 1168 1648 1168 1670 c 0
 1169 1678 1169 1684 1170 1689 c 0
EndSplineSet
EndChar

StartChar: multiply
Encoding: 215 215 52
Width: 833
Flags: HMW
LayerCount: 2
Fore
SplineSet
206 430 m 1
 468 649 l 1
 293 867 l 1
 413 968 l 1
 589 750 l 1
 851 969 l 1
 931 870 l 1
 669 650 l 1
 844 432 l 1
 724 331 l 1
 548 550 l 1
 287 331 l 1
 206 430 l 1
EndSplineSet
EndChar

StartChar: Oslash
Encoding: 216 216 53
Width: 1285
Flags: HMW
LayerCount: 2
Fore
SplineSet
409 41 m 1
 363 -29 l 1
 211 -29 l 1
 319 134 l 1
 252 233 226 366 226 500 c 0
 226 574 234 649 249 718 c 1
 316 1034 558 1477 969 1477 c 1
 1053 1477 1122 1459 1177 1427 c 1
 1223 1496 l 0
 1375 1496 l 1
 1274 1345 l 1
 1357 1243 1390 1097 1390 949 c 0
 1390 947 1390 945 1390 943 c 0
 1390 941 1390 938 1390 936 c 0
 1390 861 1382 787 1367 718 c 1
 1300 402 1059 -29 649 -29 c 1
 549 -29 470 -3 409 41 c 1
494 170 m 1
 540 133 601 111 679 111 c 1
 987 111 1159 452 1216 718 c 0
 1231 790 1241 868 1241 945 c 0
 1241 1042 1225 1135 1183 1207 c 1
 494 170 l 1
415 279 m 1
 1092 1300 l 1
 1051 1324 1001 1338 939 1338 c 0
 630 1338 458 984 401 718 c 1
 386 649 376 574 376 503 c 0
 376 501 376 500 376 498 c 0
 376 419 386 342 415 279 c 1
EndSplineSet
EndChar

StartChar: Ucircumflex
Encoding: 219 219 54
Width: 1298
Flags: HMW
LayerCount: 2
Fore
SplineSet
1323 1456 m 1
 1484 1456 l 1
 1312 645 l 1
 1222 223 975 -29 647 -29 c 0
 383 -29 241 132 241 415 c 0
 241 485 250 562 268 645 c 1
 440 1456 l 1
 602 1456 l 1
 430 645 l 1
 414 572 407 508 407 450 c 0
 407 217 519 113 677 113 c 0
 872 113 1072 274 1151 645 c 1
 1323 1456 l 1
1318 1567 m 1
 1130 1567 l 1
 1019 1780 l 1
 817 1569 l 0
 631 1569 l 1
 980 1911 l 1
 1111 1911 l 1
 1318 1567 l 1
EndSplineSet
EndChar

StartChar: Udieresis
Encoding: 220 220 55
Width: 1298
Flags: HMW
LayerCount: 2
Fore
SplineSet
1323 1456 m 1
 1484 1456 l 1
 1312 645 l 1
 1222 223 975 -29 647 -29 c 0
 383 -29 241 132 241 415 c 0
 241 485 250 562 268 645 c 1
 440 1456 l 1
 602 1456 l 1
 430 645 l 1
 414 572 407 508 407 450 c 0
 407 217 519 113 677 113 c 0
 872 113 1072 274 1151 645 c 1
 1323 1456 l 1
677 1687 m 0
 682 1712 696 1734 719 1753 c 0
 742 1772 766 1781 791 1781 c 0
 813 1781 831 1774 845 1760 c 0
 859 1746 866 1727 867 1706 c 0
 867 1701 867 1695 865 1687 c 0
 859 1661 845 1639 822 1620 c 0
 799 1601 775 1592 750 1592 c 0
 728 1592 710 1600 696 1614 c 0
 682 1628 675 1647 675 1670 c 0
 675 1674 675 1679 677 1687 c 0
1148 1689 m 0
 1153 1714 1167 1736 1190 1755 c 0
 1213 1774 1237 1783 1262 1783 c 0
 1284 1783 1303 1776 1317 1762 c 0
 1331 1748 1337 1729 1338 1708 c 0
 1338 1703 1338 1697 1336 1689 c 0
 1330 1663 1317 1641 1294 1622 c 0
 1271 1603 1247 1594 1222 1594 c 0
 1200 1594 1181 1602 1167 1616 c 0
 1153 1630 1146 1648 1146 1670 c 0
 1147 1678 1147 1684 1148 1689 c 0
EndSplineSet
EndChar

StartChar: Yacute
Encoding: 221 221 56
Width: 1179
Flags: HMW
LayerCount: 2
Fore
SplineSet
847 1676 m 2
 1181 1926 l 1
 1200 1939 1216 1944 1233 1944 c 0
 1239 1944 1245 1944 1251 1942 c 0
 1267 1938 1278 1928 1285 1914 c 1
 1293 1901 1296 1885 1292 1868 c 0
 1291 1861 1287 1856 1285 1851 c 0
 1278 1836 1267 1822 1250 1810 c 1
 898 1591 l 2
 889 1585 879 1582 870 1582 c 0
 866 1582 862 1583 857 1584 c 0
 845 1587 835 1594 829 1604 c 1
 823 1615 820 1626 823 1639 c 0
 824 1644 826 1649 828 1653 c 0
 832 1661 839 1669 847 1676 c 2
385 1456 m 1
 553 1456 l 1
 782 856 l 1
 1265 1456 l 1
 1433 1456 l 1
 837 748 l 1
 678 0 l 1
 520 0 l 1
 679 748 l 1
 385 1456 l 1
EndSplineSet
EndChar

StartChar: Thorn
Encoding: 222 222 57
Width: 1329
Flags: HMW
LayerCount: 2
Fore
SplineSet
404 477 m 1
 674 477 982 530 1029 750 c 1
 1032 765 1034 780 1034 794 c 0
 1034 987 723 1010 518 1010 c 1
 404 477 l 1
454 1456 m 0
 612 1456 l 1
 547 1150 l 1
 889 1150 1195 1081 1195 828 c 0
 1195 804 1192 778 1186 750 c 0
 1113 407 743 337 375 337 c 1
 303 0 l 1
 145 0 l 1
 454 1456 l 0
EndSplineSet
EndChar

StartChar: germandbls
Encoding: 223 223 58
Width: 1212
Flags: HMW
LayerCount: 2
Fore
SplineSet
419 1152 m 1
 525 1333 714 1479 969 1479 c 1
 1183 1479 1342 1368 1342 1174 c 0
 1342 1147 1337 1117 1331 1087 c 0
 1330 1083 1329 1078 1328 1074 c 1
 1287 880 1066 778 939 747 c 1
 1036 722 1205 629 1205 446 c 0
 1205 444 1205 443 1205 441 c 0
 1205 421 1202 400 1197 378 c 1
 1132 72 896 -30 605 -30 c 1
 540 -30 491 -11 430 23 c 9
 547 146 l 17
 578 133 604 110 634 110 c 1
 830 110 1003 158 1050 378 c 1
 1053 393 1055 408 1055 423 c 0
 1055 577 875 679 696 679 c 1
 681 679 671 679 660 679 c 0
 647 679 635 679 617 673 c 1
 649 825 l 1
 663 821 674 821 685 821 c 0
 697 821 710 821 727 821 c 1
 898 821 1146 918 1179 1074 c 1
 1185 1101 1187 1127 1187 1150 c 0
 1187 1282 1095 1342 940 1342 c 1
 736 1342 629 1241 551 1105 c 1
 430 885 325 310 240 0 c 1
 92 0 l 1
 201 361 297 928 419 1152 c 1
EndSplineSet
EndChar

StartChar: acircumflex
Encoding: 226 226 59
Width: 1036
Flags: HMW
LayerCount: 2
Fore
SplineSet
623 582 m 0
 472 582 348 473 321 344 c 0
 317 326 315 308 315 292 c 0
 315 182 398 106 522 106 c 0
 649 106 782 211 810 344 c 0
 814 361 815 377 815 393 c 0
 815 508 723 582 623 582 c 0
619 717 m 0
 774 717 852 610 854 559 c 1
 874 655 l 1
 882 692 886 725 886 756 c 0
 886 883 820 954 694 954 c 0
 600 954 507 922 452 877 c 1
 397 981 l 1
 479 1038 580 1090 723 1090 c 0
 902 1090 1029 982 1029 779 c 0
 1029 741 1024 700 1015 655 c 2
 989 532 l 2
 876 0 l 1
 737 0 l 1
 770 156 l 0
 771 158 l 1
 755 109 615 -29 460 -29 c 0
 277 -29 157 79 157 253 c 0
 157 282 160 312 167 344 c 0
 213 559 414 717 619 717 c 0
1077 1139 m 1
 889 1139 l 1
 778 1352 l 1
 576 1141 l 0
 390 1141 l 1
 739 1483 l 1
 870 1483 l 1
 1077 1139 l 1
EndSplineSet
EndChar

StartChar: atilde
Encoding: 227 227 60
Width: 1036
Flags: HMW
LayerCount: 2
Fore
SplineSet
623 582 m 0
 472 582 348 473 321 344 c 0
 317 326 315 308 315 292 c 0
 315 182 398 106 522 106 c 0
 649 106 782 211 810 344 c 0
 814 361 815 377 815 393 c 0
 815 508 723 582 623 582 c 0
619 717 m 0
 774 717 852 610 854 559 c 1
 874 655 l 1
 882 692 886 725 886 756 c 0
 886 883 820 954 694 954 c 0
 600 954 507 922 452 877 c 1
 397 981 l 1
 479 1038 580 1090 723 1090 c 0
 902 1090 1029 982 1029 779 c 0
 1029 741 1024 700 1015 655 c 2
 989 532 l 2
 876 0 l 1
 737 0 l 1
 770 156 l 0
 771 158 l 1
 755 109 615 -29 460 -29 c 0
 277 -29 157 79 157 253 c 0
 157 282 160 312 167 344 c 0
 213 559 414 717 619 717 c 0
471 1352 m 17
 525 1389 597 1448 675 1448 c 0
 773 1448 805 1297 909 1297 c 1
 979 1297 1047 1350 1118 1395 c 9
 1087 1250 l 17
 1016 1202 952 1151 878 1151 c 0
 763 1151 724 1303 642 1303 c 0
 564 1303 506 1252 440 1206 c 9
 471 1352 l 17
EndSplineSet
EndChar

StartChar: adieresis
Encoding: 228 228 61
Width: 1036
Flags: HMW
LayerCount: 2
Fore
SplineSet
623 582 m 0
 472 582 348 473 321 344 c 0
 317 326 315 308 315 292 c 0
 315 182 398 106 522 106 c 0
 649 106 782 211 810 344 c 0
 814 361 815 377 815 393 c 0
 815 508 723 582 623 582 c 0
619 717 m 0
 774 717 852 610 854 559 c 1
 874 655 l 1
 882 692 886 725 886 756 c 0
 886 883 820 954 694 954 c 0
 600 954 507 922 452 877 c 1
 397 981 l 1
 479 1038 580 1090 723 1090 c 0
 902 1090 1029 982 1029 779 c 0
 1029 741 1024 700 1015 655 c 2
 989 532 l 2
 876 0 l 1
 737 0 l 1
 770 156 l 0
 771 158 l 1
 755 109 615 -29 460 -29 c 0
 277 -29 157 79 157 253 c 0
 157 282 160 312 167 344 c 0
 213 559 414 717 619 717 c 0
450 1315 m 0
 455 1340 469 1362 492 1381 c 0
 515 1400 538 1409 563 1409 c 0
 585 1409 604 1402 618 1388 c 0
 632 1374 639 1355 640 1334 c 0
 640 1329 640 1323 638 1315 c 0
 632 1289 618 1267 595 1248 c 0
 572 1229 548 1220 523 1220 c 0
 501 1220 483 1228 469 1242 c 0
 455 1256 447 1275 447 1298 c 0
 447 1302 448 1307 450 1315 c 0
921 1317 m 0
 926 1342 940 1364 963 1383 c 0
 986 1402 1010 1411 1035 1411 c 0
 1057 1411 1075 1404 1089 1390 c 0
 1103 1376 1110 1357 1111 1336 c 0
 1111 1331 1111 1325 1109 1317 c 0
 1103 1291 1090 1269 1067 1250 c 0
 1044 1231 1020 1222 995 1222 c 0
 973 1222 954 1230 940 1244 c 0
 926 1258 919 1276 919 1298 c 0
 920 1306 920 1312 921 1317 c 0
EndSplineSet
EndChar

StartChar: aring
Encoding: 229 229 62
Width: 1036
Flags: HMW
LayerCount: 2
Fore
SplineSet
623 582 m 0
 472 582 348 473 321 344 c 0
 317 326 315 308 315 292 c 0
 315 182 398 106 522 106 c 0
 649 106 782 211 810 344 c 0
 814 361 815 377 815 393 c 0
 815 508 723 582 623 582 c 0
619 717 m 0
 774 717 852 610 854 559 c 1
 874 655 l 1
 882 692 886 725 886 756 c 0
 886 883 820 954 694 954 c 0
 600 954 507 922 452 877 c 1
 397 981 l 1
 479 1038 580 1090 723 1090 c 0
 902 1090 1029 982 1029 779 c 0
 1029 741 1024 700 1015 655 c 2
 989 532 l 2
 876 0 l 1
 737 0 l 1
 770 156 l 0
 771 158 l 1
 755 109 615 -29 460 -29 c 0
 277 -29 157 79 157 253 c 0
 157 282 160 312 167 344 c 0
 213 559 414 717 619 717 c 0
655 1368 m 0
 652 1356 651 1344 651 1333 c 0
 651 1266 697 1218 767 1218 c 0
 848 1218 925 1284 943 1368 c 0
 945 1379 947 1391 947 1402 c 0
 947 1469 901 1518 831 1518 c 0
 750 1518 673 1451 655 1368 c 0
536 1364 m 0
 566 1507 708 1622 853 1622 c 0
 982 1622 1066 1533 1066 1414 c 0
 1066 1398 1064 1381 1060 1364 c 0
 1029 1220 889 1105 743 1105 c 0
 614 1105 530 1194 530 1314 c 0
 530 1330 532 1347 536 1364 c 0
EndSplineSet
EndChar

StartChar: ae
Encoding: 230 230 63
Width: 1486
Flags: HMW
LayerCount: 2
Back
SplineSet
849.216 604.16 m 5
 1379.01 604.16 l 5
 1361.25 781.345 1273.92 958.464 1114.11 958.464 c 4
 954.305 958.464 866.976 781.345 849.216 604.16 c 5
849.185 468.992 m 5
 866.88 290.24 954.241 106.496 1114.11 106.496 c 4
 1208.35 106.496 1274.62 162.464 1317.73 242.655 c 4
 1450.69 187.616 l 4
 1382.37 55.4238 1268.58 -28.6719 1114.11 -28.6719 c 5
 847.872 -28.6719 702.464 221.184 702.464 536.576 c 4
 702.464 851.968 847.872 1093.63 1114.11 1093.63 c 4
 1380.35 1093.63 1525.76 851.968 1525.76 536.576 c 4
 1525.76 514.539 1524.65 491.84 1522.62 468.992 c 5
 849.185 468.992 l 5
466.944 602.112 m 4
 315.392 602.112 221.184 483.328 221.184 354.304 c 4
 221.184 225.28 315.392 106.496 466.944 106.496 c 4
 593.92 106.496 712.704 221.184 712.704 354.304 c 5
 712.704 487.424 593.92 602.112 466.944 602.112 c 4
466.944 737.28 m 4
 606.208 737.28 688.128 679.936 716.8 630.784 c 5
 715.651 675.84 l 4
 715.651 829.44 622.592 954.368 471.04 954.368 c 4
 376.832 954.368 290.816 921.6 245.76 876.544 c 13
 215.408 916.48 167.936 978.944 167.936 978.944 c 4
 237.568 1036.29 327.68 1089.54 471.04 1089.54 c 4
 669.379 1089.54 851.697 944.128 851.697 675.84 c 4
 849.92 552.96 l 4
 851.968 270.336 l 5
 851.968 196.608 880.64 114.688 966.656 114.688 c 5
 966.656 -20.4805 l 5
 843.776 -20.4805 763.904 8.19238 745.472 100.352 c 5
 716.8 53.248 630.784 -28.6719 466.944 -28.6719 c 5
 241.664 -28.6719 77.8242 139.264 77.8242 354.304 c 4
 77.8242 569.344 262.144 737.28 466.944 737.28 c 4
EndSplineSet
Fore
SplineSet
564 602 m 0
 413 602 338 483 311 354 c 0
 305 325 301 296 301 269 c 0
 300 177 342 106 459 106 c 0
 586 106 684 221 712 354 c 1
 717 379 719 402 720 425 c 0
 719 525 668 602 564 602 c 0
914 910 m 1
 1008 1024 1091 1094 1234 1094 c 0
 1434 1094 1517 957 1516 756 c 0
 1516 754 1516 751 1516 749 c 0
 1516 684 1506 612 1490 537 c 0
 1485 515 1478 492 1473 469 c 1
 883 469 l 1
 876 436 867 380 867 323 c 0
 867 218 899 106 1024 106 c 0
 1119 106 1156 162 1216 243 c 0
 1337 188 l 0
 1241 55 1150 -29 995 -29 c 0
 835 -29 801 55 754 164 c 1
 681 70 623 -29 430 -29 c 0
 243 -29 147 88 147 251 c 0
 148 284 151 318 159 354 c 0
 205 569 388 737 593 737 c 0
 721 737 749 690 776 633 c 1
 781 649 781 676 787 692 c 1
 794 724 798 755 798 783 c 0
 798 785 798 787 798 789 c 0
 799 886 755 954 643 954 c 0
 549 954 497 922 442 877 c 9
 420 916 386 979 386 979 c 0
 468 1036 529 1090 672 1090 c 0
 802 1090 870 1027 914 910 c 1
911 604 m 1
 1349 604 l 1
 1354 646 1358 688 1358 727 c 0
 1358 729 1358 730 1358 732 c 0
 1359 858 1326 958 1205 958 c 0
 1042 958 946 756 911 604 c 1
EndSplineSet
EndChar

StartChar: egrave
Encoding: 232 232 64
Width: 996
Flags: HMW
LayerCount: 2
Fore
SplineSet
868 1329 m 2
 874 1322 878 1314 878 1306 c 0
 878 1302 878 1297 877 1292 c 0
 874 1279 866 1268 856 1257 c 1
 846 1247 834 1240 820 1237 c 0
 815 1236 810 1235 806 1235 c 0
 797 1235 788 1238 781 1244 c 2
 523 1463 l 1
 512 1475 506 1489 505 1504 c 0
 505 1509 504 1514 505 1521 c 0
 509 1538 518 1554 532 1567 c 1
 545 1581 560 1591 578 1595 c 0
 584 1597 590 1597 596 1597 c 0
 613 1597 628 1592 641 1579 c 1
 868 1329 l 2
385 604 m 1
 907 604 l 1
 911 633 914 662 914 690 c 0
 914 835 854 958 722 958 c 0
 562 958 432 774 385 604 c 1
357 469 m 1
 353 440 351 410 351 382 c 0
 351 233 407 106 541 106 c 0
 635 106 755 162 815 243 c 0
 936 188 l 0
 839 55 667 -29 512 -29 c 0
 299 -29 192 132 192 357 c 0
 192 413 199 474 212 537 c 0
 279 852 485 1094 751 1094 c 0
 967 1094 1061 923 1061 719 c 0
 1061 669 1055 617 1044 565 c 0
 1039 543 1030 492 1025 469 c 1
 357 469 l 1
EndSplineSet
EndChar

StartChar: eacute
Encoding: 233 233 65
Width: 1046
Flags: HMW
LayerCount: 2
Fore
SplineSet
713 1329 m 2
 1048 1579 l 1
 1067 1592 1082 1597 1099 1597 c 0
 1105 1597 1111 1597 1117 1595 c 0
 1133 1591 1144 1581 1151 1567 c 1
 1157 1558 1160 1547 1160 1536 c 0
 1160 1531 1159 1526 1158 1521 c 0
 1157 1514 1154 1509 1152 1504 c 0
 1145 1489 1133 1475 1116 1463 c 1
 764 1244 l 2
 755 1238 746 1235 737 1235 c 0
 733 1235 728 1236 723 1237 c 0
 711 1240 701 1247 695 1257 c 1
 689 1268 687 1279 690 1292 c 0
 691 1297 693 1302 695 1306 c 0
 699 1314 705 1322 713 1329 c 2
395 604 m 1
 917 604 l 1
 921 633 924 662 924 690 c 0
 924 835 864 958 732 958 c 0
 572 958 442 774 395 604 c 1
367 469 m 1
 363 440 361 410 361 382 c 0
 361 233 417 106 551 106 c 0
 645 106 765 162 825 243 c 0
 946 188 l 0
 849 55 677 -29 522 -29 c 0
 309 -29 202 132 202 357 c 0
 202 413 209 474 222 537 c 0
 289 852 495 1094 761 1094 c 0
 977 1094 1071 923 1071 719 c 0
 1071 669 1065 617 1054 565 c 0
 1049 543 1040 492 1035 469 c 1
 367 469 l 1
EndSplineSet
EndChar

StartChar: ecircumflex
Encoding: 234 234 66
Width: 1046
Flags: HMW
LayerCount: 2
Fore
SplineSet
395 604 m 1
 917 604 l 1
 921 633 924 662 924 690 c 0
 924 835 864 958 732 958 c 0
 572 958 442 774 395 604 c 1
367 469 m 1
 363 440 361 410 361 382 c 0
 361 233 417 106 551 106 c 0
 645 106 765 162 825 243 c 0
 946 188 l 0
 849 55 677 -29 522 -29 c 0
 309 -29 202 132 202 357 c 0
 202 413 209 474 222 537 c 0
 289 852 495 1094 761 1094 c 0
 977 1094 1071 923 1071 719 c 0
 1071 669 1065 617 1054 565 c 0
 1049 543 1040 492 1035 469 c 1
 367 469 l 1
1119 1153 m 1
 931 1153 l 1
 820 1366 l 1
 618 1155 l 0
 432 1155 l 1
 781 1497 l 1
 912 1497 l 1
 1119 1153 l 1
EndSplineSet
EndChar

StartChar: edieresis
Encoding: 235 235 67
Width: 1046
Flags: HMW
LayerCount: 2
Fore
SplineSet
395 604 m 1
 917 604 l 1
 921 633 924 662 924 690 c 0
 924 835 864 958 732 958 c 0
 572 958 442 774 395 604 c 1
367 469 m 1
 363 440 361 410 361 382 c 0
 361 233 417 106 551 106 c 0
 645 106 765 162 825 243 c 0
 946 188 l 0
 849 55 677 -29 522 -29 c 0
 309 -29 202 132 202 357 c 0
 202 413 209 474 222 537 c 0
 289 852 495 1094 761 1094 c 0
 977 1094 1071 923 1071 719 c 0
 1071 669 1065 617 1054 565 c 0
 1049 543 1040 492 1035 469 c 1
 367 469 l 1
483 1317 m 0
 488 1342 502 1364 525 1383 c 0
 548 1402 572 1411 597 1411 c 0
 619 1411 637 1404 651 1390 c 0
 665 1376 672 1357 673 1336 c 0
 673 1331 673 1325 671 1317 c 0
 665 1291 652 1269 629 1250 c 0
 606 1231 582 1222 557 1222 c 0
 535 1222 516 1230 502 1244 c 0
 488 1258 481 1277 481 1300 c 0
 481 1304 481 1309 483 1317 c 0
954 1319 m 0
 959 1344 973 1366 996 1385 c 0
 1019 1404 1043 1413 1068 1413 c 0
 1090 1413 1109 1406 1123 1392 c 0
 1137 1378 1143 1359 1144 1338 c 0
 1144 1333 1144 1327 1142 1319 c 0
 1136 1293 1123 1271 1100 1252 c 0
 1077 1233 1053 1224 1028 1224 c 0
 1006 1224 988 1232 974 1246 c 0
 960 1260 952 1278 952 1300 c 0
 953 1308 953 1314 954 1319 c 0
EndSplineSet
EndChar

StartChar: igrave
Encoding: 236 236 68
Width: 430
Flags: HMW
LayerCount: 2
Fore
SplineSet
569 1329 m 2
 575 1321 579 1313 579 1303 c 0
 579 1300 579 1296 578 1292 c 0
 575 1279 567 1268 557 1257 c 1
 547 1247 535 1240 521 1237 c 0
 516 1236 511 1235 507 1235 c 0
 498 1235 489 1238 482 1244 c 2
 224 1463 l 1
 213 1475 207 1489 206 1504 c 0
 206 1509 205 1514 206 1521 c 0
 210 1538 219 1554 233 1567 c 1
 246 1581 261 1591 279 1595 c 0
 285 1597 291 1597 297 1597 c 0
 314 1597 329 1592 342 1579 c 1
 569 1329 l 2
378 1073 m 1
 529 1073 l 1
 301 0 l 1
 150 0 l 1
 378 1073 l 1
EndSplineSet
EndChar

StartChar: iacute
Encoding: 237 237 69
Width: 421
Flags: HMW
LayerCount: 2
Fore
SplineSet
449 1329 m 2
 784 1579 l 1
 803 1592 818 1597 835 1597 c 0
 841 1597 847 1597 853 1595 c 0
 869 1591 880 1581 887 1567 c 1
 893 1558 896 1547 896 1536 c 0
 896 1531 895 1526 894 1521 c 0
 893 1514 890 1509 888 1504 c 0
 881 1489 869 1475 852 1463 c 1
 500 1244 l 2
 491 1238 482 1235 473 1235 c 0
 469 1235 464 1236 459 1237 c 0
 447 1240 437 1247 431 1257 c 1
 425 1268 423 1279 426 1292 c 0
 427 1297 429 1302 431 1306 c 0
 435 1314 441 1322 449 1329 c 2
378 1073 m 1
 529 1073 l 1
 301 0 l 1
 150 0 l 1
 378 1073 l 1
EndSplineSet
EndChar

StartChar: icircumflex
Encoding: 238 238 70
Width: 888
Flags: HMW
LayerCount: 2
Fore
SplineSet
1041 1118 m 1
 853 1118 l 1
 742 1331 l 1
 539 1120 l 0
 353 1120 l 1
 703 1462 l 1
 834 1462 l 1
 1041 1118 l 1
619 1073 m 1
 771 1073 l 1
 543 0 l 1
 391 0 l 1
 619 1073 l 1
EndSplineSet
EndChar

StartChar: idieresis
Encoding: 239 239 71
Width: 667
Flags: HMW
LayerCount: 2
Fore
SplineSet
280 1282 m 0
 285 1307 300 1329 323 1348 c 0
 346 1367 369 1376 394 1376 c 0
 416 1376 435 1369 449 1355 c 0
 463 1341 470 1322 471 1301 c 0
 471 1296 470 1290 468 1282 c 0
 462 1256 449 1234 426 1215 c 0
 403 1196 379 1187 354 1187 c 0
 332 1187 314 1195 300 1209 c 0
 286 1223 278 1241 278 1263 c 0
 278 1267 278 1273 280 1282 c 0
752 1284 m 0
 757 1309 771 1331 794 1350 c 0
 817 1369 841 1378 866 1378 c 0
 888 1378 906 1371 920 1357 c 0
 934 1343 941 1324 942 1303 c 0
 942 1298 942 1292 940 1284 c 0
 934 1258 921 1236 898 1217 c 0
 875 1198 851 1189 826 1189 c 0
 804 1189 785 1197 771 1211 c 0
 757 1225 750 1243 750 1265 c 0
 751 1273 751 1279 752 1284 c 0
500 1073 m 1
 652 1073 l 1
 424 0 l 1
 272 0 l 1
 500 1073 l 1
EndSplineSet
EndChar

StartChar: eth
Encoding: 240 240 72
Width: 1030
Flags: HMW
LayerCount: 2
Fore
SplineSet
330 455 m 0
 323 420 319 389 319 359 c 0
 319 191 429 106 515 106 c 0
 668 106 836 279 873 455 c 1
 877 476 880 497 880 516 c 0
 880 518 880 519 880 521 c 0
 881 679 754 791 621 791 c 1
 498 791 362 604 330 455 c 0
958 1290 m 1
 1015 1204 1091 1033 1091 870 c 0
 1091 846 1089 823 1085 801 c 1
 1072 711 1065 643 1043 540 c 0
 1040 528 1038 515 1035 502 c 1
 969 193 731 -29 496 -29 c 0
 254 -29 162 117 162 306 c 0
 162 354 169 407 180 459 c 0
 235 717 445 926 660 926 c 0
 830 926 863 846 925 778 c 1
 929 798 932 822 932 847 c 0
 932 969 890 1135 827 1204 c 1
 644 1061 l 1
 566 1161 l 1
 729 1290 l 1
 679 1309 628 1315 575 1315 c 0
 536 1315 496 1311 458 1307 c 1
 475 1454 l 1
 502 1456 530 1456 557 1456 c 0
 669 1456 777 1440 870 1386 c 1
 1055 1526 l 1
 1128 1417 l 1
 958 1290 l 1
EndSplineSet
EndChar

StartChar: ograve
Encoding: 242 242 73
Width: 996
Flags: HMW
LayerCount: 2
Fore
SplineSet
828 1328 m 2
 834 1321 837 1313 837 1305 c 0
 837 1301 837 1296 836 1291 c 0
 833 1278 826 1267 816 1256 c 1
 806 1246 794 1239 780 1236 c 0
 775 1235 769 1234 765 1234 c 0
 756 1234 748 1237 741 1243 c 2
 483 1462 l 1
 472 1474 465 1488 464 1503 c 0
 464 1508 464 1513 465 1520 c 0
 469 1537 478 1553 492 1566 c 1
 505 1580 520 1590 538 1594 c 0
 544 1596 550 1596 556 1596 c 0
 573 1596 587 1591 600 1578 c 1
 828 1328 l 2
216 537 m 0
 283 852 485 1094 772 1094 c 0
 1001 1094 1109 936 1109 713 c 0
 1109 658 1102 599 1089 537 c 0
 1022 221 822 -29 533 -29 c 0
 304 -29 196 132 196 357 c 0
 196 414 203 474 216 537 c 0
370 537 m 0
 357 478 351 421 351 369 c 0
 351 216 411 106 562 106 c 0
 763 106 885 304 935 537 c 0
 947 595 954 650 954 700 c 0
 954 851 894 958 743 958 c 0
 540 958 419 768 370 537 c 0
EndSplineSet
EndChar

StartChar: oacute
Encoding: 243 243 74
Width: 996
Flags: HMW
LayerCount: 2
Fore
SplineSet
776 1329 m 2
 1111 1579 l 1
 1130 1592 1145 1597 1162 1597 c 0
 1168 1597 1174 1597 1180 1595 c 0
 1196 1591 1207 1581 1214 1567 c 1
 1220 1558 1223 1547 1223 1536 c 0
 1223 1531 1222 1526 1221 1521 c 0
 1220 1514 1217 1509 1215 1504 c 0
 1208 1489 1196 1475 1179 1463 c 1
 827 1244 l 2
 818 1238 809 1235 800 1235 c 0
 796 1235 791 1236 786 1237 c 0
 774 1240 764 1247 758 1257 c 1
 752 1268 750 1279 753 1292 c 0
 754 1297 756 1302 758 1306 c 0
 762 1314 768 1322 776 1329 c 2
216 537 m 0
 283 852 485 1094 772 1094 c 0
 1001 1094 1109 936 1109 713 c 0
 1109 658 1102 599 1089 537 c 0
 1022 221 822 -29 533 -29 c 0
 304 -29 196 132 196 357 c 0
 196 414 203 474 216 537 c 0
370 537 m 0
 357 478 351 421 351 369 c 0
 351 216 411 106 562 106 c 0
 763 106 885 304 935 537 c 0
 947 595 954 650 954 700 c 0
 954 851 894 958 743 958 c 0
 540 958 419 768 370 537 c 0
EndSplineSet
EndChar

StartChar: ocircumflex
Encoding: 244 244 75
Width: 1062
Flags: HMW
LayerCount: 2
Fore
SplineSet
226 537 m 0
 293 852 495 1094 782 1094 c 0
 1011 1094 1119 936 1119 713 c 0
 1119 658 1112 599 1099 537 c 0
 1032 221 832 -29 543 -29 c 0
 314 -29 206 132 206 357 c 0
 206 414 213 474 226 537 c 0
380 537 m 0
 367 478 361 421 361 369 c 0
 361 216 421 106 572 106 c 0
 773 106 895 304 945 537 c 0
 957 595 964 650 964 700 c 0
 964 851 904 958 753 958 c 0
 550 958 429 768 380 537 c 0
1110 1122 m 1
 922 1122 l 1
 812 1335 l 1
 609 1124 l 0
 423 1124 l 1
 773 1466 l 1
 904 1466 l 1
 1110 1122 l 1
EndSplineSet
EndChar

StartChar: otilde
Encoding: 245 245 76
Width: 1062
Flags: HMW
LayerCount: 2
Fore
SplineSet
226 537 m 0
 293 852 495 1094 782 1094 c 0
 1011 1094 1119 936 1119 713 c 0
 1119 658 1112 599 1099 537 c 0
 1032 221 832 -29 543 -29 c 0
 314 -29 206 132 206 357 c 0
 206 414 213 474 226 537 c 0
380 537 m 0
 367 478 361 421 361 369 c 0
 361 216 421 106 572 106 c 0
 773 106 895 304 945 537 c 0
 957 595 964 650 964 700 c 0
 964 851 904 958 753 958 c 0
 550 958 429 768 380 537 c 0
508 1323 m 17
 562 1360 634 1419 712 1419 c 0
 810 1419 842 1268 946 1268 c 1
 1016 1268 1083 1321 1154 1366 c 9
 1124 1221 l 17
 1053 1173 988 1122 914 1122 c 0
 799 1122 761 1274 679 1274 c 0
 601 1274 543 1223 477 1177 c 9
 508 1323 l 17
EndSplineSet
EndChar

StartChar: odieresis
Encoding: 246 246 77
Width: 1060
Flags: HMW
LayerCount: 2
Fore
SplineSet
226 537 m 0
 293 852 495 1094 782 1094 c 0
 1011 1094 1119 936 1119 713 c 0
 1119 658 1112 599 1099 537 c 0
 1032 221 832 -29 543 -29 c 0
 314 -29 206 132 206 357 c 0
 206 414 213 474 226 537 c 0
380 537 m 0
 367 478 361 421 361 369 c 0
 361 216 421 106 572 106 c 0
 773 106 895 304 945 537 c 0
 957 595 964 650 964 700 c 0
 964 851 904 958 753 958 c 0
 550 958 429 768 380 537 c 0
496 1311 m 0
 501 1336 515 1358 538 1377 c 0
 561 1396 585 1405 610 1405 c 0
 632 1405 650 1398 664 1384 c 0
 678 1370 685 1351 686 1330 c 0
 686 1325 686 1319 684 1311 c 0
 678 1285 664 1263 641 1244 c 0
 618 1225 594 1216 569 1216 c 0
 547 1216 529 1224 515 1238 c 0
 501 1252 494 1271 494 1294 c 0
 494 1298 494 1303 496 1311 c 0
967 1313 m 0
 972 1338 986 1360 1009 1379 c 0
 1032 1398 1056 1407 1081 1407 c 0
 1103 1407 1122 1400 1136 1386 c 0
 1150 1372 1156 1353 1157 1332 c 0
 1157 1327 1157 1321 1155 1313 c 0
 1149 1287 1136 1265 1113 1246 c 0
 1090 1227 1066 1218 1041 1218 c 0
 1019 1218 1001 1226 987 1240 c 0
 973 1254 965 1272 965 1294 c 0
 966 1302 966 1308 967 1313 c 0
EndSplineSet
EndChar

StartChar: divide
Encoding: 247 247 78
Width: 911
Flags: HMW
LayerCount: 2
Fore
SplineSet
403 278 m 0
 416 338 475 386 534 386 c 0
 586 386 621 349 621 301 c 0
 621 293 620 286 618 278 c 0
 605 219 547 171 488 171 c 0
 436 171 401 207 401 256 c 0
 400 263 402 271 403 278 c 0
558 1007 m 0
 571 1067 630 1115 689 1115 c 0
 741 1115 776 1078 776 1030 c 0
 776 1022 775 1015 773 1007 c 0
 760 948 702 900 643 900 c 0
 591 900 556 936 556 985 c 0
 555 992 557 1000 558 1007 c 0
269 705 m 1
 946 705 l 1
 916 563 l 1
 239 563 l 1
 269 705 l 1
EndSplineSet
EndChar

StartChar: oslash
Encoding: 248 248 79
Width: 1024
Flags: HMW
LayerCount: 2
Back
SplineSet
96.2559 536.576 m 4
 96.2559 851.968 241.664 1093.63 507.904 1093.63 c 4
 774.144 1093.63 919.552 851.968 919.552 536.576 c 4
 919.552 221.184 774.144 -28.6719 507.904 -28.6719 c 5
 241.664 -28.6719 96.2559 221.184 96.2559 536.576 c 4
239.616 536.576 m 4
 239.616 339.968 327.68 106.496 507.904 106.496 c 4
 700.416 106.496 776.192 339.968 776.192 536.576 c 4
 776.192 733.184 688.128 958.464 507.904 958.464 c 4
 327.68 958.464 239.616 733.184 239.616 536.576 c 4
EndSplineSet
Fore
SplineSet
907 771 m 1
 406 174 l 1
 437 132 481 106 541 106 c 0
 734 106 854 340 896 537 c 0
 907 587 914 638 914 687 c 0
 914 717 913 745 907 771 c 1
856 895 m 1
 824 934 781 958 722 958 c 0
 542 958 410 733 368 537 c 0
 357 485 350 431 350 379 c 0
 350 351 352 324 357 299 c 1
 856 895 l 1
80 -29 m 1
 234 153 l 1
 210 211 197 282 197 361 c 0
 198 416 203 475 216 537 c 0
 283 852 485 1094 751 1094 c 0
 840 1094 910 1067 961 1019 c 1
 1026 1098 l 1
 1181 1098 l 1
 1030 917 l 1
 1054 861 1067 793 1067 717 c 0
 1067 715 1067 712 1067 710 c 0
 1067 708 1067 706 1067 704 c 0
 1067 652 1060 596 1048 537 c 0
 981 221 778 -29 512 -29 c 1
 423 -29 353 0 301 49 c 1
 237 -29 l 1
 80 -29 l 1
EndSplineSet
EndChar

StartChar: ucircumflex
Encoding: 251 251 80
Width: 1064
Flags: HMW
LayerCount: 2
Fore
SplineSet
1033 1073 m 9
 1185 1073 l 1
 957 0 l 1
 805 0 l 1
 843 181 l 17
 784 69 652 -29 494 -29 c 0
 327 -29 216 74 216 307 c 0
 216 372 225 447 243 532 c 2
 358 1073 l 1
 509 1073 l 0
 394 532 l 1
 381 469 373 409 373 355 c 0
 373 209 427 108 563 108 c 0
 749 108 870 305 918 533 c 0
 1033 1073 l 9
1124 1196 m 1
 936 1196 l 1
 825 1409 l 1
 623 1198 l 0
 437 1198 l 1
 786 1540 l 1
 917 1540 l 1
 1124 1196 l 1
EndSplineSet
EndChar

StartChar: udieresis
Encoding: 252 252 81
Width: 1064
Flags: HMW
LayerCount: 2
Fore
SplineSet
1033 1073 m 9
 1185 1073 l 1
 957 0 l 1
 805 0 l 1
 843 181 l 17
 784 69 652 -29 494 -29 c 0
 327 -29 216 74 216 307 c 0
 216 372 225 447 243 532 c 2
 358 1073 l 1
 509 1073 l 0
 394 532 l 1
 381 469 373 409 373 355 c 0
 373 209 427 108 563 108 c 0
 749 108 870 305 918 533 c 0
 1033 1073 l 9
483 1319 m 0
 488 1344 502 1366 525 1385 c 0
 548 1404 572 1413 597 1413 c 0
 619 1413 638 1406 652 1392 c 0
 666 1378 672 1359 673 1338 c 0
 673 1333 673 1327 671 1319 c 0
 665 1293 652 1271 629 1252 c 0
 606 1233 582 1224 557 1224 c 0
 535 1224 517 1232 503 1246 c 0
 489 1260 481 1279 481 1302 c 0
 481 1306 481 1311 483 1319 c 0
955 1321 m 0
 960 1346 974 1368 997 1387 c 0
 1020 1406 1044 1415 1069 1415 c 0
 1091 1415 1109 1408 1123 1394 c 0
 1137 1380 1144 1361 1145 1340 c 0
 1145 1335 1145 1329 1143 1321 c 0
 1137 1295 1124 1273 1101 1254 c 0
 1078 1235 1054 1226 1029 1226 c 0
 1007 1226 988 1234 974 1248 c 0
 960 1262 953 1280 953 1302 c 0
 954 1310 954 1316 955 1321 c 0
EndSplineSet
EndChar

StartChar: yacute
Encoding: 253 253 82
Width: 996
Flags: HMW
LayerCount: 2
Fore
SplineSet
706 1329 m 2
 1041 1579 l 1
 1060 1592 1075 1597 1092 1597 c 0
 1098 1597 1104 1597 1110 1595 c 0
 1126 1591 1137 1581 1144 1567 c 1
 1152 1554 1155 1538 1151 1521 c 0
 1150 1514 1147 1509 1145 1504 c 0
 1138 1489 1126 1475 1109 1463 c 1
 757 1244 l 2
 748 1238 739 1235 730 1235 c 0
 726 1235 721 1236 716 1237 c 0
 704 1240 694 1247 688 1257 c 1
 682 1268 680 1279 683 1292 c 0
 684 1297 686 1302 688 1306 c 0
 692 1314 698 1322 706 1329 c 2
943 -18 m 2
 885 -291 628 -449 425 -449 c 1
 245 -449 152 -356 99 -275 c 0
 223 -190 l 0
 262 -252 326 -313 453 -313 c 0
 578 -313 747 -225 788 -33 c 0
 803 38 818 110 833 181 c 17
 774 69 642 -29 484 -29 c 0
 317 -29 206 74 206 307 c 0
 206 372 215 447 233 532 c 2
 348 1073 l 1
 499 1073 l 0
 384 532 l 1
 371 469 363 409 363 355 c 0
 363 209 417 108 553 108 c 0
 739 108 860 305 908 533 c 0
 1023 1073 l 9
 1175 1073 l 1
 943 -18 l 2
EndSplineSet
EndChar

StartChar: thorn
Encoding: 254 254 83
Width: 1003
Flags: HMW
LayerCount: 2
Fore
SplineSet
281 0 m 17
 129 0 l 1
 438 1454 l 1
 590 1454 l 1
 517 1112 l 17
 602 1206 689 1284 834 1284 c 0
 1028 1284 1111 1125 1111 922 c 0
 1111 862 1104 798 1090 733 c 0
 1030 451 881 164 557 164 c 1
 393 164 347 311 347 311 c 0
 347 311 307 121 281 0 c 17
937 729 m 0
 950 792 957 851 957 904 c 0
 957 1049 908 1149 815 1149 c 1
 676 1149 486 987 431 729 c 1
 419 674 414 626 414 582 c 0
 414 580 414 578 414 576 c 0
 413 389 506 299 596 299 c 0
 746 299 879 455 937 729 c 0
EndSplineSet
EndChar

StartChar: ydieresis
Encoding: 255 255 84
Width: 1064
Flags: HMW
LayerCount: 2
Fore
SplineSet
953 -18 m 2
 895 -291 638 -449 435 -449 c 1
 255 -449 162 -356 109 -275 c 0
 233 -190 l 0
 272 -252 336 -313 463 -313 c 0
 588 -313 757 -225 798 -33 c 0
 813 38 828 110 843 181 c 17
 784 69 652 -29 494 -29 c 0
 327 -29 216 74 216 307 c 0
 216 372 225 447 243 532 c 2
 358 1073 l 1
 509 1073 l 0
 394 532 l 1
 381 469 373 409 373 355 c 0
 373 209 427 108 563 108 c 0
 749 108 870 305 918 533 c 0
 1033 1073 l 9
 1185 1073 l 1
 953 -18 l 2
501 1308 m 0
 506 1333 520 1355 543 1374 c 0
 566 1393 590 1402 615 1402 c 0
 637 1402 656 1395 670 1381 c 0
 684 1367 690 1348 691 1327 c 0
 691 1322 691 1316 689 1308 c 0
 683 1282 670 1260 647 1241 c 0
 624 1222 600 1213 575 1213 c 0
 553 1213 535 1221 521 1235 c 0
 507 1249 499 1268 499 1291 c 0
 499 1295 499 1300 501 1308 c 0
972 1310 m 0
 977 1335 991 1357 1014 1376 c 0
 1037 1395 1061 1404 1086 1404 c 0
 1108 1404 1127 1397 1141 1383 c 0
 1155 1369 1161 1350 1162 1329 c 0
 1162 1324 1162 1318 1160 1310 c 0
 1154 1284 1141 1262 1118 1243 c 0
 1095 1224 1071 1215 1046 1215 c 0
 1024 1215 1006 1223 992 1237 c 0
 978 1251 970 1269 970 1291 c 0
 971 1299 971 1305 972 1310 c 0
EndSplineSet
EndChar

StartChar: quotedblbase
Encoding: 8222 8222 85
Width: 688
Flags: HMW
LayerCount: 2
Fore
SplineSet
352 111 m 1
 319 -46 191 -169 162 -204 c 1
 112 -173 l 1
 139 -143 207 -67 222 5 c 0
 170 5 135 40 135 89 c 0
 134 96 136 104 137 111 c 0
 150 171 209 219 268 219 c 0
 320 219 354 182 354 134 c 0
 354 126 354 119 352 111 c 1
679 109 m 1
 646 -48 518 -171 489 -206 c 1
 440 -175 l 1
 467 -145 535 -69 550 3 c 0
 498 3 462 38 462 87 c 0
 461 94 463 102 464 109 c 0
 477 169 536 217 595 217 c 0
 647 217 682 180 682 132 c 0
 682 124 681 117 679 109 c 1
EndSplineSet
EndChar

StartChar: uni201F
Encoding: 8223 8223 86
Width: 688
Flags: HMW
LayerCount: 2
Fore
SplineSet
345 1196 m 1
 378 1353 506 1476 535 1511 c 1
 585 1480 l 1
 558 1450 490 1374 475 1302 c 0
 527 1302 562 1267 562 1218 c 0
 563 1211 561 1203 560 1196 c 0
 547 1136 488 1088 429 1088 c 0
 377 1088 342 1125 342 1173 c 0
 342 1181 343 1188 345 1196 c 1
675 1194 m 1
 708 1351 836 1474 865 1509 c 1
 914 1478 l 1
 887 1448 819 1372 804 1300 c 0
 856 1300 891 1265 891 1216 c 0
 892 1209 891 1201 890 1194 c 0
 877 1134 818 1086 759 1086 c 0
 707 1086 672 1123 672 1171 c 0
 672 1179 673 1186 675 1194 c 1
EndSplineSet
EndChar

StartChar: Euro
Encoding: 8364 8364 87
Width: 1089
Flags: HMW
LayerCount: 2
Fore
SplineSet
432 762 m 1
 303 762 l 1
 332 897 l 1
 485 897 l 1
 572 1069 719 1196 891 1196 c 0
 1051 1196 1104 1155 1178 1063 c 9
 1133 1025 1062 967 1062 967 c 0
 1017 1024 982 1061 863 1061 c 1
 778 1061 699 988 642 897 c 1
 912 897 l 1
 883 762 l 1
 577 762 l 1
 571 743 566 724 562 707 c 0
 557 685 554 665 552 645 c 1
 852 645 l 1
 823 510 l 1
 558 510 l 1
 582 403 651 346 711 346 c 0
 797 346 851 362 957 457 c 9
 1033 360 l 1
 950 283 872 211 682 211 c 1
 497 211 413 341 402 510 c 1
 243 510 l 1
 272 645 l 1
 408 645 l 1
 411 667 414 689 419 711 c 0
 423 728 427 745 432 762 c 1
EndSplineSet
EndChar

StartChar: A
Encoding: 65 65 88
Width: 1302
Flags: HMW
LayerCount: 2
Fore
SplineSet
917 1214 m 1
 587 621 l 1
 1002 621 l 1
 917 1214 l 1
1010 485 m 1
 513 485 l 0
 248 0 l 0
 72 0 l 1
 905 1456 l 0
 905 1456 982 1456 1032 1456 c 17
 1247 0 l 1
 1067 0 l 1
 1010 485 l 1
EndSplineSet
EndChar

StartChar: B
Encoding: 66 66 89
Width: 1179
Flags: HMW
LayerCount: 2
Back
SplineSet
337.92 1085.44 m 4
 337.92 1243.71 466.37 1372.16 624.64 1372.16 c 4
 782.909 1372.16 911.36 1243.71 911.36 1085.44 c 4
 911.36 927.171 782.909 798.72 624.64 798.72 c 4
 466.37 798.72 337.92 927.171 337.92 1085.44 c 4
262.144 405.504 m 4
 262.144 604.472 423.625 765.952 622.592 765.952 c 4
 821.56 765.952 983.04 604.472 983.04 405.504 c 4
 983.04 206.537 821.56 45.0557 622.592 45.0557 c 4
 423.625 45.0557 262.144 206.537 262.144 405.504 c 4
EndSplineSet
Fore
SplineSet
429 705 m 1
 309 141 l 1
 628 141 l 1
 868 141 991 287 1021 430 c 0
 1025 450 1028 469 1028 488 c 0
 1028 490 1028 492 1028 494 c 0
 1029 610 951 705 748 705 c 1
 721 705 461 705 429 705 c 1
559 1317 m 1
 458 844 l 1
 496 844 662 844 695 844 c 1
 984 844 1060 991 1079 1079 c 1
 1082 1095 1085 1112 1085 1130 c 0
 1085 1214 1034 1315 796 1315 c 1
 765 1315 595 1317 559 1317 c 1
430 1456 m 1
 825 1456 l 1
 1153 1456 1248 1301 1248 1156 c 0
 1247 1130 1244 1104 1239 1079 c 1
 1204 915 1030 782 922 782 c 1
 1124 782 1182 620 1182 496 c 0
 1182 469 1179 445 1175 424 c 1
 1146 287 1034 0 598 0 c 1
 121 0 l 1
 430 1456 l 1
EndSplineSet
EndChar

StartChar: C
Encoding: 67 67 90
Width: 1220
Flags: HMW
LayerCount: 2
Fore
SplineSet
1229 293 m 0
 1134 133 959 -29 694 -29 c 0
 367 -29 229 205 229 497 c 0
 229 570 237 647 254 725 c 0
 337 1114 611 1495 1020 1495 c 0
 1285 1495 1388 1327 1407 1194 c 9
 1346 1178 1249 1153 1249 1153 c 0
 1236 1276 1126 1354 990 1354 c 1
 988 1354 l 0
 700 1354 486 1037 420 725 c 0
 406 660 399 597 399 536 c 0
 399 298 507 111 724 111 c 0
 868 111 1025 215 1091 334 c 9
 1145 318 1229 293 1229 293 c 0
EndSplineSet
EndChar

StartChar: D
Encoding: 68 68 91
Width: 1220
Flags: HMW
LayerCount: 2
Fore
SplineSet
1142 727 m 0
 1154 783 1161 844 1161 905 c 0
 1161 1112 1077 1315 804 1315 c 1
 559 1315 l 1
 309 141 l 1
 554 141 l 1
 902 141 1068 381 1142 727 c 0
1308 727 m 0
 1221 319 942 0 565 0 c 1
 121 0 l 1
 430 1456 l 1
 874 1456 l 2
 1182 1456 1330 1220 1330 929 c 0
 1330 864 1323 796 1308 727 c 0
EndSplineSet
EndChar

StartChar: E
Encoding: 69 69 92
Width: 1142
Flags: HMW
LayerCount: 2
Fore
SplineSet
430 1456 m 0
 1351 1456 l 1
 1322 1315 l 0
 559 1315 l 0
 453 817 l 1
 1173 817 l 1
 1143 676 l 0
 423 676 l 0
 309 141 l 0
 1072 141 l 0
 1042 0 l 0
 121 0 l 1
 430 1456 l 0
EndSplineSet
EndChar

StartChar: F
Encoding: 70 70 93
Width: 1146
Flags: HMW
LayerCount: 2
Fore
SplineSet
430 1456 m 1
 1351 1456 l 1
 1322 1315 l 25
 559 1315 l 25
 453 817 l 1
 1173 817 l 1
 1143 676 l 25
 423 676 l 1
 279 0 l 1
 121 0 l 1
 430 1456 l 1
EndSplineSet
EndChar

StartChar: G
Encoding: 71 71 94
Width: 1363
Flags: HMW
LayerCount: 2
Fore
SplineSet
694 -29 m 0
 379 -29 232 213 232 514 c 0
 232 584 239 657 255 731 c 0
 327 1071 609 1495 1020 1495 c 0
 1244 1495 1345 1401 1405 1260 c 9
 1345 1233 1252 1192 1252 1192 c 0
 1203 1288 1142 1354 990 1354 c 1
 702 1354 479 1004 421 731 c 0
 408 670 402 607 402 546 c 0
 402 316 499 111 724 111 c 0
 1017 111 1160 389 1195 555 c 1
 802 555 l 1
 832 696 l 1
 1381 696 l 1
 1363 610 l 1
 1301 319 1072 -29 700 -29 c 0
 698 -29 696 -29 694 -29 c 0
EndSplineSet
EndChar

StartChar: H
Encoding: 72 72 95
Width: 1198
Flags: HMW
LayerCount: 2
Fore
SplineSet
430 1456 m 0
 588 1456 l 1
 452 815 l 1
 1113 815 l 1
 1249 1456 l 1
 1407 1456 l 1
 1098 0 l 1
 940 0 l 1
 1083 674 l 0
 422 674 l 1
 279 0 l 1
 121 0 l 1
 430 1456 l 0
EndSplineSet
EndChar

StartChar: I
Encoding: 73 73 96
Width: 444
Flags: HMW
LayerCount: 2
Fore
SplineSet
154 0 m 1
 463 1456 l 1
 620 1456 l 1
 311 0 l 1
 154 0 l 1
EndSplineSet
EndChar

StartChar: J
Encoding: 74 74 97
Width: 1140
Flags: HMW
LayerCount: 2
Fore
SplineSet
227 535 m 0
 368 535 l 1
 361 500 356 464 356 430 c 0
 356 270 435 121 591 121 c 1
 784 121 941 334 984 535 c 2
 1179 1456 l 1
 1337 1456 l 1
 1142 535 l 2
 1073 209 834 -29 559 -29 c 1
 334 -29 208 144 209 378 c 0
 209 380 209 382 209 384 c 0
 209 431 216 482 227 535 c 0
EndSplineSet
EndChar

StartChar: K
Encoding: 75 75 98
Width: 1239
Flags: HMW
LayerCount: 2
Fore
SplineSet
430 1456 m 0
 588 1456 l 1
 428 702 l 1
 1335 1456 l 1
 1528 1456 l 1
 742 803 l 1
 1235 0 l 1
 1028 0 l 1
 616 702 l 1
 389 516 l 1
 279 0 l 1
 121 0 l 1
 430 1456 l 0
EndSplineSet
EndChar

StartChar: L
Encoding: 76 76 99
Width: 1105
Flags: HMW
LayerCount: 2
Fore
SplineSet
430 1456 m 1
 588 1456 l 1
 309 141 l 1
 1074 141 l 1
 1044 0 l 1
 121 0 l 1
 430 1456 l 1
EndSplineSet
EndChar

StartChar: M
Encoding: 77 77 100
Width: 1562
Flags: HMW
LayerCount: 2
Fore
SplineSet
121 0 m 1
 430 1456 l 2
 645 1456 l 1
 839 209 l 2
 1564 1456 l 1
 1771 1456 l 1
 1462 0 l 1
 1309 0 l 25
 1565 1204 l 1
 884 16 l 0
 705 16 l 1
 530 1204 l 0
 274 0 l 1
 121 0 l 1
EndSplineSet
EndChar

StartChar: N
Encoding: 78 78 101
Width: 1271
Flags: HMW
LayerCount: 2
Fore
SplineSet
121 0 m 1
 430 1456 l 2
 583 1456 l 1
 1077 295 l 25
 1323 1456 l 1
 1480 1456 l 1
 1171 0 l 0
 1026 0 l 1
 532 1190 l 0
 279 0 l 1
 121 0 l 1
EndSplineSet
EndChar

StartChar: O
Encoding: 79 79 102
Width: 1333
Flags: HMW
LayerCount: 2
Fore
SplineSet
1250 725 m 0
 1265 797 1275 876 1275 952 c 0
 1274 1161 1201 1354 964 1354 c 0
 642 1354 469 995 412 725 c 1
 397 655 389 580 388 507 c 0
 388 300 464 113 700 113 c 1
 1021 113 1193 457 1250 725 c 0
246 725 m 1
 314 1047 566 1495 994 1495 c 1
 1329 1495 1440 1222 1440 950 c 0
 1440 873 1431 796 1416 725 c 1
 1348 406 1098 -29 670 -29 c 0
 335 -29 223 239 223 511 c 0
 223 584 232 657 246 725 c 1
EndSplineSet
EndChar

StartChar: P
Encoding: 80 80 103
Width: 1099
Flags: HMW
LayerCount: 2
Fore
SplineSet
444 774 m 1
 650 774 l 1
 970 774 1066 918 1093 1047 c 1
 1097 1066 1100 1086 1099 1107 c 0
 1099 1208 1037 1315 765 1315 c 1
 559 1315 l 1
 444 774 l 1
430 1456 m 0
 588 1456 l 1
 794 1456 l 1
 1110 1456 1264 1322 1265 1132 c 0
 1264 1104 1261 1076 1255 1047 c 0
 1207 821 998 631 619 631 c 1
 413 631 l 1
 279 0 l 1
 121 0 l 1
 430 1456 l 0
EndSplineSet
EndChar

StartChar: Q
Encoding: 81 81 104
Width: 1370
Flags: HMW
LayerCount: 2
Back
SplineSet
1273.04 83.6143 m 5
 1186.51 -32.9658 l 5
 699.626 328.428 l 5
 786.157 445.006 l 5
 1273.04 83.6143 l 5
1101.68 725.914 m 0
 1101.68 994.929 994.929 1353.62 672.539 1353.62 c 0
 350.146 1353.62 243.395 994.929 243.395 725.914 c 1
 243.395 456.898 352.282 111.022 672.539 111.022 c 1
 992.795 111.022 1101.68 456.898 1101.68 725.914 c 0
93.9424 725.914 m 1
 93.9424 1046.17 243.395 1494.53 672.539 1494.53 c 1
 1101.68 1494.53 1251.13 1046.17 1251.13 725.914 c 1
 1251.13 405.657 1099.55 -29.8896 672.539 -29.8896 c 1
 245.53 -29.8896 93.9424 405.657 93.9424 725.914 c 1
EndSplineSet
Fore
SplineSet
1258 725 m 1
 1273 797 1283 873 1283 945 c 0
 1282 1163 1200 1354 962 1354 c 1
 685 1354 480 1047 412 725 c 1
 399 663 390 592 390 521 c 0
 390 519 390 518 390 516 c 0
 390 312 463 113 716 113 c 1
 784 113 886 141 943 188 c 1
 785 330 l 1
 898 446 l 1
 1064 297 l 1
 1155 395 1216 528 1258 725 c 1
246 725 m 1
 314 1047 574 1495 994 1495 c 1
 1333 1495 1446 1218 1446 943 c 0
 1446 869 1439 794 1424 725 c 1
 1377 506 1266 309 1166 207 c 1
 1306 86 l 1
 1191 -31 l 1
 1046 96 l 1
 948 29 844 -29 682 -29 c 1
 339 -29 223 237 223 509 c 0
 223 511 223 513 223 515 c 0
 223 586 232 658 246 725 c 1
EndSplineSet
EndChar

StartChar: R
Encoding: 82 82 105
Width: 1101
Flags: HMW
LayerCount: 2
Back
SplineSet
268.288 774.145 m 5
 475.136 774.145 l 5
 794.624 774.145 860.16 917.504 860.16 1046.53 c 5
 860.16 1159.17 802.816 1314.82 475.136 1314.82 c 5
 268.288 1314.82 l 5
 268.288 774.145 l 5
110.592 1456.13 m 4
 268.288 1456.13 l 5
 475.136 1456.13 l 5
 835.584 1454.08 1021.95 1282.05 1021.95 1046.53 c 4
 1021.95 821.248 854.016 630.784 475.136 630.784 c 5
 268.288 630.784 l 5
 268.288 0 l 5
 110.592 0 l 5
 110.592 1456.13 l 4
EndSplineSet
Fore
SplineSet
444 774 m 1
 650 774 l 1
 976 774 1067 926 1093 1047 c 0
 1098 1068 1099 1089 1099 1108 c 0
 1099 1231 1006 1315 765 1315 c 2
 559 1315 l 1
 444 774 l 1
923 0 m 1
 628 631 l 1
 413 631 l 1
 279 0 l 1
 121 0 l 1
 430 1456 l 0
 588 1456 l 1
 794 1456 l 1
 1071 1456 1266 1341 1266 1130 c 0
 1266 1104 1263 1076 1257 1047 c 0
 1215 850 1040 688 808 648 c 1
 1104 0 l 1
 923 0 l 1
EndSplineSet
EndChar

StartChar: S
Encoding: 83 83 106
Width: 1079
Flags: HMW
LayerCount: 2
Back
SplineSet
75.8164 395.264 m 0
 75.8164 630.407 293.161 821.248 571.054 821.248 c 0
 848.947 821.248 1066.29 630.407 1066.29 395.264 c 0
 1066.29 160.12 848.947 -30.7197 571.054 -30.7197 c 0
 293.161 -30.7197 75.8164 160.12 75.8164 395.264 c 0
233.994 397.312 m 0
 233.994 555.581 384.03 684.032 568.894 684.032 c 0
 753.756 684.032 903.793 555.581 903.793 397.312 c 0
 903.793 239.043 753.756 110.592 568.894 110.592 c 0
 384.03 110.592 233.994 239.043 233.994 397.312 c 0
114.688 1105.92 m 4
 114.688 1320.71 317.456 1495.04 567.296 1495.04 c 0
 817.136 1495.04 1019.9 1320.71 1019.9 1105.92 c 0
 1019.9 891.126 817.136 716.8 567.296 716.8 c 0
 317.456 716.8 114.688 891.126 114.688 1105.92 c 4
276.48 1107.97 m 4
 276.48 1243.63 405.848 1353.73 565.248 1353.73 c 0
 724.648 1353.73 854.016 1243.63 854.016 1107.97 c 0
 854.016 972.309 724.648 862.208 565.248 862.208 c 0
 405.848 862.208 276.48 972.309 276.48 1107.97 c 4
EndSplineSet
Fore
SplineSet
115 327 m 1
 291 358 l 1
 293 252 400 113 563 113 c 1
 745 113 927 214 960 371 c 0
 964 388 965 404 965 419 c 0
 965 611 700 696 592 745 c 0
 478 797 345 866 345 1044 c 0
 345 1072 348 1103 355 1136 c 0
 403 1361 623 1495 857 1495 c 1
 1096 1495 1231 1360 1248 1194 c 1
 1090 1169 l 1
 1080 1256 986 1354 827 1354 c 1
 673 1354 543 1260 517 1136 c 0
 513 1117 511 1099 511 1083 c 0
 511 932 676 893 823 824 c 0
 951 764 1122 668 1122 460 c 0
 1122 432 1119 401 1112 368 c 0
 1055 99 803 -29 533 -29 c 1
 262 -29 145 132 115 327 c 1
EndSplineSet
EndChar

StartChar: T
Encoding: 84 84 107
Width: 1243
Flags: HMW
LayerCount: 2
Fore
SplineSet
397 1456 m 0
 1489 1456 l 1
 1460 1315 l 0
 1003 1315 l 1
 723 0 l 1
 565 0 l 1
 845 1315 l 1
 368 1315 l 1
 397 1456 l 0
EndSplineSet
EndChar

StartChar: U
Encoding: 85 85 108
Width: 1265
Flags: HMW
LayerCount: 2
Back
SplineSet
272.384 1456.13 m 5
 110.592 1456.13 l 5
 110.592 661.504 l 5
 110.592 239.616 307.2 -30.7197 632.832 -30.7197 c 4
 958.47 -30.7197 1155.07 239.616 1155.07 661.504 c 5
 1155.07 1456.13 l 5
 993.28 1456.13 l 5
 993.28 661.504 l 5
 993.28 290.816 827.392 110.592 632.832 110.592 c 5
 438.272 110.592 274.432 290.816 272.384 661.504 c 5
 272.384 1456.13 l 5
EndSplineSet
Fore
SplineSet
1313 1456 m 1
 1474 1456 l 1
 1302 645 l 1
 1212 223 965 -29 637 -29 c 0
 373 -29 231 132 231 415 c 0
 231 485 240 562 258 645 c 1
 430 1456 l 1
 592 1456 l 1
 420 645 l 1
 404 572 397 508 397 450 c 0
 397 217 509 113 667 113 c 0
 862 113 1062 274 1141 645 c 1
 1313 1456 l 1
EndSplineSet
EndChar

StartChar: V
Encoding: 86 86 109
Width: 1245
Flags: HMW
LayerCount: 2
Fore
SplineSet
1331 1456 m 1
 1495 1456 l 1
 745 0 l 1
 526 0 l 1
 389 1456 l 1
 559 1456 l 1
 671 168 l 1
 1331 1456 l 1
EndSplineSet
EndChar

StartChar: W
Encoding: 87 87 110
Width: 1576
Flags: HMW
LayerCount: 2
Fore
SplineSet
393 1456 m 1
 553 1456 l 1
 467 182 l 0
 1004 1419 l 1
 1199 1419 l 0
 1210 182 l 1
 1665 1456 l 25
 1825 1456 l 1
 1286 0 l 1
 1067 0 l 1
 1062 1229 l 2
 535 0 l 1
 311 0 l 2
 393 1456 l 1
EndSplineSet
EndChar

StartChar: X
Encoding: 88 88 111
Width: 1214
Flags: HMW
LayerCount: 2
Fore
SplineSet
383 1456 m 0
 565 1456 l 1
 799 850 l 1
 1282 1456 l 1
 1464 1456 l 1
 857 729 l 1
 1161 0 l 1
 971 0 l 1
 743 586 l 1
 258 0 l 1
 80 0 l 1
 690 729 l 1
 383 1456 l 0
EndSplineSet
EndChar

StartChar: Y
Encoding: 89 89 112
Width: 1179
Flags: HMW
LayerCount: 2
Fore
SplineSet
385 1456 m 1
 553 1456 l 1
 782 856 l 1
 1265 1456 l 1
 1433 1456 l 1
 837 748 l 1
 678 0 l 1
 520 0 l 1
 679 748 l 1
 385 1456 l 1
EndSplineSet
EndChar

StartChar: Z
Encoding: 90 90 113
Width: 1325
Flags: HMW
LayerCount: 2
Fore
SplineSet
438 1456 m 1
 1542 1456 l 1
 399 141 l 1
 1275 141 l 1
 1245 0 l 1
 100 0 l 1
 1253 1315 l 1
 409 1315 l 1
 438 1456 l 1
EndSplineSet
EndChar

StartChar: bracketleft
Encoding: 91 91 114
Width: 626
Flags: HMW
LayerCount: 2
Fore
SplineSet
506 -96 m 0
 111 -96 l 1
 456 1530 l 0
 851 1530 l 1
 821 1389 l 1
 576 1389 l 1
 290 43 l 1
 535 43 l 1
 506 -96 l 0
EndSplineSet
EndChar

StartChar: backslash
Encoding: 92 92 115
Width: 811
Flags: HMW
LayerCount: 2
Fore
SplineSet
690 0 m 1
 299 1544 l 1
 471 1544 l 0
 860 0 l 1
 690 0 l 1
EndSplineSet
EndChar

StartChar: bracketright
Encoding: 93 93 116
Width: 638
Flags: HMW
LayerCount: 2
Fore
SplineSet
109 -96 m 0
 139 45 l 1
 385 45 l 1
 670 1389 l 1
 424 1389 l 1
 454 1530 l 1
 849 1530 l 0
 504 -96 l 1
 109 -96 l 0
EndSplineSet
EndChar

StartChar: asciicircum
Encoding: 94 94 117
Width: 927
Flags: HMW
LayerCount: 2
Fore
SplineSet
1065 1149 m 1
 877 1149 l 1
 767 1362 l 1
 564 1151 l 0
 378 1151 l 1
 727 1493 l 1
 858 1493 l 1
 1065 1149 l 1
EndSplineSet
EndChar

StartChar: underscore
Encoding: 95 95 118
Width: 1241
Flags: HMW
LayerCount: 2
Fore
SplineSet
39 -231 m 1
 69 -90 l 1
 1159 -90 l 1
 1129 -231 l 1
 39 -231 l 1
EndSplineSet
EndChar

StartChar: grave
Encoding: 96 96 119
Width: 550
Flags: HMW
LayerCount: 2
Fore
SplineSet
820 1676 m 2
 826 1668 829 1660 829 1650 c 0
 829 1647 829 1643 828 1639 c 0
 825 1626 818 1615 808 1604 c 1
 798 1594 786 1587 772 1584 c 0
 767 1583 761 1582 757 1582 c 0
 748 1582 740 1585 733 1591 c 2
 475 1810 l 1
 464 1822 457 1836 456 1851 c 0
 456 1854 456 1857 456 1860 c 0
 456 1863 456 1865 457 1868 c 0
 461 1885 470 1901 484 1914 c 1
 497 1928 512 1938 530 1942 c 0
 536 1944 542 1944 548 1944 c 0
 565 1944 579 1939 592 1926 c 1
 820 1676 l 2
EndSplineSet
EndChar

StartChar: a
Encoding: 97 97 120
Width: 993
Flags: HMW
LayerCount: 2
Back
SplineSet
143.36 1474.56 m 29
 143.36 -53.248 l 29
430.08 1466.37 m 29
 430.08 -61.4404 l 29
286.72 -69.6318 m 29
 286.72 1458.18 l 29
 286.72 -69.6318 l 29
573.44 1470.46 m 29
 573.44 -57.3438 l 29
716.8 1466.37 m 29
 716.8 -61.4404 l 29
860.16 -49.1523 m 29
 860.16 1478.66 l 29
 860.16 -49.1523 l 29
143.36 1474.56 m 29
 143.36 -53.248 l 29
430.08 1466.37 m 29
 430.08 -61.4404 l 29
286.72 -69.6318 m 29
 286.72 1458.18 l 29
 286.72 -69.6318 l 29
573.44 1470.46 m 29
 573.44 -57.3438 l 29
716.8 1466.37 m 29
 716.8 -61.4404 l 29
860.16 -49.1523 m 29
 860.16 1478.66 l 29
 860.16 -49.1523 l 29
143.36 1474.56 m 29
 143.36 -53.248 l 29
430.08 1466.37 m 29
 430.08 -61.4404 l 29
286.72 -69.6318 m 29
 286.72 1458.18 l 29
 286.72 -69.6318 l 29
573.44 1470.46 m 29
 573.44 -57.3438 l 29
716.8 1466.37 m 29
 716.8 -61.4404 l 29
860.16 -49.1523 m 29
 860.16 1478.66 l 29
 860.16 -49.1523 l 29
143.36 1474.56 m 29
 143.36 -53.248 l 29
430.08 1466.37 m 29
 430.08 -61.4404 l 29
286.72 -69.6318 m 29
 286.72 1458.18 l 29
 286.72 -69.6318 l 29
573.44 1470.46 m 29
 573.44 -57.3438 l 29
716.8 1466.37 m 29
 716.8 -61.4404 l 29
860.16 -49.1523 m 29
 860.16 1478.66 l 29
 860.16 -49.1523 l 29
143.36 1474.56 m 29
 143.36 -53.248 l 29
430.08 1466.37 m 29
 430.08 -61.4404 l 29
286.72 -69.6318 m 29
 286.72 1458.18 l 29
 286.72 -69.6318 l 29
573.44 1470.46 m 29
 573.44 -57.3438 l 29
716.8 1466.37 m 29
 716.8 -61.4404 l 29
860.16 -49.1523 m 29
 860.16 1478.66 l 29
 860.16 -49.1523 l 29
143.36 1474.56 m 29
 143.36 -53.248 l 29
430.08 1466.37 m 29
 430.08 -61.4404 l 29
286.72 -69.6318 m 29
 286.72 1458.18 l 29
 286.72 -69.6318 l 29
573.44 1470.46 m 29
 573.44 -57.3438 l 29
716.8 1466.37 m 29
 716.8 -61.4404 l 29
860.16 -49.1523 m 29
 860.16 1478.66 l 29
 860.16 -49.1523 l 29
143.36 1474.56 m 29
 143.36 -53.248 l 29
430.08 1466.37 m 29
 430.08 -61.4404 l 29
286.72 -69.6318 m 29
 286.72 1458.18 l 29
 286.72 -69.6318 l 29
573.44 1470.46 m 29
 573.44 -57.3438 l 29
716.8 1466.37 m 29
 716.8 -61.4404 l 29
860.16 -49.1523 m 29
 860.16 1478.66 l 29
 860.16 -49.1523 l 29
143.36 1474.56 m 29
 143.36 -53.248 l 29
430.08 1466.37 m 29
 430.08 -61.4404 l 29
286.72 -69.6318 m 29
 286.72 1458.18 l 29
 286.72 -69.6318 l 29
573.44 1470.46 m 29
 573.44 -57.3438 l 29
716.8 1466.37 m 29
 716.8 -61.4404 l 29
860.16 -49.1523 m 29
 860.16 1478.66 l 29
 860.16 -49.1523 l 29
143.36 1474.56 m 29
 143.36 -53.248 l 29
430.08 1466.37 m 29
 430.08 -61.4404 l 29
286.72 -69.6318 m 29
 286.72 1458.18 l 29
 286.72 -69.6318 l 29
573.44 1470.46 m 29
 573.44 -57.3438 l 29
716.8 1466.37 m 29
 716.8 -61.4404 l 29
860.16 -49.1523 m 29
 860.16 1478.66 l 29
 860.16 -49.1523 l 29
143.36 1474.56 m 29
 143.36 -53.248 l 29
430.08 1466.37 m 29
 430.08 -61.4404 l 29
286.72 -69.6318 m 29
 286.72 1458.18 l 29
 286.72 -69.6318 l 29
573.44 1470.46 m 29
 573.44 -57.3438 l 29
716.8 1466.37 m 29
 716.8 -61.4404 l 29
860.16 -49.1523 m 29
 860.16 1478.66 l 29
 860.16 -49.1523 l 29
143.36 1474.56 m 29
 143.36 -53.248 l 29
430.08 1466.37 m 29
 430.08 -61.4404 l 29
286.72 -69.6318 m 29
 286.72 1458.18 l 29
 286.72 -69.6318 l 29
573.44 1470.46 m 29
 573.44 -57.3438 l 29
716.8 1466.37 m 29
 716.8 -61.4404 l 29
860.16 -49.1523 m 29
 860.16 1478.66 l 29
 860.16 -49.1523 l 29
143.36 1474.56 m 29
 143.36 -53.248 l 29
430.08 1466.37 m 29
 430.08 -61.4404 l 29
286.72 -69.6318 m 29
 286.72 1458.18 l 29
 286.72 -69.6318 l 29
573.44 1470.46 m 29
 573.44 -57.3438 l 29
716.8 1466.37 m 29
 716.8 -61.4404 l 29
860.16 -49.1523 m 29
 860.16 1478.66 l 29
 860.16 -49.1523 l 29
143.36 1474.56 m 29
 143.36 -53.248 l 29
430.08 1466.37 m 29
 430.08 -61.4404 l 29
286.72 -69.6318 m 29
 286.72 1458.18 l 29
 286.72 -69.6318 l 29
573.44 1470.46 m 29
 573.44 -57.3438 l 29
716.8 1466.37 m 29
 716.8 -61.4404 l 29
860.16 -49.1523 m 29
 860.16 1478.66 l 29
 860.16 -49.1523 l 29
143.36 1474.56 m 29
 143.36 -53.248 l 29
430.08 1466.37 m 29
 430.08 -61.4404 l 29
286.72 -69.6318 m 29
 286.72 1458.18 l 29
 286.72 -69.6318 l 29
573.44 1470.46 m 29
 573.44 -57.3438 l 29
716.8 1466.37 m 29
 716.8 -61.4404 l 29
860.16 -49.1523 m 29
 860.16 1478.66 l 29
 860.16 -49.1523 l 29
143.36 1474.56 m 29
 143.36 -53.248 l 29
430.08 1466.37 m 29
 430.08 -61.4404 l 29
286.72 -69.6318 m 29
 286.72 1458.18 l 29
 286.72 -69.6318 l 29
573.44 1470.46 m 29
 573.44 -57.3438 l 29
716.8 1466.37 m 29
 716.8 -61.4404 l 29
860.16 -49.1523 m 29
 860.16 1478.66 l 29
 860.16 -49.1523 l 29
143.36 1474.56 m 29
 143.36 -53.248 l 29
430.08 1466.37 m 29
 430.08 -61.4404 l 29
286.72 -69.6318 m 29
 286.72 1458.18 l 29
 286.72 -69.6318 l 29
573.44 1470.46 m 29
 573.44 -57.3438 l 29
716.8 1466.37 m 29
 716.8 -61.4404 l 29
860.16 -49.1523 m 29
 860.16 1478.66 l 29
 860.16 -49.1523 l 29
143.36 1474.56 m 25
 143.36 -53.248 l 25
430.08 1466.37 m 25
 430.08 -61.4404 l 25
286.72 -69.6318 m 25
 286.72 1458.18 l 25
 286.72 -69.6318 l 25
573.44 1470.46 m 25
 573.44 -57.3438 l 25
716.8 1466.37 m 25
 716.8 -61.4404 l 25
860.16 -49.1523 m 25
 860.16 1478.66 l 25
 860.16 -49.1523 l 25
143.36 1474.56 m 25
 143.36 -53.248 l 25
430.08 1466.37 m 25
 430.08 -61.4404 l 25
286.72 -69.6318 m 25
 286.72 1458.18 l 25
 286.72 -69.6318 l 25
573.44 1470.46 m 25
 573.44 -57.3438 l 25
716.8 1466.37 m 25
 716.8 -61.4404 l 25
860.16 -49.1523 m 25
 860.16 1478.66 l 25
 860.16 -49.1523 l 25
143.36 1474.56 m 25
 143.36 -53.248 l 25
430.08 1466.37 m 25
 430.08 -61.4404 l 25
286.72 -69.6318 m 25
 286.72 1458.18 l 25
 286.72 -69.6318 l 25
573.44 1470.46 m 25
 573.44 -57.3438 l 25
716.8 1466.37 m 25
 716.8 -61.4404 l 25
860.16 -49.1523 m 25
 860.16 1478.66 l 25
 860.16 -49.1523 l 25
143.36 1474.56 m 25
 143.36 -53.248 l 25
430.08 1466.37 m 25
 430.08 -61.4404 l 25
286.72 -69.6318 m 25
 286.72 1458.18 l 25
 286.72 -69.6318 l 25
573.44 1470.46 m 25
 573.44 -57.3438 l 25
716.8 1466.37 m 25
 716.8 -61.4404 l 25
860.16 -49.1523 m 25
 860.16 1478.66 l 25
 860.16 -49.1523 l 25
143.36 1474.56 m 25
 143.36 -53.248 l 25
430.08 1466.37 m 25
 430.08 -61.4404 l 25
286.72 -69.6318 m 25
 286.72 1458.18 l 25
 286.72 -69.6318 l 25
573.44 1470.46 m 25
 573.44 -57.3438 l 25
716.8 1466.37 m 25
 716.8 -61.4404 l 25
860.16 -49.1523 m 25
 860.16 1478.66 l 25
 860.16 -49.1523 l 25
143.36 1474.56 m 25
 143.36 -53.248 l 25
430.08 1466.37 m 25
 430.08 -61.4404 l 25
286.72 -69.6318 m 25
 286.72 1458.18 l 25
 286.72 -69.6318 l 25
573.44 1470.46 m 25
 573.44 -57.3438 l 25
716.8 1466.37 m 25
 716.8 -61.4404 l 25
860.16 -49.1523 m 25
 860.16 1478.66 l 25
 860.16 -49.1523 l 25
143.36 1474.56 m 25
 143.36 -53.248 l 25
430.08 1466.37 m 25
 430.08 -61.4404 l 25
286.72 -69.6318 m 25
 286.72 1458.18 l 25
 286.72 -69.6318 l 25
573.44 1470.46 m 25
 573.44 -57.3438 l 25
716.8 1466.37 m 25
 716.8 -61.4404 l 25
860.16 -49.1523 m 25
 860.16 1478.66 l 25
 860.16 -49.1523 l 25
143.36 1474.56 m 25
 143.36 -53.248 l 25
430.08 1466.37 m 25
 430.08 -61.4404 l 25
286.72 -69.6318 m 25
 286.72 1458.18 l 25
 286.72 -69.6318 l 25
573.44 1470.46 m 25
 573.44 -57.3438 l 25
716.8 1466.37 m 25
 716.8 -61.4404 l 25
860.16 -49.1523 m 25
 860.16 1478.66 l 25
 860.16 -49.1523 l 25
143.36 1474.56 m 25
 143.36 -53.248 l 25
430.08 1466.37 m 25
 430.08 -61.4404 l 25
286.72 -69.6318 m 25
 286.72 1458.18 l 25
 286.72 -69.6318 l 25
573.44 1470.46 m 25
 573.44 -57.3438 l 25
716.8 1466.37 m 25
 716.8 -61.4404 l 25
860.16 -49.1523 m 25
 860.16 1478.66 l 25
 860.16 -49.1523 l 25
143.36 1474.56 m 25
 143.36 -53.248 l 25
430.08 1466.37 m 25
 430.08 -61.4404 l 25
286.72 -69.6318 m 25
 286.72 1458.18 l 25
 286.72 -69.6318 l 25
573.44 1470.46 m 25
 573.44 -57.3438 l 25
716.8 1466.37 m 25
 716.8 -61.4404 l 25
860.16 -49.1523 m 25
 860.16 1478.66 l 25
 860.16 -49.1523 l 25
143.36 1474.56 m 25
 143.36 -53.248 l 25
430.08 1466.37 m 25
 430.08 -61.4404 l 25
286.72 -69.6318 m 25
 286.72 1458.18 l 25
 286.72 -69.6318 l 25
573.44 1470.46 m 25
 573.44 -57.3438 l 25
716.8 1466.37 m 25
 716.8 -61.4404 l 25
860.16 -49.1523 m 25
 860.16 1478.66 l 25
 860.16 -49.1523 l 25
143.36 1474.56 m 25
 143.36 -53.248 l 25
430.08 1466.37 m 25
 430.08 -61.4404 l 25
286.72 -69.6318 m 25
 286.72 1458.18 l 25
 286.72 -69.6318 l 25
573.44 1470.46 m 25
 573.44 -57.3438 l 25
716.8 1466.37 m 25
 716.8 -61.4404 l 25
860.16 -49.1523 m 25
 860.16 1478.66 l 25
 860.16 -49.1523 l 25
143.36 1474.56 m 25
 143.36 -53.248 l 25
430.08 1466.37 m 25
 430.08 -61.4404 l 25
286.72 -69.6318 m 25
 286.72 1458.18 l 25
 286.72 -69.6318 l 25
573.44 1470.46 m 25
 573.44 -57.3438 l 25
716.8 1466.37 m 25
 716.8 -61.4404 l 25
860.16 -49.1523 m 25
 860.16 1478.66 l 25
 860.16 -49.1523 l 25
143.36 1474.56 m 25
 143.36 -53.248 l 25
430.08 1466.37 m 25
 430.08 -61.4404 l 25
286.72 -69.6318 m 25
 286.72 1458.18 l 25
 286.72 -69.6318 l 25
573.44 1470.46 m 25
 573.44 -57.3438 l 25
716.8 1466.37 m 25
 716.8 -61.4404 l 25
860.16 -49.1523 m 25
 860.16 1478.66 l 25
 860.16 -49.1523 l 25
143.36 1474.56 m 25
 143.36 -53.248 l 25
430.08 1466.37 m 25
 430.08 -61.4404 l 25
286.72 -69.6318 m 25
 286.72 1458.18 l 25
 286.72 -69.6318 l 25
573.44 1470.46 m 25
 573.44 -57.3438 l 25
716.8 1466.37 m 25
 716.8 -61.4404 l 25
860.16 -49.1523 m 25
 860.16 1478.66 l 25
 860.16 -49.1523 l 25
143.36 1474.56 m 25
 143.36 -53.248 l 25
430.08 1466.37 m 25
 430.08 -61.4404 l 25
286.72 -69.6318 m 25
 286.72 1458.18 l 25
 286.72 -69.6318 l 25
573.44 1470.46 m 25
 573.44 -57.3438 l 25
716.8 1466.37 m 25
 716.8 -61.4404 l 25
860.16 -49.1523 m 25
 860.16 1478.66 l 25
 860.16 -49.1523 l 25
EndSplineSet
Fore
SplineSet
613 582 m 0
 462 582 338 473 311 344 c 0
 307 326 305 308 305 292 c 0
 305 182 388 106 512 106 c 0
 639 106 772 211 800 344 c 0
 804 361 805 377 805 393 c 0
 805 508 713 582 613 582 c 0
609 717 m 0
 764 717 842 610 844 559 c 1
 864 655 l 1
 872 692 876 725 876 756 c 0
 876 883 810 954 684 954 c 0
 590 954 497 922 442 877 c 1
 387 981 l 1
 469 1038 570 1090 713 1090 c 0
 892 1090 1019 982 1019 779 c 0
 1019 741 1014 700 1005 655 c 2
 979 532 l 2
 866 0 l 1
 727 0 l 1
 760 156 l 0
 761 158 l 1
 745 109 605 -29 450 -29 c 0
 267 -29 147 79 147 253 c 0
 147 282 150 312 157 344 c 0
 203 559 404 717 609 717 c 0
EndSplineSet
EndChar

StartChar: b
Encoding: 98 98 121
Width: 1044
Flags: HMW
LayerCount: 2
Back
SplineSet
281 0 m 13
 129 0 l 5
 129 1454 l 5
 281 1454 l 5
 281 892 l 21
 324 1006 428 1102 586 1102 c 4
 812 1102 956 940 956 627 c 5
 956 0 l 5
 805 0 l 4
 805 527 l 5
 805 768 760 965 546 965 c 4
 332 965 281 780 281 540 c 4
 281 0 l 13
143.36 1474.56 m 25
 143.36 -53.248 l 25
430.08 1466.37 m 25
 430.08 -61.4404 l 25
286.72 -69.6318 m 25
 286.72 1458.18 l 25
 286.72 -69.6318 l 25
573.44 1470.46 m 25
 573.44 -57.3438 l 25
716.8 1466.37 m 25
 716.8 -61.4404 l 25
860.16 -49.1523 m 25
 860.16 1478.66 l 25
 860.16 -49.1523 l 25
EndSplineSet
Fore
SplineSet
590 1454 m 9
 469 886 l 1
 539 996 642 1102 814 1102 c 0
 1028 1102 1112 942 1112 737 c 0
 1112 674 1104 607 1090 539 c 0
 1029 254 854 -29 572 -29 c 0
 398 -29 344 76 320 184 c 9
 281 0 l 1
 129 0 l 1
 438 1454 l 1
 590 1454 l 9
936 539 m 0
 949 598 954 651 954 698 c 0
 954 873 874 966 757 966 c 0
 609 966 448 812 390 537 c 0
 378 481 373 431 373 385 c 0
 373 206 457 106 575 106 c 0
 723 106 878 264 936 539 c 0
EndSplineSet
EndChar

StartChar: c
Encoding: 99 99 122
Width: 921
Flags: HMW
LayerCount: 2
Back
SplineSet
1242 0 m 21
 228 537 l 5
 1242 1074 l 13
86.0156 532.48 m 0
 86.0156 843.366 286.032 1095.68 532.48 1095.68 c 0
 778.928 1095.68 978.944 843.366 978.944 532.48 c 0
 978.944 221.594 778.928 -30.7197 532.48 -30.7197 c 0
 286.032 -30.7197 86.0156 221.594 86.0156 532.48 c 0
239.616 530.432 m 0
 239.616 765.575 370.819 956.416 532.48 956.416 c 0
 694.141 956.416 825.344 765.575 825.344 530.432 c 0
 825.344 295.289 694.141 104.448 532.48 104.448 c 0
 370.819 104.448 239.616 295.289 239.616 530.432 c 0
143.36 1474.56 m 25
 143.36 -53.248 l 25
430.08 1466.37 m 25
 430.08 -61.4404 l 25
286.72 -69.6318 m 25
 286.72 1458.18 l 25
 286.72 -69.6318 l 25
573.44 1470.46 m 25
 573.44 -57.3438 l 25
716.8 1466.37 m 25
 716.8 -61.4404 l 25
860.16 -49.1523 m 25
 860.16 1478.66 l 25
 860.16 -49.1523 l 25
EndSplineSet
Fore
SplineSet
917 809 m 1
 909 866 843 958 741 958 c 1
 575 958 396 784 343 537 c 0
 332 487 328 441 328 399 c 0
 328 216 421 106 558 106 c 0
 682 106 779 217 810 264 c 9
 916 187 l 1
 834 86 694 -29 529 -29 c 1
 307 -29 174 147 174 386 c 0
 174 434 179 485 190 537 c 0
 251 823 483 1094 770 1094 c 0
 932 1094 1022 993 1062 875 c 1
 917 809 l 1
EndSplineSet
EndChar

StartChar: d
Encoding: 100 100 123
Width: 1044
Flags: HMW
LayerCount: 2
Back
SplineSet
761.856 1062.91 m 21
 913.408 1062.91 l 5
 913.408 -391.168 l 5
 761.856 -391.168 l 5
 761.856 163.84 l 21
 700.416 67.7812 626.688 -30.4951 481.28 -28.6719 c 5
 229.376 -28.6719 108.544 256 108.544 538.624 c 4
 108.544 821.248 225.28 1091.58 483.328 1091.58 c 5
 620.544 1091.58 706.56 995.328 761.856 894.976 c 5
 761.856 1062.91 l 21
262.144 538.624 m 4
 262.144 305.152 350.208 106.496 483.328 106.496 c 5
 622.592 106.496 765.952 278.528 765.952 536.576 c 5
 765.952 827.392 595.968 956.416 483.328 956.416 c 4
 352.256 956.416 262.144 778.24 262.144 538.624 c 4
143.36 1474.56 m 25
 143.36 -53.248 l 25
430.08 1466.37 m 25
 430.08 -61.4404 l 25
286.72 -69.6318 m 25
 286.72 1458.18 l 25
 286.72 -69.6318 l 25
573.44 1470.46 m 25
 573.44 -57.3438 l 25
716.8 1466.37 m 25
 716.8 -61.4404 l 25
860.16 -49.1523 m 25
 860.16 1478.66 l 25
 860.16 -49.1523 l 25
EndSplineSet
Fore
SplineSet
1076 1454 m 17
 1228 1454 l 1
 919 0 l 1
 767 0 l 1
 806 184 l 17
 736 76 638 -29 463 -29 c 0
 248 -29 166 137 166 342 c 0
 166 405 174 472 188 539 c 0
 249 828 422 1102 702 1102 c 0
 874 1102 931 996 955 886 c 1
 1076 1454 l 17
342 539 m 0
 330 480 323 427 323 379 c 0
 323 204 403 106 519 106 c 0
 667 106 828 264 886 537 c 0
 898 593 904 644 904 690 c 0
 904 869 819 966 701 966 c 0
 553 966 401 816 342 539 c 0
EndSplineSet
EndChar

StartChar: e
Encoding: 101 101 124
Width: 1013
Flags: HMW
LayerCount: 2
Back
SplineSet
143.36 1474.56 m 25
 143.36 -53.248 l 25
430.08 1466.37 m 25
 430.08 -61.4404 l 25
286.72 -69.6318 m 25
 286.72 1458.18 l 25
 286.72 -69.6318 l 25
573.44 1470.46 m 25
 573.44 -57.3438 l 25
716.8 1466.37 m 25
 716.8 -61.4404 l 25
860.16 -49.1523 m 25
 860.16 1478.66 l 25
 860.16 -49.1523 l 25
EndSplineSet
Fore
SplineSet
385 604 m 1
 907 604 l 1
 911 633 914 662 914 690 c 0
 914 835 854 958 722 958 c 0
 562 958 432 774 385 604 c 1
357 469 m 1
 353 440 351 410 351 382 c 0
 351 233 407 106 541 106 c 0
 635 106 755 162 815 243 c 0
 936 188 l 0
 839 55 667 -29 512 -29 c 0
 299 -29 192 132 192 357 c 0
 192 413 199 474 212 537 c 0
 279 852 485 1094 751 1094 c 0
 967 1094 1061 923 1061 719 c 0
 1061 669 1055 617 1044 565 c 0
 1039 543 1030 492 1025 469 c 1
 357 469 l 1
EndSplineSet
EndChar

StartChar: f
Encoding: 102 102 125
Width: 716
Flags: HMW
LayerCount: 2
Back
SplineSet
143.36 1474.56 m 25
 143.36 -53.248 l 25
430.08 1466.37 m 25
 430.08 -61.4404 l 25
286.72 -69.6318 m 25
 286.72 1458.18 l 25
 286.72 -69.6318 l 25
573.44 1470.46 m 25
 573.44 -57.3438 l 25
716.8 1466.37 m 25
 716.8 -61.4404 l 25
860.16 -49.1523 m 25
 860.16 1478.66 l 25
 860.16 -49.1523 l 25
EndSplineSet
Fore
SplineSet
615 938 m 0
 416 0 l 1
 264 0 l 1
 463 938 l 0
 324 938 l 1
 353 1073 l 1
 491 1073 l 1
 520 1208 l 0
 556 1376 759 1481 860 1481 c 0
 946 1481 983 1444 1020 1399 c 9
 889 1294 l 17
 873 1323 859 1346 800 1346 c 1
 749 1346 695 1311 682 1249 c 0
 645 1073 l 1
 840 1073 l 1
 811 938 l 1
 615 938 l 0
EndSplineSet
EndChar

StartChar: g
Encoding: 103 103 126
Width: 1021
Flags: HMW
LayerCount: 2
Back
SplineSet
741.376 1062.91 m 21
 892.928 1062.91 l 5
 892.928 -391.168 l 5
 741.376 -391.168 l 5
 741.376 163.84 l 21
 679.936 67.7822 606.208 -30.4961 460.8 -28.6719 c 5
 208.896 -28.6719 88.0645 256 88.0645 538.624 c 4
 88.0645 821.248 204.8 1091.58 462.848 1091.58 c 5
 600.064 1091.58 686.08 995.328 741.376 894.976 c 5
 741.376 1062.91 l 21
241.664 538.624 m 4
 241.664 305.152 329.728 106.496 462.848 106.496 c 5
 602.112 106.496 745.472 278.528 745.472 536.576 c 5
 745.472 827.392 575.488 956.416 462.848 956.416 c 4
 331.776 956.416 241.664 778.24 241.664 538.624 c 4
1003.52 -49.1523 m 25
 1003.52 1478.66 l 25
 1003.52 -49.1523 l 25
143.36 1474.56 m 25
 143.36 -53.248 l 25
430.08 1466.37 m 25
 430.08 -61.4404 l 25
286.72 -69.6318 m 25
 286.72 1458.18 l 25
 286.72 -69.6318 l 25
573.44 1470.46 m 25
 573.44 -57.3438 l 25
716.8 1466.37 m 25
 716.8 -61.4404 l 25
860.16 -49.1523 m 25
 860.16 1478.66 l 25
 860.16 -49.1523 l 25
EndSplineSet
Fore
SplineSet
915 -18 m 1
 857 -291 620 -449 418 -449 c 0
 177 -449 73 -275 73 -135 c 0
 73 -126 73 -117 74 -109 c 1
 217 -109 l 17
 217 -112 217 -116 217 -119 c 0
 217 -234 322 -313 437 -313 c 0
 562 -313 719 -225 760 -33 c 0
 767 0 l 2
 806 184 l 17
 736 76 638 -29 464 -29 c 0
 248 -29 166 137 166 342 c 0
 166 405 174 472 188 539 c 0
 249 828 422 1102 702 1102 c 0
 874 1102 931 996 955 886 c 1
 995 1073 l 17
 1147 1073 l 1
 919 0 l 1
 915 -18 l 1
342 539 m 0
 330 480 323 427 323 379 c 0
 323 204 403 106 519 106 c 0
 667 106 828 264 886 537 c 0
 898 593 904 644 904 690 c 0
 904 869 819 966 701 966 c 0
 553 966 401 816 342 539 c 0
EndSplineSet
EndChar

StartChar: h
Encoding: 104 104 127
Width: 1064
Flags: HMW
LayerCount: 2
Back
SplineSet
1003.52 -49.1523 m 25
 1003.52 1478.66 l 25
 1003.52 -49.1523 l 25
143.36 1474.56 m 25
 143.36 -53.248 l 25
430.08 1466.37 m 25
 430.08 -61.4404 l 25
286.72 -69.6318 m 25
 286.72 1458.18 l 25
 286.72 -69.6318 l 25
573.44 1470.46 m 25
 573.44 -57.3438 l 25
716.8 1466.37 m 25
 716.8 -61.4404 l 25
860.16 -49.1523 m 25
 860.16 1478.66 l 25
 860.16 -49.1523 l 25
EndSplineSet
Fore
SplineSet
281 0 m 9
 129 0 l 1
 438 1456 l 1
 590 1456 l 1
 471 892 l 17
 530 1004 662 1102 820 1102 c 0
 987 1102 1098 999 1098 766 c 0
 1098 701 1089 626 1071 541 c 2
 956 0 l 1
 805 0 l 0
 920 541 l 1
 933 604 941 664 941 718 c 0
 941 864 887 965 751 965 c 0
 565 965 444 768 396 540 c 0
 281 0 l 9
EndSplineSet
EndChar

StartChar: i
Encoding: 105 105 128
Width: 430
Flags: HMW
LayerCount: 2
Back
SplineSet
143.36 1474.56 m 25
 143.36 -53.248 l 25
430.08 1466.37 m 25
 430.08 -61.4404 l 25
286.72 -69.6318 m 25
 286.72 1458.18 l 25
 286.72 -69.6318 l 25
573.44 1470.46 m 25
 573.44 -57.3438 l 25
716.8 1466.37 m 25
 716.8 -61.4404 l 25
860.16 -49.1523 m 25
 860.16 1478.66 l 25
 860.16 -49.1523 l 25
EndSplineSet
Fore
SplineSet
378 1073 m 1
 529 1073 l 1
 301 0 l 1
 150 0 l 1
 378 1073 l 1
414 1333 m 0
 425 1384 477 1427 528 1427 c 0
 573 1427 604 1395 604 1352 c 0
 605 1346 603 1340 602 1333 c 0
 591 1282 539 1239 488 1239 c 0
 444 1239 412 1272 412 1314 c 0
 412 1320 413 1327 414 1333 c 0
EndSplineSet
EndChar

StartChar: j
Encoding: 106 106 129
Width: 468
Flags: HMW
LayerCount: 2
Back
SplineSet
188.416 114.688 m 4
 188.416 1052.67 l 5
 339.968 1052.67 l 5
 339.968 114.688 l 4
 479.232 114.688 l 5
 479.232 -20.4805 l 5
 339.968 -20.4805 l 5
 340.851 -155.648 l 4
 340.851 -323.584 159.744 -428.032 59.3896 -428.032 c 4
 -26.624 -428.032 -71.6797 -391.168 -118.784 -346.112 c 13
 -10.2402 -241.664 l 21
 12.2881 -270.336 30.7197 -292.863 90.1143 -292.863 c 5
 141.312 -292.863 187.478 -258.048 187.478 -196.608 c 4
 188.416 -20.4805 l 5
 -8.19238 -20.4805 l 5
 -8.19238 114.688 l 5
 188.416 114.688 l 4
143.36 1474.56 m 25
 143.36 -53.248 l 25
430.08 1466.37 m 25
 430.08 -61.4404 l 25
286.72 -69.6318 m 25
 286.72 1458.18 l 25
 286.72 -69.6318 l 25
573.44 1470.46 m 25
 573.44 -57.3438 l 25
716.8 1466.37 m 25
 716.8 -61.4404 l 25
860.16 -49.1523 m 25
 860.16 1478.66 l 25
 860.16 -49.1523 l 25
EndSplineSet
Fore
SplineSet
453 1333 m 0
 464 1384 516 1427 567 1427 c 0
 610 1427 643 1395 643 1352 c 0
 643 1346 642 1340 641 1333 c 0
 630 1282 578 1239 527 1239 c 0
 484 1239 451 1271 451 1314 c 0
 451 1320 452 1326 453 1333 c 0
-193 -346 m 9
 -64 -244 l 1
 -45 -266 -25 -293 24 -293 c 1
 92 -293 134 -254 152 -170 c 0
 188 0 l 1
 416 1073 l 1
 568 1073 l 0
 340 0 l 1
 310 -139 l 0
 263 -360 34 -428 -36 -428 c 1
 -126 -428 -162 -383 -193 -346 c 9
EndSplineSet
EndChar

StartChar: k
Encoding: 107 107 130
Width: 944
Flags: HMW
LayerCount: 2
Back
SplineSet
143.36 1474.56 m 29
 143.36 -53.248 l 29
430.08 1466.37 m 29
 430.08 -61.4404 l 29
286.72 -69.6318 m 29
 286.72 1458.18 l 29
 286.72 -69.6318 l 29
573.44 1470.46 m 29
 573.44 -57.3438 l 29
716.8 1466.37 m 29
 716.8 -61.4404 l 29
860.16 -49.1523 m 29
 860.16 1478.66 l 29
 860.16 -49.1523 l 29
EndSplineSet
Fore
SplineSet
610 616 m 1
 940 0 l 1
 766 0 l 1
 496 512 l 1
 362 379 l 1
 281 0 l 1
 129 0 l 1
 438 1454 l 1
 590 1454 l 1
 405 582 l 17
 918 1073 l 1
 1092 1073 l 1
 610 616 l 1
EndSplineSet
EndChar

StartChar: l
Encoding: 108 108 131
Width: 430
Flags: HMW
LayerCount: 2
Back
SplineSet
143.36 1474.56 m 29
 143.36 -53.248 l 29
430.08 1466.37 m 29
 430.08 -61.4404 l 29
286.72 -69.6318 m 29
 286.72 1458.18 l 29
 286.72 -69.6318 l 29
573.44 1470.46 m 29
 573.44 -57.3438 l 29
716.8 1466.37 m 29
 716.8 -61.4404 l 29
860.16 -49.1523 m 29
 860.16 1478.66 l 29
 860.16 -49.1523 l 29
EndSplineSet
Fore
SplineSet
345 207 m 1
 343 196 342 186 342 177 c 0
 342 124 382 102 442 102 c 1
 414 -29 l 1
 273 -29 185 9 185 134 c 0
 185 155 187 177 193 203 c 1
 459 1454 l 1
 610 1454 l 1
 345 207 l 1
EndSplineSet
EndChar

StartChar: braceleft
Encoding: 123 123 132
Width: 747
Flags: HMW
LayerCount: 2
Fore
SplineSet
245 729 m 1
 533 815 523 1276 603 1401 c 1
 692 1526 822 1526 960 1530 c 1
 932 1395 l 1
 918 1397 903 1399 889 1399 c 0
 836 1399 760 1378 725 1339 c 1
 711 1321 701 1282 691 1237 c 0
 688 1223 684 1208 681 1192 c 0
 655 1071 567 770 458 729 c 1
 500 712 513 632 513 542 c 0
 513 433 493 306 479 238 c 0
 469 195 l 0
 461 159 456 129 457 108 c 0
 456 100 457 93 459 88 c 1
 478 49 545 29 598 29 c 0
 612 29 628 31 642 33 c 1
 613 -102 l 1
 477 -98 346 -98 311 27 c 1
 309 34 308 43 308 53 c 0
 308 147 370 339 370 497 c 0
 370 606 342 698 245 729 c 1
EndSplineSet
EndChar

StartChar: bar
Encoding: 124 124 133
Width: 368
Flags: HMW
LayerCount: 2
Fore
SplineSet
125 0 m 17
 434 1454 l 1
 577 1454 l 1
 268 0 l 9
 125 0 l 17
EndSplineSet
EndChar

StartChar: braceright
Encoding: 125 125 134
Width: 747
Flags: HMW
LayerCount: 2
Fore
SplineSet
833 729 m 1
 546 647 550 158 470 33 c 1
 381 -92 251 -92 113 -96 c 1
 141 39 l 1
 155 37 169 35 183 35 c 0
 236 35 313 55 348 94 c 1
 362 113 373 152 383 201 c 0
 392 244 l 0
 419 371 512 692 620 729 c 1
 576 748 562 826 562 915 c 0
 562 1015 579 1128 593 1192 c 0
 596 1208 600 1223 603 1237 c 0
 610 1269 615 1299 615 1319 c 0
 615 1327 615 1334 613 1339 c 1
 594 1378 526 1399 473 1399 c 0
 459 1399 444 1397 430 1395 c 1
 458 1530 l 1
 594 1526 726 1526 761 1401 c 1
 762 1393 763 1384 763 1373 c 0
 763 1283 706 1106 707 958 c 0
 707 853 735 763 833 729 c 1
EndSplineSet
EndChar

StartChar: asciitilde
Encoding: 126 126 135
Width: 735
Flags: HMW
LayerCount: 2
Fore
SplineSet
225 764 m 17
 279 801 351 860 429 860 c 0
 527 860 559 709 663 709 c 1
 733 709 801 762 872 807 c 9
 841 662 l 17
 770 614 706 563 632 563 c 0
 517 563 478 715 396 715 c 0
 318 715 260 664 194 618 c 9
 225 764 l 17
EndSplineSet
EndChar

StartChar: exclamdown
Encoding: 161 161 136
Width: 309
Flags: HMW
LayerCount: 2
Fore
SplineSet
536 1360 m 0
 523 1300 464 1252 405 1252 c 0
 353 1252 318 1289 318 1337 c 0
 318 1345 319 1352 321 1360 c 0
 334 1419 392 1467 451 1467 c 0
 503 1467 538 1431 538 1382 c 0
 539 1375 537 1367 536 1360 c 0
285 1014 m 1
 292 1048 326 1073 355 1073 c 1
 383 1072 403 1054 403 1027 c 0
 403 1023 403 1018 402 1014 c 1
 241 65 l 1
 230 12 174 -29 123 -29 c 1
 76 -29 40 5 40 47 c 0
 40 52 40 58 41 63 c 1
 285 1014 l 1
EndSplineSet
EndChar

StartChar: cent
Encoding: 162 162 137
Width: 808
Flags: HMW
LayerCount: 2
Fore
SplineSet
440 279 m 1
 303 296 208 394 208 560 c 0
 208 590 213 623 220 657 c 0
 266 872 457 963 588 993 c 1
 634 1208 l 1
 769 1208 l 1
 723 993 l 1
 799 973 854 928 898 881 c 9
 855 844 788 786 788 786 c 0
 765 815 723 866 618 866 c 1
 508 866 389 778 362 653 c 0
 357 628 355 604 354 582 c 0
 354 471 420 406 526 406 c 0
 608 406 685 438 758 512 c 9
 829 422 l 1
 774 356 679 305 574 274 c 1
 533 78 l 1
 398 78 l 1
 440 279 l 1
EndSplineSet
EndChar

StartChar: sterling
Encoding: 163 163 138
Width: 1120
Flags: HMW
LayerCount: 2
Fore
SplineSet
438 596 m 1
 211 596 l 1
 239 731 l 1
 477 731 l 1
 577 1200 711 1466 908 1466 c 0
 1051 1466 1142 1376 1172 1169 c 1
 1027 1163 l 1
 1024 1245 985 1333 879 1333 c 0
 813 1333 708 1094 674 934 c 0
 667 903 654 842 647 809 c 0
 641 782 636 758 630 731 c 1
 989 731 l 1
 961 596 l 1
 596 596 l 1
 553 444 456 253 391 135 c 1
 895 135 l 1
 928 137 964 139 1027 207 c 1
 1083 92 l 1
 1021 20 937 12 854 0 c 1
 145 0 l 1
 206 131 379 380 438 596 c 1
EndSplineSet
EndChar

StartChar: currency
Encoding: 164 164 139
Width: 856
Flags: HMW
LayerCount: 2
Fore
SplineSet
422 764 m 0
 419 751 418 738 418 726 c 0
 418 644 478 583 565 583 c 0
 665 583 762 664 783 764 c 0
 786 777 787 790 787 802 c 0
 787 884 729 945 642 945 c 0
 541 945 443 864 422 764 c 0
723 504 m 1
 665 469 599 449 533 449 c 0
 468 449 411 469 367 504 c 1
 340 375 l 1
 143 375 l 1
 184 571 l 1
 311 571 l 1
 291 608 280 651 280 698 c 0
 280 700 280 703 280 705 c 0
 280 723 283 742 287 762 c 0
 302 831 337 895 385 946 c 1
 264 946 l 1
 306 1143 l 1
 503 1143 l 1
 477 1020 l 1
 535 1055 601 1075 666 1075 c 0
 732 1075 789 1055 833 1020 c 1
 859 1143 l 1
 1056 1143 l 1
 1014 946 l 1
 893 946 l 1
 911 912 920 872 921 828 c 0
 921 807 919 785 914 762 c 0
 899 690 859 625 807 571 c 1
 934 571 l 1
 893 375 l 1
 696 375 l 1
 723 504 l 1
EndSplineSet
EndChar

StartChar: yen
Encoding: 165 165 140
Width: 1110
Flags: HMW
LayerCount: 2
Fore
SplineSet
616 682 m 1
 305 682 l 1
 334 817 l 1
 592 817 l 1
 371 1397 l 1
 526 1397 l 1
 730 831 l 1
 1194 1397 l 1
 1350 1397 l 1
 854 817 l 1
 1102 817 l 1
 1073 682 l 1
 768 682 l 1
 722 467 l 1
 1027 467 l 1
 999 332 l 1
 694 332 l 1
 623 0 l 1
 471 0 l 1
 542 332 l 1
 231 332 l 1
 259 467 l 1
 570 467 l 1
 616 682 l 1
EndSplineSet
EndChar

StartChar: brokenbar
Encoding: 166 166 141
Width: 305
Flags: HMW
LayerCount: 2
Fore
SplineSet
370 645 m 17
 233 0 l 1
 90 0 l 1
 227 645 l 9
 370 645 l 17
257 788 m 17
 395 1434 l 1
 538 1434 l 1
 400 788 l 9
 257 788 l 17
EndSplineSet
EndChar

StartChar: section
Encoding: 167 167 142
Width: 686
Flags: HMW
LayerCount: 2
Fore
SplineSet
390 958 m 1
 410 964 433 967 458 967 c 0
 638 967 790 827 790 623 c 0
 790 594 788 562 781 530 c 0
 734 307 548 104 372 104 c 0
 253 104 166 153 113 291 c 9
 265 301 l 17
 283 264 346 240 385 240 c 2
 389 240 l 2
 487 240 572 328 616 440 c 0
 616 442 l 0
 617 445 615 445 612 445 c 0
 600 445 567 432 549 432 c 0
 374 432 215 540 215 759 c 0
 215 794 219 832 228 872 c 0
 274 1090 445 1294 633 1294 c 0
 769 1294 819 1245 883 1130 c 1
 726 1114 l 0
 708 1141 654 1159 621 1159 c 2
 617 1159 l 2
 510 1159 439 1069 390 958 c 1
630 582 m 0
 633 596 634 611 634 625 c 0
 634 729 558 831 427 831 c 0
 404 831 387 827 369 817 c 1
 366 805 365 793 364 781 c 0
 364 674 463 567 572 567 c 0
 577 567 583 567 590 567 c 0
 608 567 627 569 630 582 c 0
EndSplineSet
EndChar

StartChar: dieresis
Encoding: 168 168 143
Width: 794
Flags: HMW
LayerCount: 2
Fore
SplineSet
434 1683 m 0
 439 1708 453 1730 476 1749 c 0
 499 1768 523 1777 548 1777 c 0
 570 1777 588 1770 602 1756 c 0
 616 1742 623 1723 624 1702 c 0
 624 1697 624 1691 622 1683 c 0
 616 1657 602 1635 579 1616 c 0
 556 1597 533 1588 508 1588 c 0
 486 1588 467 1596 453 1610 c 0
 439 1624 432 1643 432 1666 c 0
 432 1670 432 1675 434 1683 c 0
905 1685 m 0
 910 1710 924 1732 947 1751 c 0
 970 1770 994 1779 1019 1779 c 0
 1041 1779 1060 1772 1074 1758 c 0
 1088 1744 1094 1725 1095 1704 c 0
 1095 1699 1095 1693 1093 1685 c 0
 1087 1659 1074 1637 1051 1618 c 0
 1028 1599 1004 1590 979 1590 c 0
 957 1590 939 1598 925 1612 c 0
 911 1626 903 1644 903 1666 c 0
 904 1674 904 1680 905 1685 c 0
EndSplineSet
EndChar

StartChar: copyright
Encoding: 169 169 144
Width: 942
Flags: HMW
LayerCount: 2
Fore
SplineSet
759 610 m 17
 714 573 652 543 594 543 c 0
 495 543 427 612 427 706 c 0
 427 720 428 735 431 750 c 0
 455 864 568 956 682 956 c 0
 740 956 791 934 820 897 c 9
 724 815 l 17
 708 831 685 844 658 844 c 0
 607 844 555 801 544 750 c 0
 543 743 542 737 542 731 c 0
 542 688 574 655 618 655 c 0
 645 655 679 666 700 682 c 9
 759 610 l 17
317 750 m 0
 312 726 310 704 310 682 c 0
 310 536 415 426 570 426 c 0
 748 426 922 571 960 750 c 0
 965 773 967 796 968 818 c 0
 968 963 862 1073 707 1073 c 0
 529 1073 355 928 317 750 c 0
200 750 m 0
 251 991 491 1188 732 1188 c 0
 943 1188 1087 1039 1087 841 c 0
 1087 811 1084 781 1077 750 c 0
 1026 508 787 311 545 311 c 0
 335 311 191 460 191 658 c 0
 191 660 191 663 191 665 c 0
 191 693 194 721 200 750 c 0
EndSplineSet
EndChar

StartChar: guillemotleft
Encoding: 171 171 145
Width: 872
Flags: HMW
LayerCount: 2
Fore
SplineSet
891 1118 m 1
 1026 1118 l 1
 772 827 l 1
 902 537 l 1
 767 537 l 1
 637 827 l 1
 891 1118 l 1
490 1118 m 1
 625 1118 l 1
 371 827 l 1
 501 537 l 1
 366 537 l 1
 235 827 l 1
 490 1118 l 1
EndSplineSet
EndChar

StartChar: logicalnot
Encoding: 172 172 146
Width: 1026
Flags: HMW
LayerCount: 2
Fore
SplineSet
1036 545 m 1
 900 545 l 1
 943 750 l 0
 313 750 l 1
 344 893 l 1
 1110 893 l 1
 1036 545 l 1
EndSplineSet
EndChar

StartChar: softhyphen
Encoding: 173 173 147
Width: 950
Flags: HMW
LayerCount: 2
Fore
SplineSet
295 877 m 1
 972 877 l 1
 942 735 l 1
 265 735 l 1
 295 877 l 1
EndSplineSet
EndChar

StartChar: registered
Encoding: 174 174 148
Width: 1189
Flags: HMW
LayerCount: 2
Fore
SplineSet
370 750 m 0
 363 716 359 685 359 656 c 0
 359 451 526 358 678 358 c 0
 856 358 1101 500 1154 750 c 0
 1160 780 1164 809 1164 836 c 0
 1165 1046 981 1143 845 1143 c 0
 667 1143 427 1016 370 750 c 0
253 750 m 0
 328 1102 647 1260 870 1260 c 0
 1110 1260 1283 1097 1284 861 c 0
 1283 825 1279 788 1271 750 c 0
 1206 446 909 242 653 242 c 0
 446 242 240 375 240 634 c 0
 240 670 244 709 253 750 c 0
678 801 m 1
 694 801 711 801 729 801 c 0
 807 801 884 807 897 866 c 1
 898 870 897 874 898 877 c 0
 898 928 811 932 735 932 c 0
 724 932 714 932 706 932 c 1
 678 801 l 1
641 1010 m 0
 723 1010 l 2
 865 1010 979 978 979 885 c 0
 979 879 979 873 977 866 c 0
 956 766 878 750 809 735 c 1
 920 496 l 1
 820 496 l 1
 727 723 l 1
 661 721 l 1
 613 496 l 1
 531 496 l 1
 641 1010 l 0
EndSplineSet
EndChar

StartChar: macron
Encoding: 175 175 149
Width: 950
Flags: HMW
LayerCount: 2
Fore
SplineSet
469 1321 m 1
 1146 1321 l 1
 1123 1215 l 1
 446 1215 l 1
 469 1321 l 1
EndSplineSet
EndChar

StartChar: degree
Encoding: 176 176 150
Width: 598
Flags: HMW
LayerCount: 2
Fore
SplineSet
417 1178 m 0
 414 1166 413 1154 413 1143 c 0
 413 1076 460 1028 530 1028 c 0
 611 1028 687 1094 705 1178 c 0
 707 1189 709 1201 709 1212 c 0
 709 1279 663 1328 593 1328 c 0
 512 1328 435 1261 417 1178 c 0
299 1174 m 0
 329 1317 470 1432 615 1432 c 0
 744 1432 829 1343 829 1224 c 0
 829 1208 827 1191 823 1174 c 0
 792 1030 651 915 505 915 c 0
 376 915 293 1004 293 1124 c 0
 293 1140 295 1157 299 1174 c 0
EndSplineSet
EndChar

StartChar: plusminus
Encoding: 177 177 151
Width: 983
Flags: HMW
LayerCount: 2
Fore
SplineSet
277 416 m 1
 954 416 l 1
 924 274 l 1
 247 274 l 1
 277 416 l 1
362 998 m 1
 669 998 l 1
 735 1309 l 1
 876 1309 l 1
 810 998 l 1
 1118 998 l 1
 1088 856 l 1
 780 856 l 1
 714 545 l 1
 573 545 l 1
 639 856 l 1
 332 856 l 1
 362 998 l 1
EndSplineSet
EndChar

StartChar: acute
Encoding: 180 180 152
Width: 550
Flags: HMW
LayerCount: 2
Fore
SplineSet
432 1676 m 2
 766 1926 l 1
 785 1939 801 1944 818 1944 c 0
 824 1944 830 1944 836 1942 c 0
 852 1938 863 1928 870 1914 c 1
 876 1905 879 1894 879 1883 c 0
 879 1878 878 1873 877 1868 c 0
 876 1861 872 1856 870 1851 c 0
 863 1836 852 1822 835 1810 c 1
 483 1591 l 2
 474 1585 464 1582 455 1582 c 0
 451 1582 447 1583 442 1584 c 0
 430 1587 420 1594 414 1604 c 1
 410 1612 407 1620 407 1629 c 0
 407 1632 407 1635 408 1639 c 0
 409 1644 411 1649 413 1653 c 0
 417 1661 424 1669 432 1676 c 2
EndSplineSet
EndChar

StartChar: uni00B5
Encoding: 181 181 153
Width: 1003
Flags: HMW
LayerCount: 2
Fore
SplineSet
313 74 m 1
 213 -395 l 1
 70 -395 l 1
 339 872 l 1
 484 872 l 0
 387 414 l 0
 376 363 371 319 371 282 c 0
 371 159 428 111 520 111 c 1
 679 111 789 291 815 414 c 0
 912 872 l 9
 1055 872 l 1
 870 0 l 1
 727 0 l 1
 748 98 l 17
 673 25 580 -27 500 -27 c 0
 377 -27 348 29 313 74 c 1
EndSplineSet
EndChar

StartChar: paragraph
Encoding: 182 182 154
Width: 1150
Flags: HMW
LayerCount: 2
Fore
SplineSet
913 1260 m 1
 804 748 l 1
 839 748 982 739 1019 739 c 1
 1132 1272 l 1
 1097 1272 950 1260 913 1260 c 1
763 1227 m 1
 649 1192 505 1135 475 995 c 0
 471 977 470 960 470 945 c 0
 470 831 575 799 667 774 c 1
 763 1227 l 1
674 135 m 1
 891 135 l 1
 992 612 l 1
 955 612 814 623 777 623 c 1
 674 135 l 1
502 0 m 1
 639 643 l 1
 459 684 324 745 323 912 c 0
 324 938 326 965 332 995 c 0
 390 1266 754 1397 1114 1397 c 1
 1311 1397 l 0
 1014 0 l 1
 502 0 l 1
EndSplineSet
EndChar

StartChar: periodcentered
Encoding: 183 183 155
Width: 438
Flags: HMW
LayerCount: 2
Fore
SplineSet
297 729 m 0
 310 789 369 837 428 837 c 0
 480 837 515 800 515 752 c 0
 515 744 514 737 512 729 c 0
 499 670 441 622 382 622 c 0
 330 622 295 658 295 707 c 0
 294 714 296 722 297 729 c 0
EndSplineSet
EndChar

StartChar: cedilla
Encoding: 184 184 156
Width: 473
Flags: HMW
LayerCount: 2
Fore
SplineSet
77 -190 m 1
 112 -168 185 -123 193 -86 c 0
 194 -81 194 -76 194 -70 c 0
 194 -44 178 -20 160 18 c 0
 301 74 l 0
 329 40 351 -6 352 -60 c 0
 351 -72 351 -85 348 -98 c 0
 324 -209 172 -270 93 -315 c 1
 77 -190 l 1
EndSplineSet
EndChar

StartChar: guillemotright
Encoding: 187 187 157
Width: 933
Flags: HMW
LayerCount: 2
Fore
SplineSet
471 1118 m 1
 602 827 l 1
 347 537 l 1
 212 537 l 1
 467 827 l 1
 336 1118 l 1
 471 1118 l 1
873 1118 m 1
 1003 827 l 1
 749 537 l 1
 614 537 l 1
 868 827 l 1
 738 1118 l 1
 873 1118 l 1
EndSplineSet
EndChar

StartChar: questiondown
Encoding: 191 191 158
Width: 954
Flags: HMW
LayerCount: 2
Fore
SplineSet
832 1309 m 0
 819 1249 760 1201 701 1201 c 0
 649 1201 614 1238 614 1286 c 0
 614 1294 615 1301 617 1309 c 0
 630 1368 688 1416 747 1416 c 0
 799 1416 834 1380 834 1331 c 0
 835 1324 833 1316 832 1309 c 0
569 902 m 1
 599 1043 l 1
 756 1043 l 1
 725 898 l 0
 685 711 542 644 419 551 c 0
 337 489 270 443 242 309 c 0
 237 285 234 263 234 242 c 0
 234 115 326 47 464 47 c 0
 638 47 791 207 815 318 c 1
 955 293 l 1
 884 76 668 -94 441 -94 c 0
 244 -94 73 6 73 213 c 0
 73 242 76 272 83 305 c 0
 113 447 198 541 284 612 c 0
 409 715 534 735 569 902 c 1
EndSplineSet
EndChar

StartChar: Agrave
Encoding: 192 192 159
Width: 1302
Flags: HMW
LayerCount: 2
Fore
SplineSet
1068 1676 m 2
 1074 1669 1077 1661 1077 1653 c 0
 1077 1649 1077 1644 1076 1639 c 0
 1073 1626 1066 1615 1056 1604 c 1
 1046 1594 1034 1587 1020 1584 c 0
 1015 1583 1009 1582 1005 1582 c 0
 996 1582 988 1585 981 1591 c 2
 723 1810 l 1
 712 1822 705 1836 704 1851 c 0
 704 1856 704 1861 705 1868 c 0
 709 1885 718 1901 732 1914 c 1
 745 1928 760 1938 778 1942 c 0
 784 1944 790 1944 796 1944 c 0
 813 1944 827 1939 840 1926 c 1
 1068 1676 l 2
909 1214 m 1
 579 621 l 1
 994 621 l 1
 909 1214 l 1
1002 485 m 1
 505 485 l 0
 240 0 l 0
 64 0 l 1
 897 1456 l 0
 897 1456 974 1456 1024 1456 c 17
 1239 0 l 1
 1059 0 l 1
 1002 485 l 1
EndSplineSet
EndChar

StartChar: Aacute
Encoding: 193 193 160
Width: 1302
Flags: HMW
LayerCount: 2
Fore
SplineSet
935 1676 m 2
 1269 1926 l 1
 1288 1939 1304 1944 1321 1944 c 0
 1327 1944 1333 1944 1339 1942 c 0
 1355 1938 1366 1928 1373 1914 c 1
 1379 1905 1382 1894 1382 1883 c 0
 1382 1878 1381 1873 1380 1868 c 0
 1379 1861 1375 1856 1373 1851 c 0
 1366 1836 1355 1822 1338 1810 c 1
 986 1591 l 2
 977 1585 967 1582 958 1582 c 0
 954 1582 950 1583 945 1584 c 0
 933 1587 923 1594 917 1604 c 1
 911 1615 908 1626 911 1639 c 0
 912 1644 914 1649 916 1653 c 0
 920 1661 927 1669 935 1676 c 2
909 1214 m 1
 579 621 l 1
 994 621 l 1
 909 1214 l 1
1002 485 m 1
 505 485 l 0
 240 0 l 0
 64 0 l 1
 897 1456 l 0
 897 1456 974 1456 1024 1456 c 17
 1239 0 l 1
 1059 0 l 1
 1002 485 l 1
EndSplineSet
EndChar

StartChar: Acircumflex
Encoding: 194 194 161
Width: 1292
Flags: HMW
LayerCount: 2
Fore
SplineSet
927 1214 m 1
 597 621 l 1
 1012 621 l 1
 927 1214 l 1
1020 485 m 1
 523 485 l 0
 258 0 l 0
 82 0 l 1
 915 1456 l 0
 915 1456 992 1456 1042 1456 c 17
 1257 0 l 1
 1077 0 l 1
 1020 485 l 1
1341 1561 m 1
 1153 1561 l 1
 1042 1774 l 1
 839 1563 l 0
 653 1563 l 1
 1003 1905 l 1
 1134 1905 l 1
 1341 1561 l 1
EndSplineSet
EndChar

StartChar: Atilde
Encoding: 195 195 162
Width: 1292
Flags: HMW
LayerCount: 2
Fore
SplineSet
927 1214 m 1
 597 621 l 1
 1012 621 l 1
 927 1214 l 1
1020 485 m 1
 523 485 l 0
 258 0 l 0
 82 0 l 1
 915 1456 l 0
 915 1456 992 1456 1042 1456 c 17
 1257 0 l 1
 1077 0 l 1
 1020 485 l 1
722 1770 m 17
 776 1807 848 1866 926 1866 c 0
 1024 1866 1056 1715 1160 1715 c 1
 1230 1715 1297 1768 1368 1813 c 9
 1338 1668 l 17
 1267 1620 1203 1569 1129 1569 c 0
 1014 1569 975 1721 893 1721 c 0
 815 1721 757 1670 691 1624 c 9
 722 1770 l 17
EndSplineSet
EndChar

StartChar: Adieresis
Encoding: 196 196 163
Width: 1292
Flags: HMW
LayerCount: 2
Fore
SplineSet
927 1214 m 1
 597 621 l 1
 1012 621 l 1
 927 1214 l 1
1020 485 m 1
 523 485 l 0
 258 0 l 0
 82 0 l 1
 915 1456 l 0
 915 1456 992 1456 1042 1456 c 17
 1257 0 l 1
 1077 0 l 1
 1020 485 l 1
692 1682 m 0
 697 1707 711 1729 734 1748 c 0
 757 1767 781 1776 806 1776 c 0
 828 1776 846 1769 860 1755 c 0
 874 1741 881 1722 882 1701 c 0
 882 1696 882 1690 880 1682 c 0
 874 1656 860 1634 837 1615 c 0
 814 1596 790 1587 765 1587 c 0
 743 1587 725 1595 711 1609 c 0
 697 1623 689 1642 689 1665 c 0
 689 1669 690 1674 692 1682 c 0
1163 1684 m 0
 1168 1709 1182 1731 1205 1750 c 0
 1228 1769 1252 1778 1277 1778 c 0
 1299 1778 1317 1771 1331 1757 c 0
 1345 1743 1352 1724 1353 1703 c 0
 1353 1698 1353 1692 1351 1684 c 0
 1345 1658 1332 1636 1309 1617 c 0
 1286 1598 1262 1589 1237 1589 c 0
 1215 1589 1196 1597 1182 1611 c 0
 1168 1625 1161 1643 1161 1665 c 0
 1162 1673 1162 1679 1163 1684 c 0
EndSplineSet
EndChar

StartChar: Aring
Encoding: 197 197 164
Width: 1292
Flags: HMW
LayerCount: 2
Fore
SplineSet
927 1214 m 1
 597 621 l 1
 1012 621 l 1
 927 1214 l 1
1020 485 m 1
 523 485 l 0
 258 0 l 0
 82 0 l 1
 915 1456 l 0
 915 1456 992 1456 1042 1456 c 17
 1257 0 l 1
 1077 0 l 1
 1020 485 l 1
895 1739 m 0
 892 1727 890 1715 890 1704 c 0
 890 1637 937 1589 1007 1589 c 0
 1088 1589 1165 1655 1183 1739 c 0
 1185 1750 1187 1762 1187 1773 c 0
 1187 1840 1141 1889 1071 1889 c 0
 990 1889 913 1822 895 1739 c 0
776 1735 m 0
 806 1878 948 1993 1093 1993 c 0
 1222 1993 1306 1904 1306 1785 c 0
 1306 1769 1304 1752 1300 1735 c 0
 1269 1591 1129 1476 983 1476 c 0
 854 1476 770 1565 770 1685 c 0
 770 1701 772 1718 776 1735 c 0
EndSplineSet
EndChar

StartChar: AE
Encoding: 198 198 165
Width: 1388
Flags: HMW
LayerCount: 2
Fore
SplineSet
922 645 m 1
 658 645 l 0
 262 0 l 0
 83 0 l 1
 983 1456 l 1
 1692 1456 l 1
 1661 1307 l 0
 1219 1307 l 0
 1108 788 l 1
 1550 788 l 1
 1519 641 l 0
 1077 641 l 0
 972 147 l 0
 1414 147 l 1
 1383 0 l 1
 785 0 l 1
 922 645 l 1
1046 1237 m 1
 1062 1311 l 1
 748 788 l 1
 952 788 l 1
 1046 1237 l 1
EndSplineSet
EndChar

StartChar: Ccedilla
Encoding: 199 199 166
Width: 1220
Flags: HMW
LayerCount: 2
Fore
SplineSet
1249 293 m 0
 1154 133 979 -29 714 -29 c 0
 387 -29 249 205 249 497 c 0
 249 570 257 647 274 725 c 0
 357 1114 631 1495 1040 1495 c 0
 1305 1495 1408 1327 1427 1194 c 9
 1366 1178 1269 1153 1269 1153 c 0
 1256 1276 1146 1354 1010 1354 c 1
 1008 1354 l 0
 720 1354 506 1037 440 725 c 0
 426 660 419 597 419 536 c 0
 419 298 527 111 744 111 c 0
 888 111 1045 215 1111 334 c 9
 1165 318 1249 293 1249 293 c 0
510 -299 m 1
 545 -277 619 -232 627 -195 c 0
 628 -190 628 -185 628 -179 c 0
 628 -153 612 -129 594 -91 c 0
 735 -35 l 0
 763 -69 785 -115 786 -169 c 0
 785 -181 785 -194 782 -207 c 0
 758 -318 606 -379 527 -424 c 1
 510 -299 l 1
EndSplineSet
EndChar

StartChar: Egrave
Encoding: 200 200 167
Width: 1142
Flags: HMW
LayerCount: 2
Fore
SplineSet
1100 1676 m 2
 1106 1669 1109 1661 1109 1653 c 0
 1109 1649 1109 1644 1108 1639 c 0
 1105 1626 1098 1615 1088 1604 c 1
 1078 1594 1066 1587 1052 1584 c 0
 1047 1583 1041 1582 1037 1582 c 0
 1028 1582 1020 1585 1013 1591 c 2
 755 1810 l 1
 744 1822 737 1836 736 1851 c 0
 736 1856 736 1861 737 1868 c 0
 741 1885 750 1901 764 1914 c 1
 777 1928 792 1938 810 1942 c 0
 816 1944 822 1944 828 1944 c 0
 845 1944 859 1939 872 1926 c 1
 1100 1676 l 2
430 1456 m 0
 1351 1456 l 1
 1322 1315 l 0
 559 1315 l 0
 453 817 l 1
 1173 817 l 1
 1143 676 l 0
 423 676 l 0
 309 141 l 0
 1072 141 l 0
 1042 0 l 0
 121 0 l 1
 430 1456 l 0
EndSplineSet
EndChar

StartChar: Eacute
Encoding: 201 201 168
Width: 1142
Flags: HMW
LayerCount: 2
Fore
SplineSet
816 1676 m 2
 1150 1926 l 1
 1169 1939 1185 1944 1202 1944 c 0
 1208 1944 1214 1944 1220 1942 c 0
 1236 1938 1247 1928 1254 1914 c 1
 1262 1901 1265 1885 1261 1868 c 0
 1260 1861 1256 1856 1254 1851 c 0
 1247 1836 1236 1822 1219 1810 c 1
 867 1591 l 2
 858 1585 848 1582 839 1582 c 0
 835 1582 831 1583 826 1584 c 0
 814 1587 804 1594 798 1604 c 1
 792 1615 789 1626 792 1639 c 0
 793 1644 795 1649 797 1653 c 0
 801 1661 808 1669 816 1676 c 2
430 1456 m 0
 1351 1456 l 1
 1322 1315 l 0
 559 1315 l 0
 453 817 l 1
 1173 817 l 1
 1143 676 l 0
 423 676 l 0
 309 141 l 0
 1072 141 l 0
 1042 0 l 0
 121 0 l 1
 430 1456 l 0
EndSplineSet
EndChar

StartChar: Ecircumflex
Encoding: 202 202 169
Width: 1146
Flags: HMW
LayerCount: 2
Fore
SplineSet
440 1456 m 0
 1361 1456 l 1
 1332 1315 l 0
 569 1315 l 0
 463 817 l 1
 1183 817 l 1
 1153 676 l 0
 433 676 l 0
 319 141 l 0
 1082 141 l 0
 1052 0 l 0
 131 0 l 1
 440 1456 l 0
1277 1538 m 1
 1089 1538 l 1
 978 1751 l 1
 775 1540 l 0
 589 1540 l 1
 939 1882 l 1
 1070 1882 l 1
 1277 1538 l 1
EndSplineSet
EndChar

StartChar: Edieresis
Encoding: 203 203 170
Width: 1146
Flags: HMW
LayerCount: 2
Fore
SplineSet
440 1456 m 0
 1361 1456 l 1
 1332 1315 l 0
 569 1315 l 0
 463 817 l 1
 1183 817 l 1
 1153 676 l 0
 433 676 l 0
 319 141 l 0
 1082 141 l 0
 1052 0 l 0
 131 0 l 1
 440 1456 l 0
627 1700 m 0
 632 1725 646 1747 669 1766 c 0
 692 1785 716 1794 741 1794 c 0
 763 1794 782 1787 796 1773 c 0
 810 1759 816 1740 817 1719 c 0
 817 1714 817 1708 815 1700 c 0
 809 1674 796 1652 773 1633 c 0
 750 1614 726 1605 701 1605 c 0
 679 1605 661 1613 647 1627 c 0
 633 1641 625 1660 625 1683 c 0
 625 1687 625 1692 627 1700 c 0
1099 1702 m 0
 1104 1727 1118 1749 1141 1768 c 0
 1164 1787 1188 1796 1213 1796 c 0
 1235 1796 1253 1789 1267 1775 c 0
 1281 1761 1288 1742 1289 1721 c 0
 1289 1716 1289 1710 1287 1702 c 0
 1281 1676 1268 1654 1245 1635 c 0
 1222 1616 1198 1607 1173 1607 c 0
 1151 1607 1132 1615 1118 1629 c 0
 1104 1643 1097 1661 1097 1683 c 0
 1098 1691 1098 1697 1099 1702 c 0
EndSplineSet
EndChar

StartChar: Igrave
Encoding: 204 204 171
Width: 444
Flags: HMW
LayerCount: 2
Fore
SplineSet
648 1676 m 2
 654 1668 657 1660 657 1650 c 0
 657 1647 657 1643 656 1639 c 0
 653 1626 646 1615 636 1604 c 1
 626 1594 614 1587 600 1584 c 0
 595 1583 589 1582 585 1582 c 0
 576 1582 568 1585 561 1591 c 2
 303 1810 l 1
 292 1822 285 1836 284 1851 c 0
 284 1856 284 1861 285 1868 c 0
 289 1885 298 1901 312 1914 c 1
 325 1928 340 1938 358 1942 c 0
 364 1944 370 1944 376 1944 c 0
 393 1944 407 1939 420 1926 c 1
 648 1676 l 2
154 0 m 1
 463 1456 l 1
 620 1456 l 1
 311 0 l 1
 154 0 l 1
EndSplineSet
EndChar

StartChar: Iacute
Encoding: 205 205 172
Width: 440
Flags: HMW
LayerCount: 2
Fore
SplineSet
536 1676 m 2
 870 1926 l 1
 889 1939 905 1944 922 1944 c 0
 928 1944 934 1944 940 1942 c 0
 956 1938 967 1928 974 1914 c 1
 980 1905 983 1894 983 1883 c 0
 983 1878 982 1873 981 1868 c 0
 980 1861 976 1856 974 1851 c 0
 967 1836 956 1822 939 1810 c 1
 587 1591 l 2
 578 1585 568 1582 559 1582 c 0
 555 1582 551 1583 546 1584 c 0
 534 1587 524 1594 518 1604 c 1
 512 1615 509 1626 512 1639 c 0
 513 1644 515 1649 517 1653 c 0
 521 1661 528 1669 536 1676 c 2
164 0 m 1
 473 1456 l 1
 630 1456 l 1
 321 0 l 1
 164 0 l 1
EndSplineSet
EndChar

StartChar: Icircumflex
Encoding: 206 206 173
Width: 440
Flags: HMW
LayerCount: 2
Fore
SplineSet
164 0 m 1
 473 1456 l 1
 630 1456 l 1
 321 0 l 1
 164 0 l 1
914 1550 m 1
 726 1550 l 1
 616 1763 l 1
 413 1552 l 0
 227 1552 l 1
 577 1894 l 1
 708 1894 l 1
 914 1550 l 1
EndSplineSet
EndChar

StartChar: Idieresis
Encoding: 207 207 174
Width: 440
Flags: HMW
LayerCount: 2
Fore
SplineSet
164 0 m 1
 473 1456 l 1
 630 1456 l 1
 321 0 l 1
 164 0 l 1
268 1684 m 0
 273 1709 287 1731 310 1750 c 0
 333 1769 357 1778 382 1778 c 0
 404 1778 422 1771 436 1757 c 0
 450 1743 457 1724 458 1703 c 0
 458 1698 458 1692 456 1684 c 0
 450 1658 437 1636 414 1617 c 0
 391 1598 367 1589 342 1589 c 0
 320 1589 301 1597 287 1611 c 0
 273 1625 266 1644 266 1667 c 0
 266 1671 266 1676 268 1684 c 0
739 1686 m 0
 744 1711 758 1733 781 1752 c 0
 804 1771 828 1780 853 1780 c 0
 875 1780 894 1773 908 1759 c 0
 922 1745 928 1726 929 1705 c 0
 929 1700 929 1694 927 1686 c 0
 921 1660 908 1638 885 1619 c 0
 862 1600 838 1591 813 1591 c 0
 791 1591 773 1599 759 1613 c 0
 745 1627 737 1645 737 1667 c 0
 738 1675 738 1681 739 1686 c 0
EndSplineSet
EndChar

StartChar: Eth
Encoding: 208 208 175
Width: 1378
Flags: HMW
LayerCount: 2
Fore
SplineSet
467 662 m 1
 285 662 l 1
 315 803 l 1
 497 803 l 1
 635 1456 l 1
 1016 1456 l 1
 1319 1456 1488 1236 1488 929 c 0
 1488 865 1480 796 1465 726 c 0
 1378 319 1067 0 707 0 c 0
 481 0 l 1
 326 0 l 1
 467 662 l 1
624 662 m 1
 513 143 l 1
 737 143 l 1
 994 143 1234 379 1308 726 c 1
 1321 788 1328 845 1328 899 c 0
 1328 1150 1199 1312 986 1312 c 2
 762 1312 l 1
 654 803 l 1
 954 803 l 1
 924 662 l 1
 624 662 l 1
EndSplineSet
EndChar

StartChar: Ntilde
Encoding: 209 209 176
Width: 1292
Flags: HMW
LayerCount: 2
Fore
SplineSet
131 0 m 1
 440 1456 l 2
 593 1456 l 1
 1087 295 l 25
 1333 1456 l 1
 1490 1456 l 1
 1181 0 l 0
 1036 0 l 1
 542 1190 l 0
 289 0 l 1
 131 0 l 1
734 1749 m 17
 788 1786 859 1845 937 1845 c 0
 1035 1845 1067 1694 1171 1694 c 1
 1241 1694 1309 1747 1380 1792 c 9
 1349 1647 l 17
 1278 1599 1214 1548 1140 1548 c 0
 1025 1548 986 1700 904 1700 c 0
 826 1700 769 1649 703 1603 c 9
 734 1749 l 17
EndSplineSet
EndChar

StartChar: Ugrave
Encoding: 217 217 177
Width: 1265
Flags: HMW
LayerCount: 2
Fore
SplineSet
1064 1676 m 2
 1070 1669 1073 1661 1073 1653 c 0
 1073 1649 1073 1644 1072 1639 c 0
 1069 1626 1062 1615 1052 1604 c 1
 1042 1594 1030 1587 1016 1584 c 0
 1011 1583 1005 1582 1001 1582 c 0
 992 1582 984 1585 977 1591 c 2
 719 1810 l 1
 708 1822 701 1836 700 1851 c 0
 700 1856 700 1861 701 1868 c 0
 705 1885 714 1901 728 1914 c 1
 741 1928 756 1938 774 1942 c 0
 780 1944 786 1944 792 1944 c 0
 809 1944 823 1939 836 1926 c 1
 1064 1676 l 2
1313 1456 m 1
 1474 1456 l 1
 1302 645 l 1
 1212 223 965 -29 637 -29 c 0
 373 -29 231 132 231 415 c 0
 231 485 240 562 258 645 c 1
 430 1456 l 1
 592 1456 l 1
 420 645 l 1
 404 572 397 508 397 450 c 0
 397 217 509 113 667 113 c 0
 862 113 1062 274 1141 645 c 1
 1313 1456 l 1
EndSplineSet
EndChar

StartChar: Uacute
Encoding: 218 218 178
Width: 1265
Flags: HMW
LayerCount: 2
Fore
SplineSet
908 1676 m 2
 1242 1926 l 1
 1261 1939 1277 1944 1294 1944 c 0
 1300 1944 1306 1944 1312 1942 c 0
 1328 1938 1339 1928 1346 1914 c 1
 1354 1901 1357 1885 1353 1868 c 0
 1352 1861 1348 1856 1346 1851 c 0
 1339 1836 1328 1822 1311 1810 c 1
 959 1591 l 2
 950 1585 940 1582 931 1582 c 0
 927 1582 923 1583 918 1584 c 0
 906 1587 896 1594 890 1604 c 1
 884 1615 881 1626 884 1639 c 0
 885 1644 887 1649 889 1653 c 0
 893 1661 900 1669 908 1676 c 2
1313 1456 m 1
 1474 1456 l 1
 1302 645 l 1
 1212 223 965 -29 637 -29 c 0
 373 -29 231 132 231 415 c 0
 231 485 240 562 258 645 c 1
 430 1456 l 1
 592 1456 l 1
 420 645 l 1
 404 572 397 508 397 450 c 0
 397 217 509 113 667 113 c 0
 862 113 1062 274 1141 645 c 1
 1313 1456 l 1
EndSplineSet
EndChar

StartChar: agrave
Encoding: 224 224 179
Width: 996
Flags: HMW
LayerCount: 2
Fore
SplineSet
888 1329 m 2
 894 1322 898 1314 898 1306 c 0
 898 1302 898 1297 897 1292 c 0
 894 1279 886 1268 876 1257 c 1
 866 1247 854 1240 840 1237 c 0
 835 1236 830 1235 826 1235 c 0
 817 1235 808 1238 801 1244 c 2
 543 1463 l 1
 532 1475 526 1489 525 1504 c 0
 525 1509 524 1514 525 1521 c 0
 529 1538 538 1554 552 1567 c 1
 565 1581 580 1591 598 1595 c 0
 604 1597 610 1597 616 1597 c 0
 633 1597 648 1592 661 1579 c 1
 888 1329 l 2
613 582 m 0
 462 582 338 473 311 344 c 0
 307 326 305 308 305 292 c 0
 305 182 388 106 512 106 c 0
 639 106 772 211 800 344 c 0
 804 361 805 377 805 393 c 0
 805 508 713 582 613 582 c 0
609 717 m 0
 764 717 842 610 844 559 c 1
 864 655 l 1
 872 692 876 725 876 756 c 0
 876 883 810 954 684 954 c 0
 590 954 497 922 442 877 c 1
 387 981 l 1
 469 1038 570 1090 713 1090 c 0
 892 1090 1019 982 1019 779 c 0
 1019 741 1014 700 1005 655 c 2
 979 532 l 2
 866 0 l 1
 727 0 l 1
 760 156 l 0
 761 158 l 1
 745 109 605 -29 450 -29 c 0
 267 -29 147 79 147 253 c 0
 147 282 150 312 157 344 c 0
 203 559 404 717 609 717 c 0
EndSplineSet
EndChar

StartChar: aacute
Encoding: 225 225 180
Width: 996
Flags: HMW
LayerCount: 2
Fore
SplineSet
693 1329 m 2
 1028 1579 l 1
 1047 1592 1062 1597 1079 1597 c 0
 1085 1597 1091 1597 1097 1595 c 0
 1113 1591 1124 1581 1131 1567 c 1
 1137 1558 1140 1547 1140 1536 c 0
 1140 1531 1139 1526 1138 1521 c 0
 1137 1514 1134 1509 1132 1504 c 0
 1125 1489 1113 1475 1096 1463 c 1
 744 1244 l 2
 735 1238 726 1235 717 1235 c 0
 713 1235 708 1236 703 1237 c 0
 691 1240 681 1247 675 1257 c 1
 669 1268 667 1279 670 1292 c 0
 671 1297 673 1302 675 1306 c 0
 679 1314 685 1322 693 1329 c 2
613 582 m 0
 462 582 338 473 311 344 c 0
 307 326 305 308 305 292 c 0
 305 182 388 106 512 106 c 0
 639 106 772 211 800 344 c 0
 804 361 805 377 805 393 c 0
 805 508 713 582 613 582 c 0
609 717 m 0
 764 717 842 610 844 559 c 1
 864 655 l 1
 872 692 876 725 876 756 c 0
 876 883 810 954 684 954 c 0
 590 954 497 922 442 877 c 1
 387 981 l 1
 469 1038 570 1090 713 1090 c 0
 892 1090 1019 982 1019 779 c 0
 1019 741 1014 700 1005 655 c 2
 979 532 l 2
 866 0 l 1
 727 0 l 1
 760 156 l 0
 761 158 l 1
 745 109 605 -29 450 -29 c 0
 267 -29 147 79 147 253 c 0
 147 282 150 312 157 344 c 0
 203 559 404 717 609 717 c 0
EndSplineSet
EndChar

StartChar: ccedilla
Encoding: 231 231 181
Width: 1011
Flags: HMW
LayerCount: 2
Fore
SplineSet
927 809 m 1
 919 866 853 958 751 958 c 1
 585 958 406 784 353 537 c 0
 342 487 338 441 338 399 c 0
 338 216 431 106 568 106 c 0
 692 106 789 217 820 264 c 9
 926 187 l 1
 844 86 704 -29 539 -29 c 1
 317 -29 184 147 184 386 c 0
 184 434 189 485 200 537 c 0
 261 823 493 1094 780 1094 c 0
 942 1094 1032 993 1072 875 c 1
 927 809 l 1
323 -294 m 1
 358 -272 431 -227 439 -190 c 0
 440 -185 440 -180 440 -174 c 0
 440 -148 424 -124 406 -86 c 0
 547 -30 l 0
 575 -64 597 -110 598 -164 c 0
 597 -176 597 -189 594 -202 c 0
 570 -313 418 -374 339 -419 c 1
 323 -294 l 1
EndSplineSet
EndChar

StartChar: ntilde
Encoding: 241 241 182
Width: 1044
Flags: HMW
LayerCount: 2
Fore
SplineSet
291 0 m 9
 139 0 l 1
 367 1073 l 1
 519 1073 l 1
 481 892 l 17
 540 1004 672 1102 830 1102 c 0
 997 1102 1108 999 1108 766 c 0
 1108 701 1099 626 1081 541 c 2
 966 0 l 1
 815 0 l 0
 930 541 l 1
 943 604 951 664 951 718 c 0
 951 864 897 965 761 965 c 0
 575 965 454 768 406 540 c 0
 291 0 l 9
492 1364 m 17
 546 1401 617 1460 695 1460 c 0
 793 1460 825 1309 929 1309 c 1
 999 1309 1067 1362 1138 1407 c 9
 1107 1262 l 17
 1036 1214 972 1163 898 1163 c 0
 783 1163 745 1315 663 1315 c 0
 585 1315 527 1264 461 1218 c 9
 492 1364 l 17
EndSplineSet
EndChar

StartChar: ugrave
Encoding: 249 249 183
Width: 996
Flags: HMW
LayerCount: 2
Fore
SplineSet
847 1329 m 2
 853 1322 857 1314 857 1306 c 0
 857 1302 857 1297 856 1292 c 0
 853 1279 845 1268 835 1257 c 1
 825 1247 813 1240 799 1237 c 0
 794 1236 789 1235 785 1235 c 0
 776 1235 767 1238 760 1244 c 2
 502 1463 l 1
 491 1475 485 1489 484 1504 c 0
 484 1509 483 1514 484 1521 c 0
 488 1538 497 1554 511 1567 c 1
 524 1581 539 1591 557 1595 c 0
 563 1597 569 1597 575 1597 c 0
 592 1597 607 1592 620 1579 c 1
 847 1329 l 2
1023 1073 m 9
 1175 1073 l 1
 947 0 l 1
 795 0 l 1
 833 181 l 17
 774 69 642 -29 484 -29 c 0
 317 -29 206 74 206 307 c 0
 206 372 215 447 233 532 c 2
 348 1073 l 1
 499 1073 l 0
 384 532 l 1
 371 469 363 409 363 355 c 0
 363 209 417 108 553 108 c 0
 739 108 860 305 908 533 c 0
 1023 1073 l 9
EndSplineSet
EndChar

StartChar: uacute
Encoding: 250 250 184
Width: 996
Flags: HMW
LayerCount: 2
Fore
SplineSet
754 1329 m 2
 1089 1579 l 1
 1108 1592 1123 1597 1140 1597 c 0
 1146 1597 1152 1597 1158 1595 c 0
 1174 1591 1185 1581 1192 1567 c 1
 1200 1554 1203 1538 1199 1521 c 0
 1198 1514 1195 1509 1193 1504 c 0
 1186 1489 1174 1475 1157 1463 c 1
 805 1244 l 2
 796 1238 787 1235 778 1235 c 0
 774 1235 769 1236 764 1237 c 0
 752 1240 742 1247 736 1257 c 1
 730 1268 728 1279 731 1292 c 0
 732 1297 734 1302 736 1306 c 0
 740 1314 746 1322 754 1329 c 2
1065 1073 m 9
 1217 1073 l 1
 989 0 l 1
 837 0 l 1
 875 181 l 17
 816 69 684 -29 526 -29 c 0
 359 -29 248 74 248 307 c 0
 248 372 257 447 275 532 c 2
 390 1073 l 1
 541 1073 l 0
 426 532 l 1
 413 469 405 409 405 355 c 0
 405 209 459 108 595 108 c 0
 781 108 902 305 950 533 c 0
 1065 1073 l 9
EndSplineSet
EndChar

StartChar: figuredash
Encoding: 8210 8210 185
Width: 1087
Flags: HMW
LayerCount: 2
Fore
SplineSet
314 676 m 1
 1082 676 l 1
 1053 541 l 1
 285 541 l 1
 314 676 l 1
EndSplineSet
EndChar

StartChar: endash
Encoding: 8211 8211 186
Width: 1001
Flags: HMW
LayerCount: 2
Fore
SplineSet
314 676 m 1
 1000 676 l 1
 971 541 l 1
 285 541 l 1
 314 676 l 1
EndSplineSet
EndChar

StartChar: emdash
Encoding: 8212 8212 187
Width: 1290
Flags: HMW
LayerCount: 2
Fore
SplineSet
294 676 m 1
 1303 676 l 1
 1274 541 l 1
 265 541 l 1
 294 676 l 1
EndSplineSet
EndChar

StartChar: quoteleft
Encoding: 8216 8216 188
Width: 385
Flags: HMW
LayerCount: 2
Fore
SplineSet
338 1200 m 1
 371 1357 499 1480 528 1515 c 1
 577 1484 l 1
 550 1454 483 1378 468 1306 c 0
 520 1306 555 1271 555 1222 c 0
 556 1215 554 1207 553 1200 c 0
 540 1140 481 1092 422 1092 c 0
 370 1092 335 1129 335 1177 c 0
 335 1185 336 1192 338 1200 c 1
EndSplineSet
EndChar

StartChar: quoteright
Encoding: 8217 8217 189
Width: 385
Flags: HMW
LayerCount: 2
Fore
SplineSet
608 1401 m 1
 575 1244 447 1121 418 1086 c 1
 368 1117 l 1
 395 1147 463 1223 478 1295 c 0
 426 1295 391 1330 391 1379 c 0
 390 1386 392 1394 393 1401 c 0
 406 1461 465 1509 524 1509 c 0
 576 1509 611 1472 611 1424 c 0
 611 1416 610 1409 608 1401 c 1
EndSplineSet
EndChar

StartChar: quotesinglbase
Encoding: 8218 8218 190
Width: 385
Flags: HMW
LayerCount: 2
Fore
SplineSet
338 111 m 1
 305 -46 177 -169 148 -204 c 1
 98 -173 l 1
 125 -143 193 -67 208 5 c 0
 156 5 121 40 121 89 c 0
 120 96 122 104 123 111 c 0
 136 171 195 219 254 219 c 0
 306 219 340 182 340 134 c 0
 340 126 340 119 338 111 c 1
EndSplineSet
EndChar

StartChar: quotereversed
Encoding: 8219 8219 191
Width: 385
Flags: HMW
LayerCount: 2
Fore
SplineSet
361 1200 m 1
 394 1357 522 1480 551 1515 c 1
 600 1484 l 1
 573 1454 506 1378 491 1306 c 0
 543 1306 578 1271 578 1222 c 0
 579 1215 577 1207 576 1200 c 0
 563 1140 504 1092 445 1092 c 0
 393 1092 358 1129 358 1177 c 0
 358 1185 359 1192 361 1200 c 1
EndSplineSet
EndChar

StartChar: quotedblleft
Encoding: 8220 8220 192
Width: 677
Flags: HMW
LayerCount: 2
Fore
SplineSet
336 1202 m 1
 369 1359 497 1482 526 1517 c 1
 576 1486 l 1
 549 1456 481 1380 466 1308 c 0
 518 1308 553 1273 553 1224 c 0
 554 1217 552 1209 551 1202 c 0
 538 1142 480 1094 421 1094 c 0
 369 1094 334 1131 334 1179 c 0
 334 1187 334 1194 336 1202 c 1
666 1200 m 1
 699 1357 827 1480 856 1515 c 1
 905 1484 l 1
 878 1454 811 1378 796 1306 c 0
 848 1306 883 1271 883 1222 c 0
 884 1215 882 1207 881 1200 c 0
 868 1140 809 1092 750 1092 c 0
 698 1092 663 1129 663 1177 c 0
 663 1185 664 1192 666 1200 c 1
EndSplineSet
EndChar

StartChar: quotedblright
Encoding: 8221 8221 193
Width: 677
Flags: HMW
LayerCount: 2
Fore
SplineSet
610 1403 m 1
 577 1246 449 1123 420 1088 c 1
 371 1119 l 1
 398 1149 466 1225 481 1297 c 0
 429 1297 394 1332 394 1381 c 0
 393 1388 394 1396 395 1403 c 0
 408 1463 467 1511 526 1511 c 0
 578 1511 613 1474 613 1426 c 0
 613 1418 612 1411 610 1403 c 1
938 1401 m 1
 905 1244 777 1121 748 1086 c 1
 698 1117 l 1
 725 1147 793 1223 808 1295 c 0
 756 1295 721 1330 721 1379 c 0
 720 1386 722 1394 723 1401 c 0
 736 1461 795 1509 854 1509 c 0
 906 1509 941 1472 941 1424 c 0
 941 1416 940 1409 938 1401 c 1
EndSplineSet
EndChar

StartChar: Abreve
Encoding: 258 258 196
Width: 1302
Flags: HMW
LayerCount: 2
Fore
SplineSet
909 1214 m 1
 579 621 l 1
 994 621 l 1
 909 1214 l 1
1002 485 m 1
 505 485 l 0
 240 0 l 0
 64 0 l 1
 897 1456 l 0
 897 1456 974 1456 1024 1456 c 17
 1239 0 l 1
 1059 0 l 1
 1002 485 l 1
1010 1648 m 1
 1047 1650 1080 1659 1106 1674 c 0
 1151 1702 1206 1757 1269 1838 c 1
 1349 1838 l 0
 1348 1835 1348 1831 1347 1828 c 0
 1337 1783 1303 1723 1243 1649 c 8
 1212 1611 1171 1579 1118 1552 c 24
 1069 1527 1021 1514 977 1514 c 24
 933 1514 891 1527 852 1552 c 24
 811 1579 784 1611 769 1649 c 16
 748 1704 737 1752 737 1791 c 0
 737 1804 739 1817 741 1828 c 0
 742 1831 742 1835 743 1838 c 0
 824 1838 l 1
 841 1763 871 1709 916 1674 c 0
 938 1658 969 1649 1010 1648 c 1
EndSplineSet
EndChar

StartChar: abreve
Encoding: 259 259 197
Width: 996
Flags: HMW
LayerCount: 2
Fore
SplineSet
613 582 m 0
 462 582 338 473 311 344 c 0
 307 326 305 308 305 292 c 0
 305 182 388 106 512 106 c 0
 639 106 772 211 800 344 c 0
 804 361 805 377 805 393 c 0
 805 508 713 582 613 582 c 0
609 717 m 0
 764 717 842 610 844 559 c 1
 864 655 l 1
 872 692 876 725 876 756 c 0
 876 883 810 954 684 954 c 0
 590 954 497 922 442 877 c 1
 387 981 l 1
 469 1038 570 1090 713 1090 c 0
 892 1090 1019 982 1019 779 c 0
 1019 741 1014 700 1005 655 c 2
 979 532 l 2
 866 0 l 1
 727 0 l 1
 760 156 l 0
 761 158 l 1
 745 109 605 -29 450 -29 c 0
 267 -29 147 79 147 253 c 0
 147 282 150 312 157 344 c 0
 203 559 404 717 609 717 c 0
789 1301 m 1
 826 1303 858 1312 884 1327 c 0
 929 1355 984 1410 1047 1491 c 1
 1127 1491 l 0
 1126 1488 1126 1484 1125 1481 c 0
 1115 1436 1081 1376 1021 1302 c 8
 990 1264 949 1232 896 1205 c 24
 847 1180 799 1167 755 1167 c 24
 711 1167 669 1180 630 1205 c 24
 589 1232 562 1264 547 1302 c 16
 526 1357 515 1405 515 1444 c 0
 515 1457 517 1470 519 1481 c 0
 520 1484 520 1488 521 1491 c 0
 602 1491 l 1
 619 1416 649 1362 694 1327 c 0
 716 1311 748 1302 789 1301 c 1
EndSplineSet
EndChar

StartChar: Aogonek
Encoding: 260 260 198
Width: 1302
Flags: HMW
LayerCount: 2
Fore
SplineSet
909 1214 m 1
 579 621 l 1
 994 621 l 1
 909 1214 l 1
1002 485 m 1
 505 485 l 0
 240 0 l 0
 64 0 l 1
 897 1456 l 0
 897 1456 974 1456 1024 1456 c 17
 1239 0 l 1
 1059 0 l 1
 1002 485 l 1
1223 -190 m 1
 1153 -315 l 1
 1147 -311 1134 -302 1112 -287 c 0
 1090 -272 1074 -260 1062 -250 c 0
 1050 -240 1037 -226 1021 -210 c 0
 1005 -194 995 -177 990 -158 c 0
 988 -149 987 -139 987 -129 c 0
 987 -119 988 -109 990 -98 c 0
 992 -89 996 -76 1002 -60 c 1
 1023 -12 1059 33 1111 74 c 1
 1228 18 l 1
 1211 1 1195 -16 1182 -31 c 0
 1169 -46 1160 -60 1156 -71 c 0
 1154 -78 1152 -83 1151 -86 c 0
 1149 -95 1150 -104 1154 -114 c 0
 1158 -124 1164 -134 1175 -145 c 0
 1186 -156 1193 -164 1198 -168 c 0
 1203 -172 1212 -180 1223 -190 c 1
EndSplineSet
EndChar

StartChar: aogonek
Encoding: 261 261 199
Width: 996
Flags: HMW
LayerCount: 2
Fore
SplineSet
613 582 m 0
 462 582 338 473 311 344 c 0
 307 326 305 308 305 292 c 0
 305 182 388 106 512 106 c 0
 639 106 772 211 800 344 c 0
 804 361 805 377 805 393 c 0
 805 508 713 582 613 582 c 0
609 717 m 0
 764 717 842 610 844 559 c 1
 864 655 l 1
 872 692 876 725 876 756 c 0
 876 883 810 954 684 954 c 0
 590 954 497 922 442 877 c 1
 387 981 l 1
 469 1038 570 1090 713 1090 c 0
 892 1090 1019 982 1019 779 c 0
 1019 741 1014 700 1005 655 c 2
 979 532 l 2
 866 0 l 1
 727 0 l 1
 760 156 l 0
 761 158 l 1
 745 109 605 -29 450 -29 c 0
 267 -29 147 79 147 253 c 0
 147 282 150 312 157 344 c 0
 203 559 404 717 609 717 c 0
868 -190 m 1
 798 -315 l 1
 792 -311 779 -302 757 -287 c 0
 735 -272 719 -260 707 -250 c 0
 695 -240 682 -226 666 -210 c 0
 650 -194 640 -177 635 -158 c 0
 633 -149 632 -139 632 -129 c 0
 632 -119 633 -109 635 -98 c 0
 637 -89 641 -76 647 -60 c 1
 668 -12 704 33 756 74 c 1
 873 18 l 1
 856 1 840 -16 827 -31 c 0
 814 -46 805 -60 801 -71 c 0
 799 -78 797 -83 796 -86 c 0
 794 -95 795 -104 799 -114 c 0
 803 -124 809 -134 820 -145 c 0
 831 -156 838 -164 843 -168 c 0
 848 -172 857 -180 868 -190 c 1
EndSplineSet
EndChar

StartChar: Cacute
Encoding: 262 262 200
Width: 1220
Flags: HMW
LayerCount: 2
Fore
SplineSet
1229 293 m 0
 1134 133 959 -29 694 -29 c 0
 367 -29 229 205 229 497 c 0
 229 570 237 647 254 725 c 0
 337 1114 611 1495 1020 1495 c 0
 1285 1495 1388 1327 1407 1194 c 9
 1346 1178 1249 1153 1249 1153 c 0
 1236 1276 1126 1354 990 1354 c 1
 988 1354 l 0
 700 1354 486 1037 420 725 c 0
 406 660 399 597 399 536 c 0
 399 298 507 111 724 111 c 0
 868 111 1025 215 1091 334 c 9
 1145 318 1229 293 1229 293 c 0
932 1676 m 2
 1266 1926 l 1
 1285 1939 1301 1944 1318 1944 c 0
 1324 1944 1330 1944 1336 1942 c 0
 1352 1938 1363 1928 1370 1914 c 1
 1376 1905 1379 1894 1379 1883 c 0
 1379 1878 1378 1873 1377 1868 c 0
 1376 1861 1372 1856 1370 1851 c 0
 1363 1836 1352 1822 1335 1810 c 1
 983 1591 l 2
 974 1585 964 1582 955 1582 c 0
 951 1582 947 1583 942 1584 c 0
 930 1587 920 1594 914 1604 c 1
 910 1612 907 1620 907 1629 c 0
 907 1632 907 1635 908 1639 c 0
 909 1644 911 1649 913 1653 c 0
 917 1661 924 1669 932 1676 c 2
EndSplineSet
EndChar

StartChar: cacute
Encoding: 263 263 201
Width: 921
Flags: HMW
LayerCount: 2
Fore
SplineSet
917 809 m 1
 909 866 843 958 741 958 c 1
 575 958 396 784 343 537 c 0
 332 487 328 441 328 399 c 0
 328 216 421 106 558 106 c 0
 682 106 779 217 810 264 c 9
 916 187 l 1
 834 86 694 -29 529 -29 c 1
 307 -29 174 147 174 386 c 0
 174 434 179 485 190 537 c 0
 251 823 483 1094 770 1094 c 0
 932 1094 1022 993 1062 875 c 1
 917 809 l 1
731 1329 m 2
 1066 1579 l 1
 1085 1592 1100 1597 1117 1597 c 0
 1123 1597 1129 1597 1135 1595 c 0
 1151 1591 1162 1581 1169 1567 c 1
 1175 1558 1178 1547 1178 1536 c 0
 1178 1531 1177 1526 1176 1521 c 0
 1175 1514 1172 1509 1170 1504 c 0
 1163 1489 1151 1475 1134 1463 c 1
 782 1244 l 2
 773 1238 764 1235 755 1235 c 0
 751 1235 746 1236 741 1237 c 0
 729 1240 719 1247 713 1257 c 1
 709 1265 707 1273 707 1282 c 0
 707 1285 707 1288 708 1292 c 0
 709 1297 711 1302 713 1306 c 0
 717 1314 723 1322 731 1329 c 2
EndSplineSet
EndChar

StartChar: Ccaron
Encoding: 268 268 202
Width: 1220
Flags: HMW
LayerCount: 2
Fore
SplineSet
1229 293 m 0
 1134 133 959 -29 694 -29 c 0
 367 -29 229 205 229 497 c 0
 229 570 237 647 254 725 c 0
 337 1114 611 1495 1020 1495 c 0
 1285 1495 1388 1327 1407 1194 c 9
 1346 1178 1249 1153 1249 1153 c 0
 1236 1276 1126 1354 990 1354 c 1
 988 1354 l 0
 700 1354 486 1037 420 725 c 0
 406 660 399 597 399 536 c 0
 399 298 507 111 724 111 c 0
 868 111 1025 215 1091 334 c 9
 1145 318 1229 293 1229 293 c 0
1443 1858 m 1
 1090 1514 l 1
 959 1514 l 1
 755 1856 l 1
 941 1856 l 1
 1054 1645 l 1
 1255 1858 l 1
 1443 1858 l 1
EndSplineSet
EndChar

StartChar: ccaron
Encoding: 269 269 203
Width: 921
Flags: HMW
LayerCount: 2
Fore
SplineSet
911 809 m 1
 903 866 837 958 735 958 c 1
 569 958 390 784 337 537 c 0
 326 487 322 441 322 399 c 0
 322 216 415 106 552 106 c 0
 676 106 773 217 804 264 c 9
 910 187 l 1
 828 86 688 -29 523 -29 c 1
 301 -29 168 147 168 386 c 0
 168 434 173 485 184 537 c 0
 245 823 477 1094 764 1094 c 0
 926 1094 1016 993 1056 875 c 1
 911 809 l 1
1222 1514 m 1
 869 1170 l 1
 738 1170 l 1
 533 1512 l 1
 719 1512 l 1
 833 1301 l 1
 1034 1514 l 1
 1222 1514 l 1
EndSplineSet
EndChar

StartChar: Dcaron
Encoding: 270 270 204
Width: 1220
Flags: HMW
LayerCount: 2
Fore
SplineSet
1142 727 m 0
 1154 783 1161 844 1161 905 c 0
 1161 1112 1077 1315 804 1315 c 1
 559 1315 l 1
 309 141 l 1
 554 141 l 1
 902 141 1068 381 1142 727 c 0
1308 727 m 0
 1221 319 942 0 565 0 c 1
 121 0 l 1
 430 1456 l 1
 874 1456 l 2
 1182 1456 1330 1220 1330 929 c 0
 1330 864 1323 796 1308 727 c 0
1267 1858 m 1
 914 1514 l 1
 783 1514 l 1
 579 1856 l 1
 765 1856 l 1
 878 1645 l 1
 1079 1858 l 1
 1267 1858 l 1
EndSplineSet
EndChar

StartChar: dcaron
Encoding: 271 271 205
Width: 1208
Flags: HMW
LayerCount: 2
Fore
SplineSet
1076 1454 m 17
 1228 1454 l 1
 919 0 l 1
 767 0 l 1
 806 184 l 17
 736 76 638 -29 463 -29 c 0
 248 -29 166 137 166 342 c 0
 166 405 174 472 188 539 c 0
 249 828 422 1102 702 1102 c 0
 874 1102 931 996 955 886 c 1
 1076 1454 l 17
342 539 m 0
 330 480 323 427 323 379 c 0
 323 204 403 106 519 106 c 0
 667 106 828 264 886 537 c 0
 898 593 904 644 904 690 c 0
 904 869 819 966 701 966 c 0
 553 966 401 816 342 539 c 0
1482 1428 m 0
 1477 1405 1469 1380 1460 1357 c 0
 1451 1334 1440 1312 1427 1291 c 0
 1414 1270 1404 1255 1395 1242 c 0
 1386 1229 1375 1215 1363 1199 c 0
 1343 1176 l 0
 1309 1200 l 0
 1355 1255 1380 1303 1389 1343 c 0
 1371 1343 1357 1349 1346 1362 c 0
 1335 1375 1330 1390 1330 1410 c 0
 1330 1415 1331 1422 1332 1428 c 0
 1337 1452 1348 1472 1367 1489 c 0
 1386 1506 1405 1514 1426 1514 c 0
 1444 1514 1459 1507 1470 1494 c 0
 1479 1484 1485 1469 1485 1452 c 0
 1485 1448 1485 1445 1484 1441 c 0
 1483 1437 1483 1433 1482 1428 c 0
EndSplineSet
EndChar

StartChar: Dcroat
Encoding: 272 272 206
Width: 1378
Flags: HMW
LayerCount: 2
Fore
SplineSet
429 662 m 1
 247 662 l 1
 277 803 l 1
 459 803 l 1
 597 1456 l 1
 977 1456 l 2
 1125 1456 1241 1407 1324 1310 c 0
 1407 1213 1449 1086 1449 930 c 0
 1449 864 1442 796 1427 726 c 0
 1398 591 1347 468 1274 358 c 0
 1201 248 1111 160 1004 96 c 0
 897 32 785 0 668 0 c 2
 442 0 l 1
 288 0 l 1
 429 662 l 1
586 662 m 1
 475 143 l 1
 698 143 l 2
 827 143 947 198 1054 306 c 0
 1161 414 1233 554 1270 726 c 0
 1283 788 1290 845 1290 899 c 0
 1290 1026 1259 1126 1197 1201 c 0
 1136 1275 1052 1312 947 1312 c 2
 724 1312 l 1
 616 803 l 1
 915 803 l 1
 885 662 l 1
 586 662 l 1
EndSplineSet
EndChar

StartChar: dcroat
Encoding: 273 273 207
Width: 1044
Flags: HMW
LayerCount: 2
Fore
SplineSet
397 539 m 0
 384 479 378 426 378 377 c 0
 378 317 387 265 406 222 c 0
 440 144 497 106 574 106 c 0
 651 106 724 144 794 222 c 0
 864 300 913 405 941 537 c 0
 953 594 959 646 959 693 c 0
 959 755 949 807 928 851 c 0
 891 928 833 966 756 966 c 0
 679 966 606 928 539 852 c 0
 472 776 425 672 397 539 c 0
1131 1454 m 1
 1283 1454 l 1
 1255 1321 l 1
 1387 1321 l 1
 1357 1179 l 1
 1225 1179 l 1
 974 0 l 1
 822 0 l 1
 861 184 l 1
 842 154 821 127 801 104 c 0
 781 81 757 59 730 38 c 0
 703 17 670 0 634 -12 c 0
 598 -24 560 -29 518 -29 c 0
 463 -29 417 -18 376 3 c 0
 335 24 304 53 282 89 c 0
 260 125 244 167 233 216 c 0
 224 256 220 297 220 340 c 0
 220 350 221 360 221 370 c 0
 223 424 230 480 243 539 c 0
 259 614 281 684 310 750 c 0
 339 816 375 874 417 928 c 0
 459 982 509 1025 568 1056 c 0
 627 1087 690 1102 757 1102 c 0
 798 1102 835 1096 865 1084 c 0
 895 1072 922 1056 940 1034 c 0
 958 1012 973 990 984 966 c 0
 995 942 1003 916 1010 886 c 1
 1073 1179 l 1
 826 1179 l 1
 856 1321 l 1
 1103 1321 l 1
 1131 1454 l 1
EndSplineSet
EndChar

StartChar: Eogonek
Encoding: 280 280 208
Width: 1142
Flags: HMW
LayerCount: 2
Fore
SplineSet
430 1456 m 0
 1351 1456 l 1
 1322 1315 l 0
 559 1315 l 0
 453 817 l 1
 1173 817 l 1
 1143 676 l 0
 423 676 l 0
 309 141 l 0
 1072 141 l 0
 1042 0 l 0
 121 0 l 1
 430 1456 l 0
983 -190 m 1
 913 -315 l 1
 907 -311 894 -302 872 -287 c 0
 850 -272 834 -260 822 -250 c 0
 810 -240 797 -226 781 -210 c 0
 765 -194 755 -177 750 -158 c 0
 748 -149 747 -139 747 -129 c 0
 747 -119 748 -109 750 -98 c 0
 752 -89 756 -76 762 -60 c 1
 783 -12 819 33 871 74 c 1
 988 18 l 1
 971 1 955 -16 942 -31 c 0
 929 -46 920 -60 916 -71 c 0
 914 -78 912 -83 911 -86 c 0
 909 -95 910 -104 914 -114 c 0
 918 -124 924 -134 935 -145 c 0
 946 -156 953 -164 958 -168 c 0
 963 -172 972 -180 983 -190 c 1
EndSplineSet
EndChar

StartChar: eogonek
Encoding: 281 281 209
Width: 996
Flags: HMW
LayerCount: 2
Fore
SplineSet
385 604 m 1
 907 604 l 1
 911 633 914 662 914 690 c 0
 914 835 854 958 722 958 c 0
 562 958 432 774 385 604 c 1
357 469 m 1
 353 440 351 410 351 382 c 0
 351 233 407 106 541 106 c 0
 635 106 755 162 815 243 c 0
 936 188 l 0
 839 55 667 -29 512 -29 c 0
 299 -29 192 132 192 357 c 0
 192 413 199 474 212 537 c 0
 279 852 485 1094 751 1094 c 0
 967 1094 1061 923 1061 719 c 0
 1061 669 1055 617 1044 565 c 0
 1039 543 1030 492 1025 469 c 1
 357 469 l 1
581 -190 m 1
 511 -315 l 1
 505 -311 492 -302 470 -287 c 0
 448 -272 432 -260 420 -250 c 0
 408 -240 395 -226 379 -210 c 0
 363 -194 353 -177 348 -158 c 0
 346 -149 345 -139 345 -129 c 0
 345 -119 346 -109 348 -98 c 0
 350 -89 354 -76 360 -60 c 1
 381 -12 417 33 469 74 c 1
 586 18 l 1
 569 1 553 -16 540 -31 c 0
 527 -46 518 -60 514 -71 c 0
 512 -78 510 -83 509 -86 c 0
 507 -95 508 -104 512 -114 c 0
 516 -124 522 -134 533 -145 c 0
 544 -156 551 -164 556 -168 c 0
 561 -172 570 -180 581 -190 c 1
EndSplineSet
EndChar

StartChar: Ecaron
Encoding: 282 282 210
Width: 1142
Flags: HMW
LayerCount: 2
Fore
SplineSet
430 1456 m 0
 1351 1456 l 1
 1322 1315 l 0
 559 1315 l 0
 453 817 l 1
 1173 817 l 1
 1143 676 l 0
 423 676 l 0
 309 141 l 0
 1072 141 l 0
 1042 0 l 0
 121 0 l 1
 430 1456 l 0
1365 1858 m 1
 1012 1514 l 1
 881 1514 l 1
 677 1856 l 1
 863 1856 l 1
 976 1645 l 1
 1177 1858 l 1
 1365 1858 l 1
EndSplineSet
EndChar

StartChar: ecaron
Encoding: 283 283 211
Width: 996
Flags: HMW
LayerCount: 2
Fore
SplineSet
385 604 m 1
 907 604 l 1
 911 633 914 662 914 690 c 0
 914 835 854 958 722 958 c 0
 562 958 432 774 385 604 c 1
357 469 m 1
 353 440 351 410 351 382 c 0
 351 233 407 106 541 106 c 0
 635 106 755 162 815 243 c 0
 936 188 l 0
 839 55 667 -29 512 -29 c 0
 299 -29 192 132 192 357 c 0
 192 413 199 474 212 537 c 0
 279 852 485 1094 751 1094 c 0
 967 1094 1061 923 1061 719 c 0
 1061 669 1055 617 1044 565 c 0
 1039 543 1030 492 1025 469 c 1
 357 469 l 1
1190 1511 m 1
 837 1167 l 1
 706 1167 l 1
 502 1509 l 1
 688 1509 l 1
 801 1298 l 1
 1002 1511 l 1
 1190 1511 l 1
EndSplineSet
EndChar

StartChar: Lacute
Encoding: 313 313 212
Width: 1105
Flags: HMW
LayerCount: 2
Fore
SplineSet
430 1456 m 1
 588 1456 l 1
 309 141 l 1
 1074 141 l 1
 1044 0 l 1
 121 0 l 1
 430 1456 l 1
491 1676 m 2
 825 1926 l 1
 844 1939 860 1944 877 1944 c 0
 883 1944 889 1944 895 1942 c 0
 911 1938 922 1928 929 1914 c 1
 935 1905 938 1894 938 1883 c 0
 938 1878 937 1873 936 1868 c 0
 935 1861 931 1856 929 1851 c 0
 922 1836 911 1822 894 1810 c 1
 542 1591 l 2
 533 1585 523 1582 514 1582 c 0
 510 1582 506 1583 501 1584 c 0
 489 1587 479 1594 473 1604 c 1
 469 1612 466 1620 466 1629 c 0
 466 1632 466 1635 467 1639 c 0
 468 1644 470 1649 472 1653 c 0
 476 1661 483 1669 491 1676 c 2
EndSplineSet
EndChar

StartChar: lacute
Encoding: 314 314 213
Width: 472
Flags: HMW
LayerCount: 2
Fore
SplineSet
345 207 m 1
 343 196 342 186 342 177 c 0
 342 124 382 102 442 102 c 1
 414 -29 l 1
 273 -29 185 9 185 134 c 0
 185 155 187 177 193 203 c 1
 459 1454 l 1
 610 1454 l 1
 345 207 l 1
500 1676 m 2
 834 1926 l 1
 853 1939 869 1944 886 1944 c 0
 892 1944 898 1944 904 1942 c 0
 920 1938 931 1928 938 1914 c 1
 944 1905 947 1894 947 1883 c 0
 947 1878 946 1873 945 1868 c 0
 944 1861 940 1856 938 1851 c 0
 931 1836 920 1822 903 1810 c 1
 551 1591 l 2
 542 1585 532 1582 523 1582 c 0
 519 1582 515 1583 510 1584 c 0
 498 1587 488 1594 482 1604 c 1
 478 1612 475 1620 475 1629 c 0
 475 1632 475 1635 476 1639 c 0
 477 1644 479 1649 481 1653 c 0
 485 1661 492 1669 500 1676 c 2
EndSplineSet
EndChar

StartChar: Lcaron
Encoding: 317 317 214
Width: 1105
Flags: HMW
LayerCount: 2
Fore
SplineSet
430 1456 m 1
 588 1456 l 1
 309 141 l 1
 1074 141 l 1
 1044 0 l 1
 121 0 l 1
 430 1456 l 1
792 1428 m 0
 787 1405 779 1380 770 1357 c 0
 761 1334 750 1312 737 1291 c 0
 724 1270 714 1255 705 1242 c 0
 696 1229 685 1215 673 1199 c 0
 653 1176 l 0
 619 1200 l 0
 665 1255 690 1303 699 1343 c 0
 681 1343 667 1349 656 1362 c 0
 645 1375 640 1390 640 1410 c 0
 640 1415 641 1422 642 1428 c 0
 647 1452 658 1472 677 1489 c 0
 696 1506 715 1514 736 1514 c 0
 754 1514 769 1507 780 1494 c 0
 789 1484 795 1469 795 1452 c 0
 795 1448 795 1445 794 1441 c 0
 793 1437 793 1433 792 1428 c 0
EndSplineSet
EndChar

StartChar: lcaron
Encoding: 318 318 215
Width: 536
Flags: HMW
LayerCount: 2
Fore
SplineSet
345 207 m 1
 343 196 342 186 342 177 c 0
 342 124 382 102 442 102 c 1
 414 -29 l 1
 273 -29 185 9 185 134 c 0
 185 155 187 177 193 203 c 1
 459 1454 l 1
 610 1454 l 1
 345 207 l 1
792 1428 m 0
 787 1405 779 1380 770 1357 c 0
 761 1334 750 1312 737 1291 c 0
 724 1270 714 1255 705 1242 c 0
 696 1229 685 1215 673 1199 c 0
 653 1176 l 0
 619 1200 l 0
 665 1255 690 1303 699 1343 c 0
 681 1343 667 1349 656 1362 c 0
 645 1375 640 1390 640 1410 c 0
 640 1415 641 1422 642 1428 c 0
 647 1452 658 1472 677 1489 c 0
 696 1506 715 1514 736 1514 c 0
 754 1514 769 1507 780 1494 c 0
 789 1484 795 1469 795 1452 c 0
 795 1448 795 1445 794 1441 c 0
 793 1437 793 1433 792 1428 c 0
EndSplineSet
EndChar

StartChar: Lslash
Encoding: 321 321 216
Width: 1105
Flags: HMW
LayerCount: 2
Fore
SplineSet
125 510 m 1
 169 712 l 1
 294 816 l 1
 430 1456 l 1
 588 1456 l 1
 486 976 l 1
 638 1102 l 1
 595 894 l 1
 442 769 l 1
 309 141 l 1
 1074 141 l 1
 1044 0 l 1
 121 0 l 1
 251 613 l 1
 125 510 l 1
EndSplineSet
EndChar

StartChar: Nacute
Encoding: 323 323 217
Width: 1271
Flags: HMW
LayerCount: 2
Fore
SplineSet
121 0 m 1
 430 1456 l 2
 583 1456 l 1
 1077 295 l 25
 1323 1456 l 1
 1480 1456 l 1
 1171 0 l 0
 1026 0 l 1
 532 1190 l 0
 279 0 l 1
 121 0 l 1
884 1676 m 2
 1218 1926 l 1
 1237 1939 1253 1944 1270 1944 c 0
 1276 1944 1282 1944 1288 1942 c 0
 1304 1938 1315 1928 1322 1914 c 1
 1328 1905 1331 1894 1331 1883 c 0
 1331 1878 1330 1873 1329 1868 c 0
 1328 1861 1324 1856 1322 1851 c 0
 1315 1836 1304 1822 1287 1810 c 1
 935 1591 l 2
 926 1585 916 1582 907 1582 c 0
 903 1582 899 1583 894 1584 c 0
 882 1587 872 1594 866 1604 c 1
 862 1612 859 1620 859 1629 c 0
 859 1632 859 1635 860 1639 c 0
 861 1644 863 1649 865 1653 c 0
 869 1661 876 1669 884 1676 c 2
EndSplineSet
EndChar

StartChar: nacute
Encoding: 324 324 218
Width: 996
Flags: HMW
LayerCount: 2
Fore
SplineSet
291 0 m 9
 139 0 l 1
 367 1073 l 1
 519 1073 l 1
 481 892 l 17
 540 1004 672 1102 830 1102 c 0
 997 1102 1108 999 1108 766 c 0
 1108 701 1099 626 1081 541 c 2
 966 0 l 1
 815 0 l 0
 930 541 l 1
 943 604 951 664 951 718 c 0
 951 864 897 965 761 965 c 0
 575 965 454 768 406 540 c 0
 291 0 l 9
682 1326 m 2
 1016 1576 l 1
 1035 1589 1051 1594 1068 1594 c 0
 1074 1594 1079 1594 1085 1592 c 0
 1101 1588 1112 1578 1119 1564 c 1
 1125 1555 1128 1544 1128 1533 c 0
 1128 1528 1128 1523 1127 1518 c 0
 1126 1511 1122 1506 1120 1501 c 0
 1113 1486 1101 1472 1084 1460 c 1
 733 1241 l 2
 724 1235 714 1232 705 1232 c 0
 701 1232 696 1233 691 1234 c 0
 679 1237 670 1244 664 1254 c 1
 660 1262 657 1270 657 1279 c 0
 657 1282 657 1285 658 1289 c 0
 659 1294 661 1299 663 1303 c 0
 667 1311 674 1319 682 1326 c 2
EndSplineSet
EndChar

StartChar: Ncaron
Encoding: 327 327 219
Width: 1271
Flags: HMW
LayerCount: 2
Fore
SplineSet
121 0 m 1
 430 1456 l 2
 583 1456 l 1
 1077 295 l 25
 1323 1456 l 1
 1480 1456 l 1
 1171 0 l 0
 1026 0 l 1
 532 1190 l 0
 279 0 l 1
 121 0 l 1
1383 1858 m 1
 1030 1514 l 1
 899 1514 l 1
 695 1856 l 1
 881 1856 l 1
 994 1645 l 1
 1195 1858 l 1
 1383 1858 l 1
EndSplineSet
EndChar

StartChar: ncaron
Encoding: 328 328 220
Width: 996
Flags: HMW
LayerCount: 2
Fore
SplineSet
281 0 m 9
 129 0 l 1
 357 1073 l 1
 509 1073 l 1
 471 892 l 17
 530 1004 662 1102 820 1102 c 0
 987 1102 1098 999 1098 766 c 0
 1098 701 1089 626 1071 541 c 2
 956 0 l 1
 805 0 l 0
 920 541 l 1
 933 604 941 664 941 718 c 0
 941 864 887 965 751 965 c 0
 565 965 444 768 396 540 c 0
 281 0 l 9
1202 1514 m 1
 849 1170 l 1
 718 1170 l 1
 513 1512 l 1
 699 1512 l 1
 813 1301 l 1
 1014 1514 l 1
 1202 1514 l 1
EndSplineSet
EndChar

StartChar: Ohungarumlaut
Encoding: 336 336 221
Width: 1333
Flags: HMW
LayerCount: 2
Fore
SplineSet
1250 725 m 0
 1265 797 1275 876 1275 952 c 0
 1274 1161 1201 1354 964 1354 c 0
 642 1354 469 995 412 725 c 1
 397 655 389 580 388 507 c 0
 388 300 464 113 700 113 c 1
 1021 113 1193 457 1250 725 c 0
246 725 m 1
 314 1047 566 1495 994 1495 c 1
 1329 1495 1440 1222 1440 950 c 0
 1440 873 1431 796 1416 725 c 1
 1348 406 1098 -29 670 -29 c 0
 335 -29 223 239 223 511 c 0
 223 584 232 657 246 725 c 1
1133 1595 m 2
 1406 1909 l 1
 1427 1931 1449 1942 1473 1942 c 0
 1490 1942 1504 1936 1515 1925 c 1
 1528 1914 1535 1900 1535 1881 c 0
 1535 1876 1534 1872 1533 1868 c 0
 1530 1852 1521 1836 1507 1821 c 1
 1207 1531 l 2
 1196 1520 1182 1514 1167 1514 c 0
 1154 1514 1143 1518 1133 1525 c 1
 1123 1534 1118 1546 1118 1559 c 0
 1118 1562 1119 1566 1120 1569 c 0
 1122 1578 1126 1586 1133 1595 c 2
789 1595 m 2
 1062 1909 l 1
 1083 1931 1105 1942 1129 1942 c 0
 1146 1942 1160 1936 1171 1925 c 1
 1184 1914 1191 1900 1191 1881 c 0
 1191 1876 1190 1872 1189 1868 c 0
 1186 1852 1177 1836 1163 1821 c 1
 863 1531 l 2
 852 1520 838 1514 823 1514 c 0
 810 1514 799 1518 789 1525 c 1
 779 1534 774 1547 774 1561 c 0
 774 1564 775 1566 776 1569 c 0
 778 1578 782 1586 789 1595 c 2
EndSplineSet
EndChar

StartChar: ohungarumlaut
Encoding: 337 337 222
Width: 996
Flags: HMW
LayerCount: 2
Fore
SplineSet
216 537 m 0
 283 852 485 1094 772 1094 c 0
 1001 1094 1109 936 1109 713 c 0
 1109 658 1102 599 1089 537 c 0
 1022 221 822 -29 533 -29 c 0
 304 -29 196 132 196 357 c 0
 196 414 203 474 216 537 c 0
370 537 m 0
 357 478 351 421 351 369 c 0
 351 216 411 106 562 106 c 0
 763 106 885 304 935 537 c 0
 947 595 954 650 954 700 c 0
 954 851 894 958 743 958 c 0
 540 958 419 768 370 537 c 0
910 1250 m 2
 1182 1564 l 1
 1203 1586 1225 1597 1249 1597 c 0
 1266 1597 1281 1591 1292 1580 c 1
 1305 1569 1311 1555 1311 1536 c 0
 1311 1531 1311 1527 1310 1523 c 0
 1307 1507 1298 1491 1284 1476 c 1
 984 1186 l 2
 973 1175 958 1169 943 1169 c 0
 930 1169 920 1173 910 1180 c 1
 900 1189 895 1201 895 1214 c 0
 895 1217 895 1221 896 1224 c 0
 898 1233 903 1241 910 1250 c 2
566 1250 m 2
 838 1564 l 1
 859 1586 881 1597 905 1597 c 0
 922 1597 937 1591 948 1580 c 1
 961 1569 967 1555 967 1536 c 0
 967 1531 967 1527 966 1523 c 0
 963 1507 954 1491 940 1476 c 1
 640 1186 l 2
 629 1175 614 1169 599 1169 c 0
 586 1169 576 1173 566 1180 c 1
 556 1189 551 1202 551 1216 c 0
 551 1219 551 1221 552 1224 c 0
 554 1233 559 1241 566 1250 c 2
EndSplineSet
EndChar

StartChar: Racute
Encoding: 340 340 223
Width: 1101
Flags: HMW
LayerCount: 2
Fore
SplineSet
444 774 m 1
 650 774 l 1
 976 774 1067 926 1093 1047 c 0
 1098 1068 1099 1089 1099 1108 c 0
 1099 1231 1006 1315 765 1315 c 2
 559 1315 l 1
 444 774 l 1
923 0 m 1
 628 631 l 1
 413 631 l 1
 279 0 l 1
 121 0 l 1
 430 1456 l 0
 588 1456 l 1
 794 1456 l 1
 1071 1456 1266 1341 1266 1130 c 0
 1266 1104 1263 1076 1257 1047 c 0
 1215 850 1040 688 808 648 c 1
 1104 0 l 1
 923 0 l 1
718 1676 m 2
 1052 1926 l 1
 1071 1939 1087 1944 1104 1944 c 0
 1110 1944 1116 1944 1122 1942 c 0
 1138 1938 1149 1928 1156 1914 c 1
 1162 1905 1165 1894 1165 1883 c 0
 1165 1878 1164 1873 1163 1868 c 0
 1162 1861 1158 1856 1156 1851 c 0
 1149 1836 1138 1822 1121 1810 c 1
 769 1591 l 2
 760 1585 750 1582 741 1582 c 0
 737 1582 733 1583 728 1584 c 0
 716 1587 706 1594 700 1604 c 1
 696 1612 693 1620 693 1629 c 0
 693 1632 693 1635 694 1639 c 0
 695 1644 697 1649 699 1653 c 0
 703 1661 710 1669 718 1676 c 2
EndSplineSet
EndChar

StartChar: racute
Encoding: 341 341 224
Width: 686
Flags: HMW
LayerCount: 2
Fore
SplineSet
964 1066 m 0
 856 935 l 1
 829 954 793 965 751 965 c 0
 565 965 444 768 396 540 c 0
 281 0 l 9
 129 0 l 1
 357 1073 l 1
 509 1073 l 1
 471 892 l 17
 530 1004 662 1102 820 1102 c 0
 874 1102 923 1090 964 1066 c 0
522 1329 m 2
 857 1579 l 1
 876 1592 891 1597 908 1597 c 0
 914 1597 920 1597 926 1595 c 0
 942 1591 953 1581 960 1567 c 1
 966 1558 969 1547 969 1536 c 0
 969 1531 968 1526 967 1521 c 0
 966 1514 963 1509 961 1504 c 0
 954 1489 942 1475 925 1463 c 1
 573 1244 l 2
 564 1238 555 1235 546 1235 c 0
 542 1235 537 1236 532 1237 c 0
 520 1240 510 1247 504 1257 c 1
 500 1265 498 1273 498 1282 c 0
 498 1285 498 1288 499 1292 c 0
 500 1297 502 1302 504 1306 c 0
 508 1314 514 1322 522 1329 c 2
EndSplineSet
EndChar

StartChar: Rcaron
Encoding: 344 344 225
Width: 1101
Flags: HMW
LayerCount: 2
Fore
SplineSet
444 774 m 1
 650 774 l 1
 976 774 1067 926 1093 1047 c 0
 1098 1068 1099 1089 1099 1108 c 0
 1099 1231 1006 1315 765 1315 c 2
 559 1315 l 1
 444 774 l 1
923 0 m 1
 628 631 l 1
 413 631 l 1
 279 0 l 1
 121 0 l 1
 430 1456 l 0
 588 1456 l 1
 794 1456 l 1
 1071 1456 1266 1341 1266 1130 c 0
 1266 1104 1263 1076 1257 1047 c 0
 1215 850 1040 688 808 648 c 1
 1104 0 l 1
 923 0 l 1
1267 1858 m 1
 914 1514 l 1
 783 1514 l 1
 579 1856 l 1
 765 1856 l 1
 878 1645 l 1
 1079 1858 l 1
 1267 1858 l 1
EndSplineSet
EndChar

StartChar: rcaron
Encoding: 345 345 226
Width: 686
Flags: HMW
LayerCount: 2
Fore
SplineSet
974 1066 m 0
 866 935 l 1
 839 954 803 965 761 965 c 0
 575 965 454 768 406 540 c 0
 291 0 l 9
 139 0 l 1
 367 1073 l 1
 519 1073 l 1
 481 892 l 17
 540 1004 672 1102 830 1102 c 0
 884 1102 933 1090 974 1066 c 0
1042 1514 m 1
 689 1170 l 1
 558 1170 l 1
 353 1512 l 1
 539 1512 l 1
 653 1301 l 1
 854 1514 l 1
 1042 1514 l 1
EndSplineSet
EndChar

StartChar: Sacute
Encoding: 346 346 227
Width: 1079
Flags: HMW
LayerCount: 2
Fore
SplineSet
115 327 m 1
 291 358 l 1
 293 252 400 113 563 113 c 1
 745 113 927 214 960 371 c 0
 964 388 965 404 965 419 c 0
 965 611 700 696 592 745 c 0
 478 797 345 866 345 1044 c 0
 345 1072 348 1103 355 1136 c 0
 403 1361 623 1495 857 1495 c 1
 1096 1495 1231 1360 1248 1194 c 1
 1090 1169 l 1
 1080 1256 986 1354 827 1354 c 1
 673 1354 543 1260 517 1136 c 0
 513 1117 511 1099 511 1083 c 0
 511 932 676 893 823 824 c 0
 951 764 1122 668 1122 460 c 0
 1122 432 1119 401 1112 368 c 0
 1055 99 803 -29 533 -29 c 1
 262 -29 145 132 115 327 c 1
796 1676 m 2
 1130 1926 l 1
 1149 1939 1165 1944 1182 1944 c 0
 1188 1944 1194 1944 1200 1942 c 0
 1216 1938 1227 1928 1234 1914 c 1
 1240 1905 1243 1894 1243 1883 c 0
 1243 1878 1242 1873 1241 1868 c 0
 1240 1861 1236 1856 1234 1851 c 0
 1227 1836 1216 1822 1199 1810 c 1
 847 1591 l 2
 838 1585 828 1582 819 1582 c 0
 815 1582 811 1583 806 1584 c 0
 794 1587 784 1594 778 1604 c 1
 774 1612 771 1620 771 1629 c 0
 771 1632 771 1635 772 1639 c 0
 773 1644 775 1649 777 1653 c 0
 781 1661 788 1669 796 1676 c 2
EndSplineSet
EndChar

StartChar: Scedilla
Encoding: 350 350 228
Width: 1079
Flags: HMW
LayerCount: 2
Fore
SplineSet
115 327 m 1
 291 358 l 1
 293 300 319 245 371 192 c 0
 423 139 486 113 563 113 c 0
 657 113 742 137 819 185 c 0
 896 233 944 295 960 371 c 0
 963 386 965 401 965 416 c 0
 965 428 964 439 962 450 c 0
 957 475 951 498 940 517 c 0
 929 536 914 555 894 574 c 0
 874 593 855 609 838 622 c 0
 821 635 799 649 772 663 c 0
 745 677 722 688 706 696 c 0
 690 704 670 712 644 723 c 0
 618 734 600 741 592 745 c 0
 569 755 550 764 534 772 c 0
 518 780 500 792 479 806 c 0
 458 820 441 832 427 846 c 0
 413 860 400 878 386 898 c 0
 372 918 362 940 356 962 c 0
 350 984 346 1010 345 1040 c 0
 345 1042 345 1044 345 1046 c 0
 345 1074 348 1104 355 1136 c 0
 378 1245 438 1333 533 1398 c 0
 628 1463 736 1495 857 1495 c 0
 972 1495 1063 1467 1132 1410 c 0
 1201 1353 1239 1281 1248 1194 c 1
 1090 1169 l 1
 1085 1217 1059 1260 1011 1298 c 0
 963 1336 902 1354 827 1354 c 0
 750 1354 683 1333 625 1292 c 0
 567 1251 530 1199 517 1136 c 0
 513 1118 512 1100 512 1084 c 0
 512 1079 512 1074 512 1069 c 0
 514 1048 518 1030 524 1015 c 0
 530 1000 539 984 553 970 c 0
 567 956 580 944 593 934 c 0
 606 924 622 915 644 904 c 0
 666 893 684 884 700 877 c 0
 716 870 737 861 763 850 c 0
 789 839 807 831 823 824 c 0
 848 813 869 802 888 792 c 0
 907 782 929 768 954 752 c 0
 979 736 1000 719 1017 702 c 0
 1034 685 1051 664 1068 640 c 0
 1085 616 1098 591 1106 565 c 0
 1114 539 1119 509 1121 475 c 0
 1121 468 1121 462 1121 455 c 0
 1121 427 1118 398 1112 368 c 0
 1094 281 1056 207 997 146 c 0
 938 85 870 41 791 13 c 0
 712 -15 626 -29 533 -29 c 0
 406 -29 309 4 241 69 c 0
 173 134 131 220 115 327 c 1
323 -294 m 1
 338 -284 349 -276 356 -272 c 0
 363 -268 374 -260 389 -249 c 0
 404 -238 416 -228 424 -218 c 0
 432 -208 437 -199 439 -190 c 0
 440 -187 440 -182 440 -175 c 0
 440 -164 437 -150 430 -135 c 0
 423 -120 415 -103 406 -86 c 1
 547 -30 l 1
 581 -71 597 -116 598 -164 c 1
 598 -180 596 -193 594 -202 c 0
 590 -223 581 -243 568 -262 c 0
 555 -281 537 -298 515 -314 c 0
 493 -330 474 -344 458 -354 c 0
 442 -364 420 -376 392 -391 c 0
 364 -406 347 -415 339 -419 c 1
 323 -294 l 1
EndSplineSet
Substitution2: "Tuffy-Regular-'locl' Localized Forms in Latin lookup 2-1" Scommaaccent
EndChar

StartChar: scedilla
Encoding: 351 351 229
Width: 921
Flags: HMW
LayerCount: 2
Fore
SplineSet
563 477 m 0
 526 490 494 502 469 513 c 0
 444 524 418 539 388 558 c 0
 358 577 336 598 320 620 c 0
 304 642 291 668 284 701 c 0
 281 716 279 732 279 748 c 0
 279 767 282 788 286 809 c 0
 305 900 353 971 431 1021 c 0
 509 1071 596 1097 695 1098 c 1
 749 1098 796 1091 837 1076 c 0
 878 1061 908 1041 930 1016 c 0
 952 991 970 968 981 944 c 0
 992 920 998 896 1001 871 c 1
 849 841 l 1
 830 922 770 963 669 963 c 0
 616 963 566 950 521 924 c 0
 476 898 450 860 440 813 c 0
 437 801 436 788 436 777 c 0
 436 766 437 757 440 747 c 0
 446 727 455 711 467 699 c 0
 479 687 493 676 509 666 c 0
 525 656 539 648 555 643 c 0
 571 638 585 633 597 627 c 1
 604 624 618 620 637 612 c 0
 656 604 672 598 682 594 c 0
 692 590 707 584 726 575 c 0
 745 566 760 559 771 552 c 0
 782 545 796 536 812 525 c 0
 828 514 839 503 848 492 c 0
 857 481 864 468 874 453 c 0
 884 438 890 422 894 406 c 0
 898 390 900 372 901 352 c 0
 901 350 901 349 901 347 c 0
 901 328 897 308 893 287 c 0
 874 196 822 120 737 60 c 0
 652 0 561 -29 460 -29 c 0
 359 -29 280 -7 228 38 c 0
 176 83 143 142 134 217 c 1
 288 245 l 1
 298 200 318 166 348 142 c 0
 378 118 424 106 485 106 c 0
 552 106 607 122 653 154 c 0
 699 186 727 230 739 287 c 0
 742 299 743 311 743 322 c 0
 743 335 741 348 736 359 c 0
 727 380 714 399 693 414 c 0
 672 429 653 441 634 450 c 0
 615 459 591 468 563 477 c 0
270 -294 m 1
 285 -284 295 -276 302 -272 c 0
 309 -268 320 -260 335 -249 c 0
 350 -238 362 -228 370 -218 c 0
 378 -208 384 -199 386 -190 c 0
 387 -187 387 -182 387 -175 c 0
 387 -164 384 -150 377 -135 c 0
 370 -120 361 -103 352 -86 c 1
 494 -30 l 1
 528 -71 544 -116 545 -164 c 1
 545 -180 543 -193 541 -202 c 0
 537 -223 527 -243 514 -262 c 0
 501 -281 483 -298 461 -314 c 0
 439 -330 421 -344 405 -354 c 0
 389 -364 367 -376 339 -391 c 0
 311 -406 293 -415 285 -419 c 1
 270 -294 l 1
EndSplineSet
Substitution2: "Tuffy-Regular-'locl' Localized Forms in Latin lookup 2-1" scommaaccent
EndChar

StartChar: Scaron
Encoding: 352 352 230
Width: 1079
Flags: HMW
LayerCount: 2
Fore
SplineSet
115 327 m 1
 291 358 l 1
 293 252 400 113 563 113 c 1
 745 113 927 214 960 371 c 0
 964 388 965 404 965 419 c 0
 965 611 700 696 592 745 c 0
 478 797 345 866 345 1044 c 0
 345 1072 348 1103 355 1136 c 0
 403 1361 623 1495 857 1495 c 1
 1096 1495 1231 1360 1248 1194 c 1
 1090 1169 l 1
 1080 1256 986 1354 827 1354 c 1
 673 1354 543 1260 517 1136 c 0
 513 1117 511 1099 511 1083 c 0
 511 932 676 893 823 824 c 0
 951 764 1122 668 1122 460 c 0
 1122 432 1119 401 1112 368 c 0
 1055 99 803 -29 533 -29 c 1
 262 -29 145 132 115 327 c 1
1267 1858 m 1
 914 1514 l 1
 783 1514 l 1
 579 1856 l 1
 765 1856 l 1
 878 1645 l 1
 1079 1858 l 1
 1267 1858 l 1
EndSplineSet
EndChar

StartChar: Tcommaaccent
Encoding: 354 354 231
Width: 1243
Flags: HMW
LayerCount: 2
Fore
SplineSet
397 1456 m 0
 1489 1456 l 1
 1460 1315 l 0
 1003 1315 l 1
 723 0 l 1
 565 0 l 1
 845 1315 l 1
 368 1315 l 1
 397 1456 l 0
468 -191 m 1
 541 -145 580 -109 585 -86 c 0
 586 -79 586 -75 586 -72 c 0
 588 -60 576 -30 552 18 c 1
 693 74 l 1
 726 33 743 -11 744 -59 c 0
 744 -66 743 -73 743 -79 c 0
 743 -85 741 -91 740 -98 c 0
 727 -158 668 -218 562 -275 c 2
 485 -316 l 1
 468 -191 l 1
EndSplineSet
Substitution2: "Tuffy-Regular-'locl' Localized Forms in Latin lookup 2-1" uni021A
EndChar

StartChar: tcommaaccent
Encoding: 355 355 232
Width: 696
Flags: HMW
LayerCount: 2
Fore
SplineSet
443 938 m 0
 301 938 l 1
 330 1073 l 1
 472 1073 l 0
 525 1323 l 1
 676 1323 l 0
 623 1073 l 0
 820 1073 l 1
 791 938 l 1
 594 938 l 0
 441 215 l 2
 438 202 436 189 436 178 c 0
 436 125 469 98 533 98 c 2
 603 98 l 1
 576 -29 l 1
 506 -29 l 2
 344 -29 278 18 278 125 c 0
 278 150 282 179 289 211 c 1
 443 938 l 0
238 -191 m 1
 311 -145 350 -109 355 -86 c 0
 356 -79 356 -75 356 -72 c 0
 358 -60 346 -30 322 18 c 1
 463 74 l 1
 496 33 513 -11 514 -59 c 0
 514 -66 513 -73 513 -79 c 0
 513 -85 511 -91 510 -98 c 0
 497 -158 438 -218 332 -275 c 2
 255 -316 l 1
 238 -191 l 1
EndSplineSet
Substitution2: "Tuffy-Regular-'locl' Localized Forms in Latin lookup 2-1" uni021B
EndChar

StartChar: Tcaron
Encoding: 356 356 233
Width: 1243
Flags: HMW
LayerCount: 2
Fore
SplineSet
397 1456 m 0
 1489 1456 l 1
 1460 1315 l 0
 1003 1315 l 1
 723 0 l 1
 565 0 l 1
 845 1315 l 1
 368 1315 l 1
 397 1456 l 0
1387 1858 m 1
 1034 1514 l 1
 903 1514 l 1
 699 1856 l 1
 885 1856 l 1
 998 1645 l 1
 1199 1858 l 1
 1387 1858 l 1
EndSplineSet
EndChar

StartChar: tcaron
Encoding: 357 357 234
Width: 752
Flags: HMW
LayerCount: 2
Fore
SplineSet
443 938 m 0
 301 938 l 1
 330 1073 l 1
 472 1073 l 0
 525 1323 l 1
 676 1323 l 0
 623 1073 l 0
 820 1073 l 1
 791 938 l 1
 594 938 l 0
 441 215 l 2
 438 202 436 189 436 178 c 0
 436 125 469 98 533 98 c 2
 603 98 l 1
 576 -29 l 1
 506 -29 l 2
 344 -29 278 18 278 125 c 0
 278 150 282 179 289 211 c 1
 443 938 l 0
1008 1428 m 0
 1003 1405 995 1380 986 1357 c 0
 977 1334 966 1312 953 1291 c 0
 940 1270 930 1255 921 1242 c 0
 912 1229 901 1215 889 1199 c 0
 869 1176 l 0
 835 1200 l 0
 881 1255 906 1303 915 1343 c 0
 897 1343 883 1349 872 1362 c 0
 861 1375 856 1390 856 1410 c 0
 856 1415 857 1422 858 1428 c 0
 863 1452 874 1472 893 1489 c 0
 912 1506 931 1514 952 1514 c 0
 970 1514 985 1507 996 1494 c 0
 1005 1484 1011 1469 1011 1452 c 0
 1011 1448 1011 1445 1010 1441 c 0
 1009 1437 1009 1433 1008 1428 c 0
EndSplineSet
EndChar

StartChar: Uring
Encoding: 366 366 235
Width: 1265
Flags: HMW
LayerCount: 2
Fore
SplineSet
1313 1456 m 1
 1474 1456 l 1
 1302 645 l 1
 1212 223 965 -29 637 -29 c 0
 373 -29 231 132 231 415 c 0
 231 485 240 562 258 645 c 1
 430 1456 l 1
 592 1456 l 1
 420 645 l 1
 404 572 397 508 397 450 c 0
 397 217 509 113 667 113 c 0
 862 113 1062 274 1141 645 c 1
 1313 1456 l 1
885 1718 m 0
 883 1707 882 1698 882 1688 c 0
 882 1657 892 1633 911 1613 c 0
 930 1593 956 1584 987 1584 c 0
 1024 1584 1056 1597 1087 1623 c 0
 1118 1649 1137 1680 1145 1718 c 0
 1147 1728 1149 1738 1149 1748 c 0
 1149 1779 1139 1804 1120 1824 c 0
 1101 1844 1075 1853 1044 1853 c 0
 1007 1853 975 1840 944 1814 c 0
 913 1788 893 1755 885 1718 c 0
779 1715 m 0
 793 1779 826 1834 882 1879 c 0
 938 1924 999 1947 1064 1947 c 0
 1120 1947 1166 1930 1202 1895 c 0
 1238 1860 1256 1816 1256 1763 c 0
 1256 1750 1255 1734 1251 1715 c 0
 1237 1650 1202 1595 1146 1550 c 0
 1090 1505 1030 1482 965 1482 c 0
 909 1482 863 1499 827 1534 c 0
 791 1569 774 1613 774 1666 c 0
 774 1668 774 1671 774 1673 c 0
 774 1687 776 1701 779 1715 c 0
EndSplineSet
EndChar

StartChar: uring
Encoding: 367 367 236
Width: 996
Flags: HMW
LayerCount: 2
Fore
SplineSet
1023 1073 m 9
 1175 1073 l 1
 947 0 l 1
 795 0 l 1
 833 181 l 17
 774 69 642 -29 484 -29 c 0
 317 -29 206 74 206 307 c 0
 206 372 215 447 233 532 c 2
 348 1073 l 1
 499 1073 l 0
 384 532 l 1
 371 469 363 409 363 355 c 0
 363 209 417 108 553 108 c 0
 739 108 860 305 908 533 c 0
 1023 1073 l 9
712 1355 m 0
 710 1344 709 1335 709 1325 c 0
 709 1294 719 1270 738 1250 c 0
 757 1230 783 1221 814 1221 c 0
 851 1221 883 1234 914 1260 c 0
 945 1286 964 1317 972 1355 c 0
 974 1365 975 1375 975 1385 c 0
 975 1416 966 1441 947 1461 c 0
 928 1481 902 1490 871 1490 c 0
 834 1490 801 1477 770 1451 c 0
 739 1425 720 1392 712 1355 c 0
605 1352 m 0
 619 1416 653 1471 709 1516 c 0
 765 1561 826 1584 891 1584 c 0
 947 1584 993 1567 1029 1532 c 0
 1065 1497 1083 1453 1083 1400 c 0
 1083 1387 1081 1371 1077 1352 c 0
 1063 1287 1029 1232 973 1187 c 0
 917 1142 857 1119 792 1119 c 0
 736 1119 690 1136 654 1171 c 0
 618 1206 601 1250 601 1303 c 0
 601 1305 601 1308 601 1310 c 0
 601 1324 602 1338 605 1352 c 0
EndSplineSet
EndChar

StartChar: Uhungarumlaut
Encoding: 368 368 237
Width: 1265
Flags: HMW
LayerCount: 2
Fore
SplineSet
1313 1456 m 1
 1474 1456 l 1
 1302 645 l 1
 1212 223 965 -29 637 -29 c 0
 373 -29 231 132 231 415 c 0
 231 485 240 562 258 645 c 1
 430 1456 l 1
 592 1456 l 1
 420 645 l 1
 404 572 397 508 397 450 c 0
 397 217 509 113 667 113 c 0
 862 113 1062 274 1141 645 c 1
 1313 1456 l 1
1133 1595 m 2
 1406 1909 l 1
 1427 1931 1449 1942 1473 1942 c 0
 1490 1942 1504 1936 1515 1925 c 1
 1528 1914 1535 1900 1535 1881 c 0
 1535 1876 1534 1872 1533 1868 c 0
 1530 1852 1521 1836 1507 1821 c 1
 1207 1531 l 2
 1196 1520 1182 1514 1167 1514 c 0
 1154 1514 1143 1518 1133 1525 c 1
 1123 1534 1118 1546 1118 1559 c 0
 1118 1562 1119 1566 1120 1569 c 0
 1122 1578 1126 1586 1133 1595 c 2
789 1595 m 2
 1062 1909 l 1
 1083 1931 1105 1942 1129 1942 c 0
 1146 1942 1160 1936 1171 1925 c 1
 1184 1914 1191 1900 1191 1881 c 0
 1191 1876 1190 1872 1189 1868 c 0
 1186 1852 1177 1836 1163 1821 c 1
 863 1531 l 2
 852 1520 838 1514 823 1514 c 0
 810 1514 799 1518 789 1525 c 1
 779 1534 774 1547 774 1561 c 0
 774 1564 775 1566 776 1569 c 0
 778 1578 782 1586 789 1595 c 2
EndSplineSet
EndChar

StartChar: uhungarumlaut
Encoding: 369 369 238
Width: 996
Flags: HMW
LayerCount: 2
Fore
SplineSet
1065 1073 m 9
 1217 1073 l 1
 989 0 l 1
 837 0 l 1
 875 181 l 17
 816 69 684 -29 526 -29 c 0
 359 -29 248 74 248 307 c 0
 248 372 257 447 275 532 c 2
 390 1073 l 1
 541 1073 l 0
 426 532 l 1
 413 469 405 409 405 355 c 0
 405 209 459 108 595 108 c 0
 781 108 902 305 950 533 c 0
 1065 1073 l 9
947 1249 m 2
 1220 1563 l 1
 1241 1585 1263 1596 1287 1596 c 0
 1304 1596 1319 1590 1330 1579 c 1
 1343 1568 1349 1554 1349 1535 c 0
 1349 1530 1349 1526 1348 1522 c 0
 1345 1506 1336 1490 1322 1475 c 1
 1022 1185 l 2
 1011 1174 996 1168 981 1168 c 0
 968 1168 958 1172 948 1179 c 1
 938 1188 933 1200 933 1213 c 0
 933 1216 933 1220 934 1223 c 0
 936 1232 940 1240 947 1249 c 2
603 1249 m 2
 876 1563 l 1
 897 1585 919 1596 943 1596 c 0
 960 1596 975 1590 986 1579 c 1
 999 1568 1005 1554 1005 1535 c 0
 1005 1530 1005 1526 1004 1522 c 0
 1001 1506 992 1490 978 1475 c 1
 678 1185 l 2
 667 1174 652 1168 637 1168 c 0
 624 1168 614 1172 604 1179 c 1
 594 1188 589 1201 589 1215 c 0
 589 1218 589 1220 590 1223 c 0
 592 1232 596 1240 603 1249 c 2
EndSplineSet
EndChar

StartChar: Zacute
Encoding: 377 377 239
Width: 1325
Flags: HMW
LayerCount: 2
Fore
SplineSet
438 1456 m 1
 1542 1456 l 1
 399 141 l 1
 1275 141 l 1
 1245 0 l 1
 100 0 l 1
 1253 1315 l 1
 409 1315 l 1
 438 1456 l 1
905 1676 m 2
 1239 1926 l 1
 1258 1939 1274 1944 1291 1944 c 0
 1297 1944 1303 1944 1309 1942 c 0
 1325 1938 1336 1928 1343 1914 c 1
 1349 1905 1352 1894 1352 1883 c 0
 1352 1878 1351 1873 1350 1868 c 0
 1349 1861 1345 1856 1343 1851 c 0
 1336 1836 1325 1822 1308 1810 c 1
 956 1591 l 2
 947 1585 937 1582 928 1582 c 0
 924 1582 920 1583 915 1584 c 0
 903 1587 893 1594 887 1604 c 1
 883 1612 880 1620 880 1629 c 0
 880 1632 880 1635 881 1639 c 0
 882 1644 884 1649 886 1653 c 0
 890 1661 897 1669 905 1676 c 2
EndSplineSet
EndChar

StartChar: Zdotaccent
Encoding: 379 379 240
Width: 1325
Flags: HMW
LayerCount: 2
Fore
SplineSet
438 1456 m 1
 1542 1456 l 1
 399 141 l 1
 1275 141 l 1
 1245 0 l 1
 100 0 l 1
 1253 1315 l 1
 409 1315 l 1
 438 1456 l 1
947 1683 m 0
 952 1708 966 1730 989 1749 c 0
 1012 1768 1036 1777 1061 1777 c 0
 1083 1777 1101 1770 1115 1756 c 0
 1129 1742 1136 1723 1137 1702 c 0
 1137 1697 1137 1691 1135 1683 c 0
 1129 1657 1115 1635 1092 1616 c 0
 1069 1597 1046 1588 1021 1588 c 0
 999 1588 980 1596 966 1610 c 0
 952 1624 945 1643 945 1666 c 0
 945 1670 945 1675 947 1683 c 0
EndSplineSet
EndChar

StartChar: zdotaccent
Encoding: 380 380 241
Width: 962
Flags: HMW
LayerCount: 2
Fore
SplineSet
372 141 m 1
 907 141 l 1
 877 0 l 1
 90 0 l 1
 853 932 l 2
 329 932 l 1
 359 1073 l 1
 1135 1073 l 1
 372 141 l 1
718 1356 m 0
 723 1381 737 1403 760 1422 c 0
 783 1441 807 1450 832 1450 c 0
 854 1450 873 1443 887 1429 c 0
 901 1415 907 1396 908 1375 c 0
 908 1370 908 1364 906 1356 c 0
 900 1330 887 1308 864 1289 c 0
 841 1270 817 1261 792 1261 c 0
 770 1261 752 1269 738 1283 c 0
 724 1297 716 1316 716 1339 c 0
 716 1343 716 1348 718 1356 c 0
EndSplineSet
EndChar

StartChar: Zcaron
Encoding: 381 381 242
Width: 1325
Flags: HMW
LayerCount: 2
Fore
SplineSet
438 1456 m 1
 1542 1456 l 1
 399 141 l 1
 1275 141 l 1
 1245 0 l 1
 100 0 l 1
 1253 1315 l 1
 409 1315 l 1
 438 1456 l 1
1442 1858 m 1
 1089 1514 l 1
 958 1514 l 1
 754 1856 l 1
 940 1856 l 1
 1053 1645 l 1
 1254 1858 l 1
 1442 1858 l 1
EndSplineSet
EndChar

StartChar: caron
Encoding: 711 711 243
Width: 1062
Flags: HMW
LayerCount: 2
Fore
SplineSet
1267 1858 m 1
 914 1514 l 1
 783 1514 l 1
 579 1856 l 1
 765 1856 l 1
 878 1645 l 1
 1079 1858 l 1
 1267 1858 l 1
EndSplineSet
EndChar

StartChar: dotaccent
Encoding: 729 729 244
Width: 420
Flags: HMW
LayerCount: 2
Fore
SplineSet
434 1683 m 0
 439 1708 453 1730 476 1749 c 0
 499 1768 523 1777 548 1777 c 0
 570 1777 588 1770 602 1756 c 0
 616 1742 623 1723 624 1702 c 0
 624 1697 624 1691 622 1683 c 0
 616 1657 602 1635 579 1616 c 0
 556 1597 533 1588 508 1588 c 0
 486 1588 467 1596 453 1610 c 0
 439 1624 432 1643 432 1666 c 0
 432 1670 432 1675 434 1683 c 0
EndSplineSet
EndChar

StartChar: hungarumlaut
Encoding: 733 733 245
Width: 1329
Flags: HMW
LayerCount: 2
Fore
SplineSet
1133 1595 m 2
 1406 1909 l 1
 1427 1931 1449 1942 1473 1942 c 0
 1490 1942 1504 1936 1515 1925 c 1
 1528 1914 1535 1900 1535 1881 c 0
 1535 1876 1534 1872 1533 1868 c 0
 1530 1852 1521 1836 1507 1821 c 1
 1207 1531 l 2
 1196 1520 1182 1514 1167 1514 c 0
 1154 1514 1143 1518 1133 1525 c 1
 1123 1534 1118 1546 1118 1559 c 0
 1118 1562 1119 1566 1120 1569 c 0
 1122 1578 1126 1586 1133 1595 c 2
789 1595 m 2
 1062 1909 l 1
 1083 1931 1105 1942 1129 1942 c 0
 1146 1942 1160 1936 1171 1925 c 1
 1184 1914 1191 1900 1191 1881 c 0
 1191 1876 1190 1872 1189 1868 c 0
 1186 1852 1177 1836 1163 1821 c 1
 863 1531 l 2
 852 1520 838 1514 823 1514 c 0
 810 1514 799 1518 789 1525 c 1
 779 1534 774 1547 774 1561 c 0
 774 1564 775 1566 776 1569 c 0
 778 1578 782 1586 789 1595 c 2
EndSplineSet
EndChar

StartChar: scaron
Encoding: 353 353 246
Width: 921
Flags: HMW
LayerCount: 2
Fore
SplineSet
570 477 m 0
 433 525 286 588 286 746 c 0
 286 765 288 787 293 809 c 0
 334 1000 516 1096 702 1098 c 0
 930 1098 998 957 1008 871 c 1
 856 841 l 1
 843 898 801 963 676 963 c 0
 578 963 468 914 447 813 c 0
 444 801 443 789 443 779 c 0
 443 679 551 648 604 627 c 0
 720 581 908 529 908 350 c 0
 908 330 906 310 901 287 c 0
 861 101 664 -29 467 -29 c 0
 254 -29 159 78 142 217 c 1
 295 245 l 1
 314 163 361 106 492 106 c 0
 627 106 723 174 747 287 c 0
 749 298 750 308 750 317 c 0
 750 408 652 449 570 477 c 0
1126 1514 m 1
 773 1170 l 1
 642 1170 l 1
 437 1512 l 1
 623 1512 l 1
 737 1301 l 1
 938 1514 l 1
 1126 1514 l 1
EndSplineSet
EndChar

StartChar: zacute
Encoding: 378 378 247
Width: 962
Flags: HMW
LayerCount: 2
Fore
SplineSet
372 141 m 1
 907 141 l 1
 877 0 l 1
 90 0 l 1
 853 932 l 2
 329 932 l 1
 359 1073 l 1
 1135 1073 l 1
 372 141 l 1
707 1329 m 2
 1042 1579 l 1
 1061 1592 1076 1597 1093 1597 c 0
 1099 1597 1105 1597 1111 1595 c 0
 1127 1591 1138 1581 1145 1567 c 1
 1151 1558 1154 1547 1154 1536 c 0
 1154 1531 1153 1526 1152 1521 c 0
 1151 1514 1148 1509 1146 1504 c 0
 1139 1489 1127 1475 1110 1463 c 1
 758 1244 l 2
 749 1238 740 1235 731 1235 c 0
 727 1235 722 1236 717 1237 c 0
 705 1240 695 1247 689 1257 c 1
 685 1265 683 1273 683 1282 c 0
 683 1285 683 1288 684 1292 c 0
 685 1297 687 1302 689 1306 c 0
 693 1314 699 1322 707 1329 c 2
EndSplineSet
EndChar

StartChar: zcaron
Encoding: 382 382 248
Width: 962
Flags: HMW
LayerCount: 2
Fore
SplineSet
372 141 m 1
 907 141 l 1
 877 0 l 1
 90 0 l 1
 853 932 l 2
 329 932 l 1
 359 1073 l 1
 1135 1073 l 1
 372 141 l 1
1181 1510 m 1
 828 1166 l 1
 697 1166 l 1
 493 1508 l 1
 679 1508 l 1
 792 1297 l 1
 993 1510 l 1
 1181 1510 l 1
EndSplineSet
EndChar

StartChar: lslash
Encoding: 322 322 249
Width: 472
Flags: HMW
LayerCount: 2
Fore
SplineSet
125 510 m 1
 169 712 l 1
 301 821 l 1
 435 1454 l 1
 586 1454 l 1
 484 974 l 1
 638 1102 l 1
 595 894 l 1
 440 767 l 1
 321 207 l 2
 319 196 318 186 318 177 c 0
 318 127 351 102 418 102 c 1
 390 -29 l 1
 315 -29 259 -17 220 8 c 0
 181 33 161 75 161 134 c 0
 161 159 165 182 169 203 c 2
 257 618 l 1
 125 510 l 1
EndSplineSet
EndChar

StartChar: sacute
Encoding: 347 347 250
Width: 921
Flags: HMW
LayerCount: 2
Fore
SplineSet
570 477 m 0
 433 525 286 588 286 746 c 0
 286 765 288 787 293 809 c 0
 334 1000 516 1096 702 1098 c 0
 930 1098 998 957 1008 871 c 1
 856 841 l 1
 843 898 801 963 676 963 c 0
 578 963 468 914 447 813 c 0
 444 801 443 789 443 779 c 0
 443 679 551 648 604 627 c 0
 720 581 908 529 908 350 c 0
 908 330 906 310 901 287 c 0
 861 101 664 -29 467 -29 c 0
 254 -29 159 78 142 217 c 1
 295 245 l 1
 314 163 361 106 492 106 c 0
 627 106 723 174 747 287 c 0
 749 298 750 308 750 317 c 0
 750 408 652 449 570 477 c 0
649 1329 m 2
 984 1579 l 1
 1003 1592 1018 1597 1035 1597 c 0
 1041 1597 1047 1597 1053 1595 c 0
 1069 1591 1080 1581 1087 1567 c 1
 1093 1558 1096 1547 1096 1536 c 0
 1096 1531 1095 1526 1094 1521 c 0
 1093 1514 1090 1509 1088 1504 c 0
 1081 1489 1069 1475 1052 1463 c 1
 700 1244 l 2
 691 1238 682 1235 673 1235 c 0
 669 1235 664 1236 659 1237 c 0
 647 1240 637 1247 631 1257 c 1
 627 1265 625 1273 625 1282 c 0
 625 1285 625 1288 626 1292 c 0
 627 1297 629 1302 631 1306 c 0
 635 1314 641 1322 649 1329 c 2
EndSplineSet
EndChar

StartChar: ogonek
Encoding: 731 731 251
Width: 473
Flags: HMW
LayerCount: 2
Fore
SplineSet
329 -190 m 1
 259 -315 l 1
 253 -311 240 -302 218 -287 c 0
 196 -272 180 -260 168 -250 c 0
 156 -240 143 -226 127 -210 c 0
 111 -194 101 -177 96 -158 c 0
 94 -149 93 -139 93 -129 c 0
 93 -119 94 -109 96 -98 c 0
 98 -89 102 -76 108 -60 c 1
 129 -12 165 33 217 74 c 1
 334 18 l 1
 317 1 301 -16 288 -31 c 0
 275 -46 266 -60 262 -71 c 0
 260 -78 258 -83 257 -86 c 0
 255 -95 256 -104 260 -114 c 0
 264 -124 270 -134 281 -145 c 0
 292 -156 299 -164 304 -168 c 0
 309 -172 318 -180 329 -190 c 1
EndSplineSet
EndChar

StartChar: Ydieresis
Encoding: 376 376 252
Width: 1179
Flags: HMW
LayerCount: 2
Fore
SplineSet
619 1683 m 0
 624 1708 638 1730 661 1749 c 0
 684 1768 708 1777 733 1777 c 0
 755 1777 773 1770 787 1756 c 0
 801 1742 808 1723 809 1702 c 0
 809 1697 809 1691 807 1683 c 0
 801 1657 787 1635 764 1616 c 0
 741 1597 718 1588 693 1588 c 0
 671 1588 652 1596 638 1610 c 0
 624 1624 617 1642 617 1664 c 0
 617 1668 617 1674 619 1683 c 0
1090 1685 m 0
 1095 1710 1109 1732 1132 1751 c 0
 1155 1770 1179 1779 1204 1779 c 0
 1226 1779 1245 1772 1259 1758 c 0
 1273 1744 1279 1725 1280 1704 c 0
 1280 1699 1280 1693 1278 1685 c 0
 1272 1659 1259 1637 1236 1618 c 0
 1213 1599 1189 1590 1164 1590 c 0
 1142 1590 1124 1598 1110 1612 c 0
 1096 1626 1088 1644 1088 1666 c 0
 1089 1674 1089 1680 1090 1685 c 0
385 1456 m 1
 553 1456 l 1
 782 856 l 1
 1265 1456 l 1
 1433 1456 l 1
 837 748 l 1
 678 0 l 1
 520 0 l 1
 679 748 l 1
 385 1456 l 1
EndSplineSet
EndChar

StartChar: ring
Encoding: 730 730 253
Width: 1036
Flags: HMW
LayerCount: 2
Fore
SplineSet
754 1721 m 0
 752 1710 750 1701 750 1691 c 0
 750 1660 760 1636 779 1616 c 0
 798 1596 824 1587 855 1587 c 0
 892 1587 925 1600 956 1626 c 0
 987 1652 1006 1683 1014 1721 c 0
 1016 1731 1017 1741 1017 1751 c 0
 1017 1782 1007 1807 988 1827 c 0
 969 1847 944 1856 913 1856 c 0
 876 1856 843 1843 812 1817 c 0
 781 1791 762 1758 754 1721 c 0
647 1718 m 0
 661 1782 695 1837 751 1882 c 0
 807 1927 867 1950 932 1950 c 0
 988 1950 1034 1933 1070 1898 c 0
 1106 1863 1124 1819 1124 1766 c 0
 1124 1753 1123 1737 1119 1718 c 0
 1105 1653 1071 1598 1015 1553 c 0
 959 1508 899 1485 834 1485 c 0
 778 1485 732 1502 696 1537 c 0
 660 1572 643 1616 643 1669 c 0
 643 1671 643 1674 643 1676 c 0
 643 1690 644 1704 647 1718 c 0
EndSplineSet
EndChar

StartChar: circumflex
Encoding: 710 710 254
Width: 1046
Flags: HMW
LayerCount: 2
Fore
SplineSet
1196 1514 m 1
 1008 1514 l 1
 897 1727 l 1
 694 1516 l 0
 508 1516 l 1
 858 1858 l 1
 989 1858 l 1
 1196 1514 l 1
EndSplineSet
EndChar

StartChar: guilsinglleft
Encoding: 8249 8249 255
Width: 512
VWidth: 2050
Flags: HMW
LayerCount: 2
Fore
SplineSet
455 906 m 1
 591 906 l 1
 336 615 l 1
 467 324 l 1
 331 324 l 1
 201 615 l 1
 455 906 l 1
EndSplineSet
EndChar

StartChar: guilsinglright
Encoding: 8250 8250 256
Width: 574
VWidth: 2050
Flags: HMW
LayerCount: 2
Fore
SplineSet
437 906 m 1
 568 615 l 1
 313 324 l 1
 178 324 l 1
 432 615 l 1
 302 906 l 1
 437 906 l 1
EndSplineSet
EndChar

StartChar: ordmasculine
Encoding: 186 186 257
Width: 672
Flags: HMW
LayerCount: 2
Fore
SplineSet
500 1583 m 0
 497 1571 496 1560 496 1548 c 0
 496 1514 508 1488 529 1466 c 0
 550 1444 578 1433 613 1433 c 0
 654 1433 690 1447 724 1476 c 0
 758 1505 779 1541 788 1583 c 0
 790 1594 792 1606 792 1617 c 0
 792 1651 781 1678 760 1700 c 0
 739 1722 711 1733 676 1733 c 0
 635 1733 599 1718 565 1689 c 0
 531 1660 509 1624 500 1583 c 0
382 1579 m 0
 397 1650 435 1712 497 1762 c 0
 559 1812 625 1837 698 1837 c 0
 761 1837 812 1818 852 1779 c 0
 892 1740 912 1691 912 1632 c 0
 912 1618 910 1600 906 1579 c 0
 891 1507 853 1446 791 1396 c 0
 729 1346 662 1320 589 1320 c 0
 526 1320 475 1339 435 1378 c 0
 394 1418 376 1467 376 1529 c 0
 376 1545 378 1562 382 1579 c 0
EndSplineSet
EndChar

StartChar: ellipsis
Encoding: 8230 8230 258
Width: 1767
Flags: HMW
LayerCount: 2
Fore
SplineSet
1380 0 m 0
 1350 0 1328 11 1311 32 c 0
 1299 47 1292 65 1292 85 c 0
 1292 92 1293 100 1295 108 c 0
 1301 134 1313 157 1333 176 c 0
 1353 195 1377 208 1402 213 c 0
 1407 214 1416 215 1426 215 c 0
 1455 215 1478 205 1495 184 c 0
 1507 169 1513 151 1513 132 c 0
 1513 124 1512 116 1510 108 c 0
 1504 82 1492 59 1472 40 c 0
 1454 23 1432 11 1403 3 c 0
 1396 1 1388 0 1380 0 c 0
200 0 m 0
 170 0 148 11 131 32 c 0
 119 47 112 65 112 85 c 0
 112 92 113 100 115 108 c 0
 121 134 133 157 153 176 c 0
 173 195 197 208 222 213 c 0
 227 214 236 215 246 215 c 0
 275 215 298 205 315 184 c 0
 327 169 333 151 333 132 c 0
 333 124 332 116 330 108 c 0
 324 82 312 59 292 40 c 0
 274 23 252 11 223 3 c 0
 216 1 208 0 200 0 c 0
792 0 m 0
 762 0 740 11 723 32 c 0
 711 47 704 65 704 85 c 0
 704 92 705 100 707 108 c 0
 713 134 726 157 746 176 c 0
 766 195 790 207 815 212 c 0
 820 213 827 214 837 214 c 0
 866 214 890 204 907 183 c 0
 919 168 925 150 925 131 c 0
 925 123 924 116 922 108 c 0
 916 82 905 59 885 40 c 0
 867 23 843 10 814 2 c 0
 807 0 800 0 792 0 c 0
EndSplineSet
EndChar

StartChar: dagger
Encoding: 8224 8224 259
Width: 944
Flags: HMW
LayerCount: 2
Fore
SplineSet
741 885 m 1
 553 0 l 1
 410 0 l 1
 598 885 l 1
 322 885 l 1
 352 1027 l 1
 628 1027 l 1
 719 1454 l 1
 862 1454 l 1
 771 1027 l 1
 1028 1027 l 1
 998 885 l 1
 741 885 l 1
EndSplineSet
EndChar

StartChar: daggerdbl
Encoding: 8225 8225 260
Width: 944
Flags: HMW
LayerCount: 2
Fore
SplineSet
767 1007 m 1
 663 516 l 1
 920 516 l 1
 889 374 l 1
 632 374 l 1
 553 0 l 1
 410 0 l 1
 489 374 l 1
 213 374 l 1
 244 516 l 1
 520 516 l 1
 624 1007 l 1
 348 1007 l 1
 378 1149 l 1
 654 1149 l 1
 719 1454 l 1
 862 1454 l 1
 797 1149 l 1
 1054 1149 l 1
 1024 1007 l 1
 767 1007 l 1
EndSplineSet
EndChar

StartChar: bullet
Encoding: 8226 8226 261
Width: 639
VWidth: 2050
Flags: HMW
LayerCount: 2
Fore
SplineSet
190 615 m 0
 209 704 261 774 346 826 c 0
 398 857 452 873 508 873 c 0
 600 873 663 837 699 763 c 0
 713 734 720 702 720 668 c 0
 720 650 719 633 715 615 c 0
 696 526 645 456 560 404 c 0
 508 373 454 357 398 357 c 0
 306 357 242 393 206 467 c 0
 192 496 185 528 185 562 c 0
 185 564 185 565 185 567 c 0
 185 583 187 599 190 615 c 0
EndSplineSet
EndChar

StartChar: tilde
Encoding: 732 732 262
Width: 735
Flags: HMW
LayerCount: 2
Fore
SplineSet
225 764 m 1
 245 777 266 792 285 806 c 0
 304 820 327 833 353 844 c 0
 379 855 405 860 429 860 c 0
 447 860 463 854 480 844 c 0
 497 834 511 821 524 806 c 0
 537 791 550 777 563 762 c 0
 576 747 591 734 608 724 c 0
 625 714 644 709 663 709 c 0
 684 709 707 714 732 724 c 0
 757 734 781 748 802 762 c 0
 823 776 847 791 872 807 c 1
 841 662 l 1
 815 645 792 630 771 615 c 0
 750 600 728 588 703 578 c 0
 678 568 655 563 632 563 c 0
 611 563 590 568 571 578 c 0
 552 588 536 601 522 616 c 0
 508 631 495 647 482 662 c 0
 469 677 456 690 441 700 c 0
 426 710 411 715 396 715 c 0
 372 715 348 710 324 700 c 0
 300 690 278 678 259 664 c 0
 240 650 217 634 194 618 c 1
 225 764 l 1
EndSplineSet
EndChar

